G04 #@! TF.GenerationSoftware,KiCad,Pcbnew,6.0.5-a6ca702e91~116~ubuntu20.04.1*
G04 #@! TF.CreationDate,2022-05-18T17:07:33-04:00*
G04 #@! TF.ProjectId,vcapf_jacks,76636170-665f-46a6-9163-6b732e6b6963,rev?*
G04 #@! TF.SameCoordinates,Original*
G04 #@! TF.FileFunction,Copper,L1,Top*
G04 #@! TF.FilePolarity,Positive*
%FSLAX46Y46*%
G04 Gerber Fmt 4.6, Leading zero omitted, Abs format (unit mm)*
G04 Created by KiCad (PCBNEW 6.0.5-a6ca702e91~116~ubuntu20.04.1) date 2022-05-18 17:07:33*
%MOMM*%
%LPD*%
G01*
G04 APERTURE LIST*
G04 Aperture macros list*
%AMRotRect*
0 Rectangle, with rotation*
0 The origin of the aperture is its center*
0 $1 length*
0 $2 width*
0 $3 Rotation angle, in degrees counterclockwise*
0 Add horizontal line*
21,1,$1,$2,0,0,$3*%
G04 Aperture macros list end*
G04 #@! TA.AperFunction,ComponentPad*
%ADD10O,2.500000X4.500001*%
G04 #@! TD*
G04 #@! TA.AperFunction,ComponentPad*
%ADD11O,4.500001X2.500001*%
G04 #@! TD*
G04 #@! TA.AperFunction,ComponentPad*
%ADD12RotRect,4.500001X2.500001X315.000000*%
G04 #@! TD*
G04 #@! TA.AperFunction,ComponentPad*
%ADD13O,4.500000X2.500000*%
G04 #@! TD*
G04 #@! TA.AperFunction,ComponentPad*
%ADD14O,2.500000X4.500000*%
G04 #@! TD*
G04 #@! TA.AperFunction,ComponentPad*
%ADD15R,1.700000X1.700000*%
G04 #@! TD*
G04 #@! TA.AperFunction,ComponentPad*
%ADD16O,1.700000X1.700000*%
G04 #@! TD*
G04 #@! TA.AperFunction,ComponentPad*
%ADD17C,1.600000*%
G04 #@! TD*
G04 #@! TA.AperFunction,ComponentPad*
%ADD18O,1.600000X1.600000*%
G04 #@! TD*
G04 #@! TA.AperFunction,Conductor*
%ADD19C,0.250000*%
G04 #@! TD*
G04 APERTURE END LIST*
D10*
G04 #@! TO.P,J2,R*
G04 #@! TO.N,N/C*
X143899999Y-90499999D03*
D11*
G04 #@! TO.P,J2,RN*
X139999999Y-96399999D03*
D12*
G04 #@! TO.P,J2,S*
G04 #@! TO.N,Board_0-GND1*
X132759999Y-94739999D03*
D13*
G04 #@! TO.P,J2,T*
G04 #@! TO.N,Board_0-/INPUT_J*
X136999999Y-83599999D03*
D14*
G04 #@! TO.P,J2,TN*
G04 #@! TO.N,N/C*
X131099999Y-87499999D03*
G04 #@! TD*
D10*
G04 #@! TO.P,J7,R*
G04 #@! TO.N,N/C*
X168899999Y-115499999D03*
D11*
G04 #@! TO.P,J7,RN*
X164999999Y-121399999D03*
D12*
G04 #@! TO.P,J7,S*
G04 #@! TO.N,Board_0-GND1*
X157759999Y-119739999D03*
D13*
G04 #@! TO.P,J7,T*
G04 #@! TO.N,Board_0-/2P OUT*
X161999999Y-108599999D03*
D14*
G04 #@! TO.P,J7,TN*
G04 #@! TO.N,N/C*
X156099999Y-112499999D03*
G04 #@! TD*
D10*
G04 #@! TO.P,J3,R*
G04 #@! TO.N,N/C*
X168899999Y-90499999D03*
D11*
G04 #@! TO.P,J3,RN*
X164999999Y-96399999D03*
D12*
G04 #@! TO.P,J3,S*
G04 #@! TO.N,Board_0-GND1*
X157759999Y-94739999D03*
D13*
G04 #@! TO.P,J3,T*
G04 #@! TO.N,Board_0-/CV_J*
X161999999Y-83599999D03*
D14*
G04 #@! TO.P,J3,TN*
G04 #@! TO.N,N/C*
X156099999Y-87499999D03*
G04 #@! TD*
D15*
G04 #@! TO.P,J5,1,Pin_1*
G04 #@! TO.N,Board_0-GND1*
X155159999Y-78499999D03*
D16*
G04 #@! TO.P,J5,2,Pin_2*
G04 #@! TO.N,Board_0-/2POLE_OUT_J*
X152619999Y-78499999D03*
G04 #@! TO.P,J5,3,Pin_3*
G04 #@! TO.N,Board_0-/1POLE_OUT_J*
X150079999Y-78499999D03*
G04 #@! TO.P,J5,4,Pin_4*
G04 #@! TO.N,Board_0-/CV_J*
X147539999Y-78499999D03*
G04 #@! TO.P,J5,5,Pin_5*
G04 #@! TO.N,Board_0-/INPUT_J*
X144999999Y-78499999D03*
G04 #@! TD*
D10*
G04 #@! TO.P,J6,R*
G04 #@! TO.N,N/C*
X143899999Y-115499999D03*
D11*
G04 #@! TO.P,J6,RN*
X139999999Y-121399999D03*
D12*
G04 #@! TO.P,J6,S*
G04 #@! TO.N,Board_0-GND1*
X132759999Y-119739999D03*
D13*
G04 #@! TO.P,J6,T*
G04 #@! TO.N,Board_0-/1P OUT*
X136999999Y-108599999D03*
D14*
G04 #@! TO.P,J6,TN*
G04 #@! TO.N,N/C*
X131099999Y-112499999D03*
G04 #@! TD*
D17*
G04 #@! TO.P,R2,1*
G04 #@! TO.N,Board_0-/2POLE_OUT_J*
X150329999Y-107309999D03*
D18*
G04 #@! TO.P,R2,2*
G04 #@! TO.N,Board_0-GND1*
X150329999Y-117469999D03*
G04 #@! TD*
D17*
G04 #@! TO.P,R1,1*
G04 #@! TO.N,Board_0-/1POLE_OUT_J*
X145249999Y-103499999D03*
D18*
G04 #@! TO.P,R1,2*
G04 #@! TO.N,Board_0-GND1*
X155409999Y-103499999D03*
G04 #@! TD*
D17*
G04 #@! TO.P,R4,1*
G04 #@! TO.N,Board_0-/2POLE_OUT_J*
X159219999Y-103499999D03*
D18*
G04 #@! TO.P,R4,2*
G04 #@! TO.N,Board_0-/2P OUT*
X169379999Y-103499999D03*
G04 #@! TD*
D17*
G04 #@! TO.P,R3,1*
G04 #@! TO.N,Board_0-/1POLE_OUT_J*
X140169999Y-103499999D03*
D18*
G04 #@! TO.P,R3,2*
G04 #@! TO.N,Board_0-/1P OUT*
X130009999Y-103499999D03*
G04 #@! TD*
D19*
G04 #@! TO.N,Board_0-/1P OUT*
X130009999Y-104836706D02*
X133773292Y-108599999D01*
X133773292Y-108599999D02*
X136999999Y-108599999D01*
X130009999Y-103499999D02*
X130009999Y-104836706D01*
G04 #@! TO.N,Board_0-/1POLE_OUT_J*
X150079999Y-98669999D02*
X145249999Y-103499999D01*
X150079999Y-78499999D02*
X150079999Y-98669999D01*
G04 #@! TO.N,Board_0-/2P OUT*
X169379999Y-103499999D02*
X167099999Y-103499999D01*
X167099999Y-103499999D02*
X161999999Y-108599999D01*
G04 #@! TO.N,Board_0-/2POLE_OUT_J*
X152619999Y-78499999D02*
X152619999Y-96899999D01*
X152619999Y-96899999D02*
X159219999Y-103499999D01*
G04 #@! TO.N,Board_0-/INPUT_J*
X142099999Y-78499999D02*
X144999999Y-78499999D01*
X136999999Y-83599999D02*
X142099999Y-78499999D01*
G04 #@! TD*
G04 #@! TA.AperFunction,Conductor*
G04 #@! TO.N,Board_0-GND1*
G36*
X149990926Y-75508146D02*
G01*
X172366498Y-75508491D01*
X172434618Y-75528494D01*
X172481110Y-75582150D01*
X172492496Y-75634492D01*
X172492360Y-98840311D01*
X172492219Y-123073451D01*
X172492211Y-124366208D01*
X172472209Y-124434328D01*
X172418553Y-124480821D01*
X172366211Y-124492207D01*
X127633792Y-124492207D01*
X127565671Y-124472205D01*
X127519178Y-124418549D01*
X127507792Y-124366207D01*
X127507792Y-121163829D01*
X131701709Y-121163829D01*
X131701840Y-121165662D01*
X131706091Y-121172277D01*
X133139480Y-122605666D01*
X133144564Y-122610228D01*
X133184437Y-122642289D01*
X133197788Y-122650510D01*
X133314888Y-122703751D01*
X133331949Y-122708740D01*
X133458217Y-122726823D01*
X133475995Y-122726823D01*
X133602263Y-122708740D01*
X133619324Y-122703751D01*
X133736419Y-122650512D01*
X133749776Y-122642287D01*
X133789660Y-122610220D01*
X133794719Y-122605680D01*
X134517786Y-121882612D01*
X134525397Y-121868674D01*
X134525265Y-121866838D01*
X134521016Y-121860226D01*
X134168444Y-121507654D01*
X137239857Y-121507654D01*
X137275103Y-121766637D01*
X137276411Y-121771123D01*
X137276411Y-121771125D01*
X137296097Y-121838663D01*
X137348242Y-122017566D01*
X137457667Y-122254927D01*
X137460230Y-122258836D01*
X137598409Y-122469595D01*
X137598413Y-122469600D01*
X137600975Y-122473508D01*
X137775017Y-122668505D01*
X137975969Y-122835636D01*
X137979972Y-122838065D01*
X138195421Y-122968803D01*
X138195425Y-122968805D01*
X138199418Y-122971228D01*
X138440454Y-123072302D01*
X138693782Y-123136640D01*
X138698433Y-123137108D01*
X138698437Y-123137109D01*
X138891307Y-123156530D01*
X138910866Y-123158499D01*
X141066353Y-123158499D01*
X141068678Y-123158326D01*
X141068684Y-123158326D01*
X141255999Y-123144406D01*
X141256003Y-123144405D01*
X141260651Y-123144060D01*
X141265199Y-123143031D01*
X141265205Y-123143030D01*
X141451600Y-123100852D01*
X141515576Y-123086376D01*
X141551768Y-123072302D01*
X141754823Y-122993339D01*
X141754826Y-122993338D01*
X141759176Y-122991646D01*
X141986097Y-122861950D01*
X142191356Y-122700137D01*
X142370442Y-122509762D01*
X142519423Y-122295008D01*
X142635024Y-122060592D01*
X142714706Y-121811664D01*
X142756720Y-121553692D01*
X142760141Y-121292344D01*
X142742651Y-121163829D01*
X156701709Y-121163829D01*
X156701840Y-121165662D01*
X156706091Y-121172277D01*
X158139480Y-122605666D01*
X158144564Y-122610228D01*
X158184437Y-122642289D01*
X158197788Y-122650510D01*
X158314888Y-122703751D01*
X158331949Y-122708740D01*
X158458217Y-122726823D01*
X158475995Y-122726823D01*
X158602263Y-122708740D01*
X158619324Y-122703751D01*
X158736419Y-122650512D01*
X158749776Y-122642287D01*
X158789660Y-122610220D01*
X158794719Y-122605680D01*
X159517786Y-121882612D01*
X159525397Y-121868674D01*
X159525265Y-121866838D01*
X159521016Y-121860226D01*
X159168444Y-121507654D01*
X162239857Y-121507654D01*
X162275103Y-121766637D01*
X162276411Y-121771123D01*
X162276411Y-121771125D01*
X162296097Y-121838663D01*
X162348242Y-122017566D01*
X162457667Y-122254927D01*
X162460230Y-122258836D01*
X162598409Y-122469595D01*
X162598413Y-122469600D01*
X162600975Y-122473508D01*
X162775017Y-122668505D01*
X162975969Y-122835636D01*
X162979972Y-122838065D01*
X163195421Y-122968803D01*
X163195425Y-122968805D01*
X163199418Y-122971228D01*
X163440454Y-123072302D01*
X163693782Y-123136640D01*
X163698433Y-123137108D01*
X163698437Y-123137109D01*
X163891307Y-123156530D01*
X163910866Y-123158499D01*
X166066353Y-123158499D01*
X166068678Y-123158326D01*
X166068684Y-123158326D01*
X166255999Y-123144406D01*
X166256003Y-123144405D01*
X166260651Y-123144060D01*
X166265199Y-123143031D01*
X166265205Y-123143030D01*
X166451600Y-123100852D01*
X166515576Y-123086376D01*
X166551768Y-123072302D01*
X166754823Y-122993339D01*
X166754826Y-122993338D01*
X166759176Y-122991646D01*
X166986097Y-122861950D01*
X167191356Y-122700137D01*
X167370442Y-122509762D01*
X167519423Y-122295008D01*
X167635024Y-122060592D01*
X167714706Y-121811664D01*
X167756720Y-121553692D01*
X167760141Y-121292344D01*
X167724895Y-121033361D01*
X167710472Y-120983876D01*
X167656378Y-120798289D01*
X167651756Y-120782432D01*
X167542331Y-120545071D01*
X167483930Y-120455995D01*
X167401589Y-120330403D01*
X167401585Y-120330398D01*
X167399023Y-120326490D01*
X167224981Y-120131493D01*
X167024029Y-119964362D01*
X166976843Y-119935729D01*
X166804577Y-119831195D01*
X166804573Y-119831193D01*
X166800580Y-119828770D01*
X166559544Y-119727696D01*
X166306216Y-119663358D01*
X166301565Y-119662890D01*
X166301561Y-119662889D01*
X166092270Y-119641815D01*
X166089132Y-119641499D01*
X163933645Y-119641499D01*
X163931320Y-119641672D01*
X163931314Y-119641672D01*
X163743999Y-119655592D01*
X163743995Y-119655593D01*
X163739347Y-119655938D01*
X163734799Y-119656967D01*
X163734793Y-119656968D01*
X163548398Y-119699146D01*
X163484422Y-119713622D01*
X163480070Y-119715314D01*
X163480068Y-119715315D01*
X163245175Y-119806659D01*
X163245172Y-119806660D01*
X163240822Y-119808352D01*
X163013901Y-119938048D01*
X162808642Y-120099861D01*
X162629556Y-120290236D01*
X162480575Y-120504990D01*
X162478509Y-120509180D01*
X162478507Y-120509183D01*
X162434055Y-120599324D01*
X162364974Y-120739406D01*
X162363552Y-120743849D01*
X162363551Y-120743851D01*
X162286719Y-120983876D01*
X162285292Y-120988334D01*
X162243278Y-121246306D01*
X162239857Y-121507654D01*
X159168444Y-121507654D01*
X157772811Y-120112021D01*
X157758867Y-120104407D01*
X157757034Y-120104538D01*
X157750419Y-120108789D01*
X156709323Y-121149885D01*
X156701709Y-121163829D01*
X142742651Y-121163829D01*
X142724895Y-121033361D01*
X142710472Y-120983876D01*
X142656378Y-120798289D01*
X142651756Y-120782432D01*
X142542331Y-120545071D01*
X142483930Y-120455995D01*
X142401589Y-120330403D01*
X142401585Y-120330398D01*
X142399023Y-120326490D01*
X142224981Y-120131493D01*
X142024029Y-119964362D01*
X141976843Y-119935729D01*
X141804577Y-119831195D01*
X141804573Y-119831193D01*
X141800580Y-119828770D01*
X141559544Y-119727696D01*
X141306216Y-119663358D01*
X141301565Y-119662890D01*
X141301561Y-119662889D01*
X141092270Y-119641815D01*
X141089132Y-119641499D01*
X138933645Y-119641499D01*
X138931320Y-119641672D01*
X138931314Y-119641672D01*
X138743999Y-119655592D01*
X138743995Y-119655593D01*
X138739347Y-119655938D01*
X138734799Y-119656967D01*
X138734793Y-119656968D01*
X138548398Y-119699146D01*
X138484422Y-119713622D01*
X138480070Y-119715314D01*
X138480068Y-119715315D01*
X138245175Y-119806659D01*
X138245172Y-119806660D01*
X138240822Y-119808352D01*
X138013901Y-119938048D01*
X137808642Y-120099861D01*
X137629556Y-120290236D01*
X137480575Y-120504990D01*
X137478509Y-120509180D01*
X137478507Y-120509183D01*
X137434055Y-120599324D01*
X137364974Y-120739406D01*
X137363552Y-120743849D01*
X137363551Y-120743851D01*
X137286719Y-120983876D01*
X137285292Y-120988334D01*
X137243278Y-121246306D01*
X137239857Y-121507654D01*
X134168444Y-121507654D01*
X132772811Y-120112021D01*
X132758867Y-120104407D01*
X132757034Y-120104538D01*
X132750419Y-120108789D01*
X131709323Y-121149885D01*
X131701709Y-121163829D01*
X127507792Y-121163829D01*
X127507792Y-119041781D01*
X129773175Y-119041781D01*
X129791258Y-119168049D01*
X129796247Y-119185110D01*
X129849487Y-119302208D01*
X129857710Y-119315562D01*
X129889770Y-119355436D01*
X129894331Y-119360518D01*
X131324489Y-120790675D01*
X131338433Y-120798289D01*
X131340267Y-120798158D01*
X131346879Y-120793909D01*
X132387977Y-119752811D01*
X132394355Y-119741131D01*
X133124407Y-119741131D01*
X133124538Y-119742964D01*
X133128789Y-119749579D01*
X134876992Y-121497782D01*
X134890936Y-121505396D01*
X134892769Y-121505265D01*
X134899384Y-121501014D01*
X135625666Y-120774732D01*
X135630227Y-120769649D01*
X135662288Y-120729775D01*
X135670511Y-120716421D01*
X135723751Y-120599324D01*
X135728740Y-120582263D01*
X135746823Y-120455995D01*
X135746823Y-120438217D01*
X135728740Y-120311949D01*
X135723751Y-120294888D01*
X135670511Y-120177790D01*
X135662288Y-120164436D01*
X135630228Y-120124562D01*
X135625667Y-120119480D01*
X134547967Y-119041781D01*
X154773175Y-119041781D01*
X154791258Y-119168049D01*
X154796247Y-119185110D01*
X154849487Y-119302208D01*
X154857710Y-119315562D01*
X154889770Y-119355436D01*
X154894331Y-119360518D01*
X156324489Y-120790675D01*
X156338433Y-120798289D01*
X156340267Y-120798158D01*
X156346879Y-120793909D01*
X157387977Y-119752811D01*
X157394355Y-119741131D01*
X158124407Y-119741131D01*
X158124538Y-119742964D01*
X158128789Y-119749579D01*
X159876992Y-121497782D01*
X159890936Y-121505396D01*
X159892769Y-121505265D01*
X159899384Y-121501014D01*
X160625666Y-120774732D01*
X160630227Y-120769649D01*
X160662288Y-120729775D01*
X160670511Y-120716421D01*
X160723751Y-120599324D01*
X160728740Y-120582263D01*
X160746823Y-120455995D01*
X160746823Y-120438217D01*
X160728740Y-120311949D01*
X160723751Y-120294888D01*
X160670511Y-120177790D01*
X160662288Y-120164436D01*
X160630228Y-120124562D01*
X160625667Y-120119480D01*
X159195509Y-118689323D01*
X159181565Y-118681709D01*
X159179731Y-118681840D01*
X159173119Y-118686089D01*
X158132021Y-119727187D01*
X158124407Y-119741131D01*
X157394355Y-119741131D01*
X157395591Y-119738867D01*
X157395460Y-119737034D01*
X157391209Y-119730419D01*
X155643006Y-117982216D01*
X155629062Y-117974602D01*
X155627229Y-117974733D01*
X155620614Y-117978984D01*
X154894332Y-118705266D01*
X154889771Y-118710349D01*
X154857710Y-118750223D01*
X154849487Y-118763577D01*
X154796247Y-118880674D01*
X154791258Y-118897735D01*
X154773175Y-119024003D01*
X154773175Y-119041781D01*
X134547967Y-119041781D01*
X134195509Y-118689323D01*
X134181565Y-118681709D01*
X134179731Y-118681840D01*
X134173119Y-118686089D01*
X133132021Y-119727187D01*
X133124407Y-119741131D01*
X132394355Y-119741131D01*
X132395591Y-119738867D01*
X132395460Y-119737034D01*
X132391209Y-119730419D01*
X130643006Y-117982216D01*
X130629062Y-117974602D01*
X130627229Y-117974733D01*
X130620614Y-117978984D01*
X129894332Y-118705266D01*
X129889771Y-118710349D01*
X129857710Y-118750223D01*
X129849487Y-118763577D01*
X129796247Y-118880674D01*
X129791258Y-118897735D01*
X129773175Y-119024003D01*
X129773175Y-119041781D01*
X127507792Y-119041781D01*
X127507792Y-117611324D01*
X130994601Y-117611324D01*
X130994733Y-117613160D01*
X130998982Y-117619772D01*
X132747187Y-119367977D01*
X132761131Y-119375591D01*
X132762964Y-119375460D01*
X132769579Y-119371209D01*
X133810675Y-118330113D01*
X133818289Y-118316169D01*
X133818158Y-118314336D01*
X133813907Y-118307721D01*
X132380518Y-116874332D01*
X132375434Y-116869770D01*
X132335561Y-116837709D01*
X132322210Y-116829488D01*
X132205110Y-116776247D01*
X132188049Y-116771258D01*
X132061781Y-116753175D01*
X132044003Y-116753175D01*
X131917735Y-116771258D01*
X131900674Y-116776247D01*
X131783579Y-116829486D01*
X131770222Y-116837711D01*
X131730338Y-116869778D01*
X131725279Y-116874318D01*
X131002212Y-117597386D01*
X130994601Y-117611324D01*
X127507792Y-117611324D01*
X127507792Y-116566353D01*
X142141499Y-116566353D01*
X142141672Y-116568678D01*
X142141672Y-116568684D01*
X142145644Y-116622124D01*
X142155938Y-116760651D01*
X142156967Y-116765199D01*
X142156968Y-116765205D01*
X142199146Y-116951600D01*
X142213622Y-117015576D01*
X142215314Y-117019928D01*
X142215315Y-117019930D01*
X142291562Y-117215999D01*
X142308352Y-117259176D01*
X142438048Y-117486097D01*
X142599861Y-117691356D01*
X142790236Y-117870442D01*
X143004990Y-118019423D01*
X143009180Y-118021489D01*
X143009183Y-118021491D01*
X143235218Y-118132959D01*
X143235221Y-118132960D01*
X143239406Y-118135024D01*
X143243849Y-118136446D01*
X143243851Y-118136447D01*
X143483876Y-118213279D01*
X143488334Y-118214706D01*
X143746306Y-118256720D01*
X143860057Y-118258209D01*
X144002977Y-118260080D01*
X144002980Y-118260080D01*
X144007654Y-118260141D01*
X144266637Y-118224895D01*
X144517566Y-118151756D01*
X144553861Y-118135024D01*
X144583175Y-118121510D01*
X144754927Y-118042331D01*
X144858231Y-117974602D01*
X144969595Y-117901589D01*
X144969600Y-117901585D01*
X144973508Y-117899023D01*
X145155576Y-117736521D01*
X149047272Y-117736521D01*
X149094763Y-117913760D01*
X149098509Y-117924052D01*
X149190585Y-118121510D01*
X149196068Y-118131006D01*
X149321027Y-118309466D01*
X149328083Y-118317874D01*
X149482124Y-118471915D01*
X149490532Y-118478971D01*
X149668992Y-118603930D01*
X149678488Y-118609413D01*
X149875946Y-118701489D01*
X149886238Y-118705235D01*
X150058502Y-118751393D01*
X150072598Y-118751057D01*
X150075999Y-118743115D01*
X150075999Y-118737966D01*
X150583999Y-118737966D01*
X150587972Y-118751497D01*
X150596521Y-118752726D01*
X150773760Y-118705235D01*
X150784052Y-118701489D01*
X150981510Y-118609413D01*
X150991006Y-118603930D01*
X151169466Y-118478971D01*
X151177874Y-118471915D01*
X151331915Y-118317874D01*
X151338971Y-118309466D01*
X151463930Y-118131006D01*
X151469413Y-118121510D01*
X151561489Y-117924052D01*
X151565235Y-117913760D01*
X151611393Y-117741496D01*
X151611057Y-117727400D01*
X151603115Y-117723999D01*
X150602114Y-117723999D01*
X150586875Y-117728474D01*
X150585670Y-117729864D01*
X150583999Y-117737547D01*
X150583999Y-118737966D01*
X150075999Y-118737966D01*
X150075999Y-117742114D01*
X150071524Y-117726875D01*
X150070134Y-117725670D01*
X150062451Y-117723999D01*
X149062032Y-117723999D01*
X149048501Y-117727972D01*
X149047272Y-117736521D01*
X145155576Y-117736521D01*
X145168505Y-117724981D01*
X145263033Y-117611324D01*
X155994601Y-117611324D01*
X155994733Y-117613160D01*
X155998982Y-117619772D01*
X157747187Y-119367977D01*
X157761131Y-119375591D01*
X157762964Y-119375460D01*
X157769579Y-119371209D01*
X158810675Y-118330113D01*
X158818289Y-118316169D01*
X158818158Y-118314336D01*
X158813907Y-118307721D01*
X157380518Y-116874332D01*
X157375434Y-116869770D01*
X157335561Y-116837709D01*
X157322210Y-116829488D01*
X157205110Y-116776247D01*
X157188049Y-116771258D01*
X157061781Y-116753175D01*
X157044003Y-116753175D01*
X156917735Y-116771258D01*
X156900674Y-116776247D01*
X156783579Y-116829486D01*
X156770222Y-116837711D01*
X156730338Y-116869778D01*
X156725279Y-116874318D01*
X156002212Y-117597386D01*
X155994601Y-117611324D01*
X145263033Y-117611324D01*
X145335636Y-117524029D01*
X145471228Y-117300580D01*
X145514033Y-117198502D01*
X149048605Y-117198502D01*
X149048941Y-117212598D01*
X149056883Y-117215999D01*
X150057884Y-117215999D01*
X150073123Y-117211524D01*
X150074328Y-117210134D01*
X150075999Y-117202451D01*
X150075999Y-117197884D01*
X150583999Y-117197884D01*
X150588474Y-117213123D01*
X150589864Y-117214328D01*
X150597547Y-117215999D01*
X151597966Y-117215999D01*
X151611497Y-117212026D01*
X151612726Y-117203477D01*
X151565235Y-117026238D01*
X151561489Y-117015946D01*
X151469413Y-116818488D01*
X151463930Y-116808992D01*
X151338971Y-116630532D01*
X151331915Y-116622124D01*
X151276144Y-116566353D01*
X167141499Y-116566353D01*
X167141672Y-116568678D01*
X167141672Y-116568684D01*
X167145644Y-116622124D01*
X167155938Y-116760651D01*
X167156967Y-116765199D01*
X167156968Y-116765205D01*
X167199146Y-116951600D01*
X167213622Y-117015576D01*
X167215314Y-117019928D01*
X167215315Y-117019930D01*
X167291562Y-117215999D01*
X167308352Y-117259176D01*
X167438048Y-117486097D01*
X167599861Y-117691356D01*
X167790236Y-117870442D01*
X168004990Y-118019423D01*
X168009180Y-118021489D01*
X168009183Y-118021491D01*
X168235218Y-118132959D01*
X168235221Y-118132960D01*
X168239406Y-118135024D01*
X168243849Y-118136446D01*
X168243851Y-118136447D01*
X168483876Y-118213279D01*
X168488334Y-118214706D01*
X168746306Y-118256720D01*
X168860057Y-118258209D01*
X169002977Y-118260080D01*
X169002980Y-118260080D01*
X169007654Y-118260141D01*
X169266637Y-118224895D01*
X169517566Y-118151756D01*
X169553861Y-118135024D01*
X169583175Y-118121510D01*
X169754927Y-118042331D01*
X169858231Y-117974602D01*
X169969595Y-117901589D01*
X169969600Y-117901585D01*
X169973508Y-117899023D01*
X170168505Y-117724981D01*
X170335636Y-117524029D01*
X170471228Y-117300580D01*
X170572302Y-117059544D01*
X170636640Y-116806216D01*
X170658499Y-116589132D01*
X170658499Y-114433645D01*
X170656573Y-114407728D01*
X170644406Y-114243999D01*
X170644405Y-114243995D01*
X170644060Y-114239347D01*
X170632724Y-114189247D01*
X170587407Y-113988979D01*
X170586376Y-113984422D01*
X170491646Y-113740822D01*
X170361950Y-113513901D01*
X170200137Y-113308642D01*
X170009762Y-113129556D01*
X169795008Y-112980575D01*
X169790815Y-112978507D01*
X169564780Y-112867039D01*
X169564777Y-112867038D01*
X169560592Y-112864974D01*
X169514448Y-112850203D01*
X169316122Y-112786719D01*
X169311664Y-112785292D01*
X169053692Y-112743278D01*
X168939941Y-112741789D01*
X168797021Y-112739918D01*
X168797018Y-112739918D01*
X168792344Y-112739857D01*
X168533361Y-112775103D01*
X168282432Y-112848242D01*
X168278179Y-112850202D01*
X168278178Y-112850203D01*
X168241658Y-112867039D01*
X168045071Y-112957667D01*
X168006066Y-112983240D01*
X167830403Y-113098409D01*
X167830398Y-113098413D01*
X167826490Y-113100975D01*
X167631493Y-113275017D01*
X167464362Y-113475969D01*
X167328770Y-113699418D01*
X167227696Y-113940454D01*
X167163358Y-114193782D01*
X167162890Y-114198433D01*
X167162889Y-114198437D01*
X167152604Y-114300580D01*
X167141499Y-114410866D01*
X167141499Y-116566353D01*
X151276144Y-116566353D01*
X151177874Y-116468083D01*
X151169466Y-116461027D01*
X150991006Y-116336068D01*
X150981510Y-116330585D01*
X150784052Y-116238509D01*
X150773760Y-116234763D01*
X150601496Y-116188605D01*
X150587400Y-116188941D01*
X150583999Y-116196883D01*
X150583999Y-117197884D01*
X150075999Y-117197884D01*
X150075999Y-116202032D01*
X150072026Y-116188501D01*
X150063477Y-116187272D01*
X149886238Y-116234763D01*
X149875946Y-116238509D01*
X149678488Y-116330585D01*
X149668992Y-116336068D01*
X149490532Y-116461027D01*
X149482124Y-116468083D01*
X149328083Y-116622124D01*
X149321027Y-116630532D01*
X149196068Y-116808992D01*
X149190585Y-116818488D01*
X149098509Y-117015946D01*
X149094763Y-117026238D01*
X149048605Y-117198502D01*
X145514033Y-117198502D01*
X145572302Y-117059544D01*
X145636640Y-116806216D01*
X145658499Y-116589132D01*
X145658499Y-114433645D01*
X145656573Y-114407728D01*
X145644406Y-114243999D01*
X145644405Y-114243995D01*
X145644060Y-114239347D01*
X145632724Y-114189247D01*
X145587407Y-113988979D01*
X145586376Y-113984422D01*
X145491646Y-113740822D01*
X145391929Y-113566353D01*
X154341499Y-113566353D01*
X154341672Y-113568678D01*
X154341672Y-113568684D01*
X154351388Y-113699418D01*
X154355938Y-113760651D01*
X154356967Y-113765199D01*
X154356968Y-113765205D01*
X154397647Y-113944979D01*
X154413622Y-114015576D01*
X154508352Y-114259176D01*
X154638048Y-114486097D01*
X154799861Y-114691356D01*
X154990236Y-114870442D01*
X155204990Y-115019423D01*
X155209180Y-115021489D01*
X155209183Y-115021491D01*
X155435218Y-115132959D01*
X155435221Y-115132960D01*
X155439406Y-115135024D01*
X155443849Y-115136446D01*
X155443851Y-115136447D01*
X155683876Y-115213279D01*
X155688334Y-115214706D01*
X155946306Y-115256720D01*
X156060057Y-115258209D01*
X156202977Y-115260080D01*
X156202980Y-115260080D01*
X156207654Y-115260141D01*
X156466637Y-115224895D01*
X156717566Y-115151756D01*
X156753861Y-115135024D01*
X156772111Y-115126610D01*
X156954927Y-115042331D01*
X157004975Y-115009518D01*
X157169595Y-114901589D01*
X157169600Y-114901585D01*
X157173508Y-114899023D01*
X157368505Y-114724981D01*
X157535636Y-114524029D01*
X157671228Y-114300580D01*
X157772302Y-114059544D01*
X157836640Y-113806216D01*
X157842787Y-113745175D01*
X157858183Y-113592270D01*
X157858499Y-113589132D01*
X157858499Y-111433645D01*
X157844060Y-111239347D01*
X157832724Y-111189247D01*
X157787407Y-110988979D01*
X157786376Y-110984422D01*
X157691646Y-110740822D01*
X157561950Y-110513901D01*
X157400137Y-110308642D01*
X157209762Y-110129556D01*
X156995008Y-109980575D01*
X156990815Y-109978507D01*
X156764780Y-109867039D01*
X156764777Y-109867038D01*
X156760592Y-109864974D01*
X156714448Y-109850203D01*
X156516122Y-109786719D01*
X156511664Y-109785292D01*
X156253692Y-109743278D01*
X156139941Y-109741789D01*
X155997021Y-109739918D01*
X155997018Y-109739918D01*
X155992344Y-109739857D01*
X155733361Y-109775103D01*
X155482432Y-109848242D01*
X155478179Y-109850202D01*
X155478178Y-109850203D01*
X155441658Y-109867039D01*
X155245071Y-109957667D01*
X155206066Y-109983240D01*
X155030403Y-110098409D01*
X155030398Y-110098413D01*
X155026490Y-110100975D01*
X154831493Y-110275017D01*
X154664362Y-110475969D01*
X154528770Y-110699418D01*
X154427696Y-110940454D01*
X154363358Y-111193782D01*
X154341499Y-111410866D01*
X154341499Y-113566353D01*
X145391929Y-113566353D01*
X145361950Y-113513901D01*
X145200137Y-113308642D01*
X145009762Y-113129556D01*
X144795008Y-112980575D01*
X144790815Y-112978507D01*
X144564780Y-112867039D01*
X144564777Y-112867038D01*
X144560592Y-112864974D01*
X144514448Y-112850203D01*
X144316122Y-112786719D01*
X144311664Y-112785292D01*
X144053692Y-112743278D01*
X143939941Y-112741789D01*
X143797021Y-112739918D01*
X143797018Y-112739918D01*
X143792344Y-112739857D01*
X143533361Y-112775103D01*
X143282432Y-112848242D01*
X143278179Y-112850202D01*
X143278178Y-112850203D01*
X143241658Y-112867039D01*
X143045071Y-112957667D01*
X143006066Y-112983240D01*
X142830403Y-113098409D01*
X142830398Y-113098413D01*
X142826490Y-113100975D01*
X142631493Y-113275017D01*
X142464362Y-113475969D01*
X142328770Y-113699418D01*
X142227696Y-113940454D01*
X142163358Y-114193782D01*
X142162890Y-114198433D01*
X142162889Y-114198437D01*
X142152604Y-114300580D01*
X142141499Y-114410866D01*
X142141499Y-116566353D01*
X127507792Y-116566353D01*
X127507792Y-113566353D01*
X129341499Y-113566353D01*
X129341672Y-113568678D01*
X129341672Y-113568684D01*
X129351388Y-113699418D01*
X129355938Y-113760651D01*
X129356967Y-113765199D01*
X129356968Y-113765205D01*
X129397647Y-113944979D01*
X129413622Y-114015576D01*
X129508352Y-114259176D01*
X129638048Y-114486097D01*
X129799861Y-114691356D01*
X129990236Y-114870442D01*
X130204990Y-115019423D01*
X130209180Y-115021489D01*
X130209183Y-115021491D01*
X130435218Y-115132959D01*
X130435221Y-115132960D01*
X130439406Y-115135024D01*
X130443849Y-115136446D01*
X130443851Y-115136447D01*
X130683876Y-115213279D01*
X130688334Y-115214706D01*
X130946306Y-115256720D01*
X131060057Y-115258209D01*
X131202977Y-115260080D01*
X131202980Y-115260080D01*
X131207654Y-115260141D01*
X131466637Y-115224895D01*
X131717566Y-115151756D01*
X131753861Y-115135024D01*
X131772111Y-115126610D01*
X131954927Y-115042331D01*
X132004975Y-115009518D01*
X132169595Y-114901589D01*
X132169600Y-114901585D01*
X132173508Y-114899023D01*
X132368505Y-114724981D01*
X132535636Y-114524029D01*
X132671228Y-114300580D01*
X132772302Y-114059544D01*
X132836640Y-113806216D01*
X132842787Y-113745175D01*
X132858183Y-113592270D01*
X132858499Y-113589132D01*
X132858499Y-111433645D01*
X132844060Y-111239347D01*
X132832724Y-111189247D01*
X132787407Y-110988979D01*
X132786376Y-110984422D01*
X132691646Y-110740822D01*
X132561950Y-110513901D01*
X132400137Y-110308642D01*
X132209762Y-110129556D01*
X131995008Y-109980575D01*
X131990815Y-109978507D01*
X131764780Y-109867039D01*
X131764777Y-109867038D01*
X131760592Y-109864974D01*
X131714448Y-109850203D01*
X131516122Y-109786719D01*
X131511664Y-109785292D01*
X131253692Y-109743278D01*
X131139941Y-109741789D01*
X130997021Y-109739918D01*
X130997018Y-109739918D01*
X130992344Y-109739857D01*
X130733361Y-109775103D01*
X130482432Y-109848242D01*
X130478179Y-109850202D01*
X130478178Y-109850203D01*
X130441658Y-109867039D01*
X130245071Y-109957667D01*
X130206066Y-109983240D01*
X130030403Y-110098409D01*
X130030398Y-110098413D01*
X130026490Y-110100975D01*
X129831493Y-110275017D01*
X129664362Y-110475969D01*
X129528770Y-110699418D01*
X129427696Y-110940454D01*
X129363358Y-111193782D01*
X129341499Y-111410866D01*
X129341499Y-113566353D01*
X127507792Y-113566353D01*
X127507792Y-103499999D01*
X128696501Y-103499999D01*
X128716456Y-103728086D01*
X128717880Y-103733399D01*
X128717880Y-103733401D01*
X128727030Y-103767547D01*
X128775715Y-103949242D01*
X128778038Y-103954223D01*
X128778038Y-103954224D01*
X128870150Y-104151761D01*
X128870153Y-104151766D01*
X128872476Y-104156748D01*
X129003801Y-104344299D01*
X129165699Y-104506197D01*
X129170207Y-104509354D01*
X129170210Y-104509356D01*
X129322770Y-104616180D01*
X129367098Y-104671637D01*
X129376499Y-104719393D01*
X129376499Y-104757939D01*
X129375972Y-104769122D01*
X129374297Y-104776615D01*
X129374546Y-104784541D01*
X129374546Y-104784542D01*
X129376437Y-104844692D01*
X129376499Y-104848651D01*
X129376499Y-104876562D01*
X129376996Y-104880496D01*
X129376996Y-104880497D01*
X129377004Y-104880562D01*
X129377937Y-104892399D01*
X129379326Y-104936595D01*
X129384977Y-104956045D01*
X129388986Y-104975406D01*
X129391525Y-104995503D01*
X129394444Y-105002874D01*
X129394444Y-105002876D01*
X129407803Y-105036618D01*
X129411648Y-105047848D01*
X129423981Y-105090299D01*
X129428014Y-105097118D01*
X129428016Y-105097123D01*
X129434292Y-105107734D01*
X129442987Y-105125482D01*
X129450447Y-105144323D01*
X129455109Y-105150739D01*
X129455109Y-105150740D01*
X129476435Y-105180093D01*
X129482951Y-105190013D01*
X129505457Y-105228068D01*
X129519778Y-105242389D01*
X129532618Y-105257422D01*
X129544527Y-105273813D01*
X129550633Y-105278864D01*
X129578604Y-105302004D01*
X129587383Y-105309994D01*
X133269640Y-108992252D01*
X133277180Y-109000538D01*
X133281292Y-109007017D01*
X133287069Y-109012442D01*
X133330943Y-109053642D01*
X133333785Y-109056397D01*
X133353522Y-109076134D01*
X133356719Y-109078614D01*
X133365739Y-109086317D01*
X133397971Y-109116585D01*
X133404917Y-109120404D01*
X133404920Y-109120406D01*
X133415726Y-109126347D01*
X133432245Y-109137198D01*
X133448251Y-109149613D01*
X133455520Y-109152758D01*
X133455524Y-109152761D01*
X133488829Y-109167173D01*
X133499479Y-109172390D01*
X133538232Y-109193694D01*
X133545907Y-109195665D01*
X133545908Y-109195665D01*
X133557854Y-109198732D01*
X133576559Y-109205136D01*
X133595147Y-109213180D01*
X133602970Y-109214419D01*
X133602980Y-109214422D01*
X133638816Y-109220098D01*
X133650436Y-109222504D01*
X133685581Y-109231527D01*
X133693262Y-109233499D01*
X133713516Y-109233499D01*
X133733226Y-109235050D01*
X133753235Y-109238219D01*
X133761127Y-109237473D01*
X133797253Y-109234058D01*
X133809111Y-109233499D01*
X134274929Y-109233499D01*
X134343050Y-109253501D01*
X134389355Y-109306748D01*
X134457667Y-109454927D01*
X134460230Y-109458836D01*
X134598409Y-109669595D01*
X134598413Y-109669600D01*
X134600975Y-109673508D01*
X134775017Y-109868505D01*
X134975969Y-110035636D01*
X134979972Y-110038065D01*
X135195421Y-110168803D01*
X135195425Y-110168805D01*
X135199418Y-110171228D01*
X135440454Y-110272302D01*
X135693782Y-110336640D01*
X135698433Y-110337108D01*
X135698437Y-110337109D01*
X135891307Y-110356530D01*
X135910866Y-110358499D01*
X138066353Y-110358499D01*
X138068678Y-110358326D01*
X138068684Y-110358326D01*
X138255999Y-110344406D01*
X138256003Y-110344405D01*
X138260651Y-110344060D01*
X138265199Y-110343031D01*
X138265205Y-110343030D01*
X138451600Y-110300852D01*
X138515576Y-110286376D01*
X138519930Y-110284683D01*
X138754823Y-110193339D01*
X138754826Y-110193338D01*
X138759176Y-110191646D01*
X138986097Y-110061950D01*
X139191356Y-109900137D01*
X139370442Y-109709762D01*
X139519423Y-109495008D01*
X139541283Y-109450681D01*
X139632959Y-109264780D01*
X139632960Y-109264777D01*
X139635024Y-109260592D01*
X139642425Y-109237473D01*
X139713279Y-109016122D01*
X139714706Y-109011664D01*
X139756720Y-108753692D01*
X139757323Y-108707654D01*
X159239857Y-108707654D01*
X159275103Y-108966637D01*
X159276411Y-108971123D01*
X159276411Y-108971125D01*
X159296097Y-109038663D01*
X159348242Y-109217566D01*
X159350202Y-109221819D01*
X159350203Y-109221820D01*
X159357419Y-109237473D01*
X159457667Y-109454927D01*
X159460230Y-109458836D01*
X159598409Y-109669595D01*
X159598413Y-109669600D01*
X159600975Y-109673508D01*
X159775017Y-109868505D01*
X159975969Y-110035636D01*
X159979972Y-110038065D01*
X160195421Y-110168803D01*
X160195425Y-110168805D01*
X160199418Y-110171228D01*
X160440454Y-110272302D01*
X160693782Y-110336640D01*
X160698433Y-110337108D01*
X160698437Y-110337109D01*
X160891307Y-110356530D01*
X160910866Y-110358499D01*
X163066353Y-110358499D01*
X163068678Y-110358326D01*
X163068684Y-110358326D01*
X163255999Y-110344406D01*
X163256003Y-110344405D01*
X163260651Y-110344060D01*
X163265199Y-110343031D01*
X163265205Y-110343030D01*
X163451600Y-110300852D01*
X163515576Y-110286376D01*
X163519930Y-110284683D01*
X163754823Y-110193339D01*
X163754826Y-110193338D01*
X163759176Y-110191646D01*
X163986097Y-110061950D01*
X164191356Y-109900137D01*
X164370442Y-109709762D01*
X164519423Y-109495008D01*
X164541283Y-109450681D01*
X164632959Y-109264780D01*
X164632960Y-109264777D01*
X164635024Y-109260592D01*
X164642425Y-109237473D01*
X164713279Y-109016122D01*
X164714706Y-109011664D01*
X164756720Y-108753692D01*
X164760141Y-108492344D01*
X164724895Y-108233361D01*
X164710472Y-108183876D01*
X164653067Y-107986931D01*
X164651756Y-107982432D01*
X164542331Y-107745071D01*
X164509518Y-107695023D01*
X164401589Y-107530403D01*
X164401585Y-107530398D01*
X164399023Y-107526490D01*
X164275684Y-107388301D01*
X164245248Y-107324164D01*
X164254319Y-107253749D01*
X164280594Y-107215308D01*
X167325498Y-104170404D01*
X167387810Y-104136378D01*
X167414593Y-104133499D01*
X168160605Y-104133499D01*
X168228726Y-104153501D01*
X168263818Y-104187228D01*
X168373801Y-104344299D01*
X168535699Y-104506197D01*
X168540207Y-104509354D01*
X168540213Y-104509358D01*
X168723250Y-104637522D01*
X168728232Y-104639845D01*
X168728237Y-104639848D01*
X168898824Y-104719393D01*
X168930756Y-104734283D01*
X168936064Y-104735705D01*
X168936066Y-104735706D01*
X169146597Y-104792118D01*
X169146599Y-104792118D01*
X169151912Y-104793542D01*
X169379999Y-104813497D01*
X169608086Y-104793542D01*
X169613399Y-104792118D01*
X169613401Y-104792118D01*
X169823932Y-104735706D01*
X169823934Y-104735705D01*
X169829242Y-104734283D01*
X169861174Y-104719393D01*
X170031761Y-104639848D01*
X170031766Y-104639845D01*
X170036748Y-104637522D01*
X170219785Y-104509358D01*
X170219791Y-104509354D01*
X170224299Y-104506197D01*
X170386197Y-104344299D01*
X170517522Y-104156748D01*
X170519845Y-104151766D01*
X170519848Y-104151761D01*
X170611960Y-103954224D01*
X170611960Y-103954223D01*
X170614283Y-103949242D01*
X170662969Y-103767547D01*
X170672118Y-103733401D01*
X170672118Y-103733399D01*
X170673542Y-103728086D01*
X170693497Y-103499999D01*
X170673542Y-103271912D01*
X170663243Y-103233477D01*
X170615706Y-103056066D01*
X170615705Y-103056064D01*
X170614283Y-103050756D01*
X170604543Y-103029869D01*
X170519848Y-102848237D01*
X170519845Y-102848232D01*
X170517522Y-102843250D01*
X170386197Y-102655699D01*
X170224299Y-102493801D01*
X170219791Y-102490644D01*
X170219788Y-102490642D01*
X170141610Y-102435901D01*
X170036748Y-102362476D01*
X170031766Y-102360153D01*
X170031761Y-102360150D01*
X169834224Y-102268038D01*
X169834223Y-102268038D01*
X169829242Y-102265715D01*
X169823934Y-102264293D01*
X169823932Y-102264292D01*
X169613401Y-102207880D01*
X169613399Y-102207880D01*
X169608086Y-102206456D01*
X169379999Y-102186501D01*
X169151912Y-102206456D01*
X169146599Y-102207880D01*
X169146597Y-102207880D01*
X168936066Y-102264292D01*
X168936064Y-102264293D01*
X168930756Y-102265715D01*
X168925775Y-102268038D01*
X168925774Y-102268038D01*
X168728237Y-102360150D01*
X168728232Y-102360153D01*
X168723250Y-102362476D01*
X168618388Y-102435901D01*
X168540210Y-102490642D01*
X168540207Y-102490644D01*
X168535699Y-102493801D01*
X168373801Y-102655699D01*
X168370644Y-102660207D01*
X168370642Y-102660210D01*
X168263818Y-102812770D01*
X168208361Y-102857098D01*
X168160605Y-102866499D01*
X167178766Y-102866499D01*
X167167583Y-102865972D01*
X167160090Y-102864297D01*
X167152164Y-102864546D01*
X167152163Y-102864546D01*
X167092013Y-102866437D01*
X167088054Y-102866499D01*
X167060143Y-102866499D01*
X167056209Y-102866996D01*
X167056208Y-102866996D01*
X167056143Y-102867004D01*
X167044306Y-102867937D01*
X167012489Y-102868937D01*
X167008028Y-102869077D01*
X167000109Y-102869326D01*
X166982453Y-102874455D01*
X166980657Y-102874977D01*
X166961305Y-102878985D01*
X166954234Y-102879879D01*
X166941202Y-102881525D01*
X166933833Y-102884442D01*
X166933831Y-102884443D01*
X166900096Y-102897799D01*
X166888868Y-102901644D01*
X166846406Y-102913981D01*
X166839584Y-102918015D01*
X166839578Y-102918018D01*
X166828967Y-102924293D01*
X166811217Y-102932989D01*
X166799755Y-102937527D01*
X166799750Y-102937530D01*
X166792382Y-102940447D01*
X166785967Y-102945108D01*
X166756624Y-102966426D01*
X166746706Y-102972942D01*
X166728018Y-102983994D01*
X166708636Y-102995457D01*
X166694312Y-103009781D01*
X166679280Y-103022620D01*
X166662892Y-103034527D01*
X166644931Y-103056238D01*
X166634711Y-103068592D01*
X166626721Y-103077372D01*
X162899499Y-106804594D01*
X162837187Y-106838620D01*
X162810404Y-106841499D01*
X160933645Y-106841499D01*
X160931320Y-106841672D01*
X160931314Y-106841672D01*
X160743999Y-106855592D01*
X160743995Y-106855593D01*
X160739347Y-106855938D01*
X160734799Y-106856967D01*
X160734793Y-106856968D01*
X160548398Y-106899146D01*
X160484422Y-106913622D01*
X160480070Y-106915314D01*
X160480068Y-106915315D01*
X160245175Y-107006659D01*
X160245172Y-107006660D01*
X160240822Y-107008352D01*
X160013901Y-107138048D01*
X159808642Y-107299861D01*
X159629556Y-107490236D01*
X159480575Y-107704990D01*
X159478510Y-107709178D01*
X159478507Y-107709183D01*
X159369813Y-107929594D01*
X159364974Y-107939406D01*
X159363552Y-107943849D01*
X159363551Y-107943851D01*
X159356222Y-107966748D01*
X159285292Y-108188334D01*
X159243278Y-108446306D01*
X159241977Y-108545706D01*
X159241214Y-108604021D01*
X159239857Y-108707654D01*
X139757323Y-108707654D01*
X139760141Y-108492344D01*
X139724895Y-108233361D01*
X139710472Y-108183876D01*
X139653067Y-107986931D01*
X139651756Y-107982432D01*
X139542331Y-107745071D01*
X139509518Y-107695023D01*
X139401589Y-107530403D01*
X139401585Y-107530398D01*
X139399023Y-107526490D01*
X139224981Y-107331493D01*
X139199137Y-107309999D01*
X149016501Y-107309999D01*
X149036456Y-107538086D01*
X149037880Y-107543399D01*
X149037880Y-107543401D01*
X149093056Y-107749317D01*
X149095715Y-107759242D01*
X149098038Y-107764223D01*
X149098038Y-107764224D01*
X149190150Y-107961761D01*
X149190153Y-107961766D01*
X149192476Y-107966748D01*
X149323801Y-108154299D01*
X149485699Y-108316197D01*
X149490207Y-108319354D01*
X149490210Y-108319356D01*
X149568388Y-108374097D01*
X149673250Y-108447522D01*
X149678232Y-108449845D01*
X149678237Y-108449848D01*
X149875774Y-108541960D01*
X149880756Y-108544283D01*
X149886064Y-108545705D01*
X149886066Y-108545706D01*
X150096597Y-108602118D01*
X150096599Y-108602118D01*
X150101912Y-108603542D01*
X150329999Y-108623497D01*
X150558086Y-108603542D01*
X150563399Y-108602118D01*
X150563401Y-108602118D01*
X150773932Y-108545706D01*
X150773934Y-108545705D01*
X150779242Y-108544283D01*
X150784224Y-108541960D01*
X150981761Y-108449848D01*
X150981766Y-108449845D01*
X150986748Y-108447522D01*
X151091610Y-108374097D01*
X151169788Y-108319356D01*
X151169791Y-108319354D01*
X151174299Y-108316197D01*
X151336197Y-108154299D01*
X151467522Y-107966748D01*
X151469845Y-107961766D01*
X151469848Y-107961761D01*
X151561960Y-107764224D01*
X151561960Y-107764223D01*
X151564283Y-107759242D01*
X151566943Y-107749317D01*
X151622118Y-107543401D01*
X151622118Y-107543399D01*
X151623542Y-107538086D01*
X151643497Y-107309999D01*
X151623542Y-107081912D01*
X151564283Y-106860756D01*
X151555384Y-106841672D01*
X151469848Y-106658237D01*
X151469845Y-106658232D01*
X151467522Y-106653250D01*
X151336197Y-106465699D01*
X151174299Y-106303801D01*
X151169791Y-106300644D01*
X151169788Y-106300642D01*
X151091610Y-106245901D01*
X150986748Y-106172476D01*
X150981766Y-106170153D01*
X150981761Y-106170150D01*
X150784224Y-106078038D01*
X150784223Y-106078038D01*
X150779242Y-106075715D01*
X150773934Y-106074293D01*
X150773932Y-106074292D01*
X150563401Y-106017880D01*
X150563399Y-106017880D01*
X150558086Y-106016456D01*
X150329999Y-105996501D01*
X150101912Y-106016456D01*
X150096599Y-106017880D01*
X150096597Y-106017880D01*
X149886066Y-106074292D01*
X149886064Y-106074293D01*
X149880756Y-106075715D01*
X149875775Y-106078038D01*
X149875774Y-106078038D01*
X149678237Y-106170150D01*
X149678232Y-106170153D01*
X149673250Y-106172476D01*
X149568388Y-106245901D01*
X149490210Y-106300642D01*
X149490207Y-106300644D01*
X149485699Y-106303801D01*
X149323801Y-106465699D01*
X149192476Y-106653250D01*
X149190153Y-106658232D01*
X149190150Y-106658237D01*
X149104614Y-106841672D01*
X149095715Y-106860756D01*
X149036456Y-107081912D01*
X149016501Y-107309999D01*
X139199137Y-107309999D01*
X139024029Y-107164362D01*
X138976843Y-107135729D01*
X138804577Y-107031195D01*
X138804573Y-107031193D01*
X138800580Y-107028770D01*
X138559544Y-106927696D01*
X138306216Y-106863358D01*
X138301565Y-106862890D01*
X138301561Y-106862889D01*
X138092270Y-106841815D01*
X138089132Y-106841499D01*
X135933645Y-106841499D01*
X135931320Y-106841672D01*
X135931314Y-106841672D01*
X135743999Y-106855592D01*
X135743995Y-106855593D01*
X135739347Y-106855938D01*
X135734799Y-106856967D01*
X135734793Y-106856968D01*
X135548398Y-106899146D01*
X135484422Y-106913622D01*
X135480070Y-106915314D01*
X135480068Y-106915315D01*
X135245175Y-107006659D01*
X135245172Y-107006660D01*
X135240822Y-107008352D01*
X135013901Y-107138048D01*
X134808642Y-107299861D01*
X134629556Y-107490236D01*
X134480575Y-107704990D01*
X134456440Y-107753932D01*
X134386267Y-107896228D01*
X134338198Y-107948476D01*
X134273261Y-107966499D01*
X134087886Y-107966499D01*
X134019765Y-107946497D01*
X133998791Y-107929594D01*
X130796438Y-104727240D01*
X130762412Y-104664928D01*
X130767477Y-104594112D01*
X130813261Y-104534933D01*
X130849785Y-104509358D01*
X130849787Y-104509356D01*
X130854299Y-104506197D01*
X131016197Y-104344299D01*
X131147522Y-104156748D01*
X131149845Y-104151766D01*
X131149848Y-104151761D01*
X131241960Y-103954224D01*
X131241960Y-103954223D01*
X131244283Y-103949242D01*
X131292969Y-103767547D01*
X131302118Y-103733401D01*
X131302118Y-103733399D01*
X131303542Y-103728086D01*
X131323497Y-103499999D01*
X138856501Y-103499999D01*
X138876456Y-103728086D01*
X138877880Y-103733399D01*
X138877880Y-103733401D01*
X138887030Y-103767547D01*
X138935715Y-103949242D01*
X138938038Y-103954223D01*
X138938038Y-103954224D01*
X139030150Y-104151761D01*
X139030153Y-104151766D01*
X139032476Y-104156748D01*
X139163801Y-104344299D01*
X139325699Y-104506197D01*
X139330207Y-104509354D01*
X139330213Y-104509358D01*
X139513250Y-104637522D01*
X139518232Y-104639845D01*
X139518237Y-104639848D01*
X139688824Y-104719393D01*
X139720756Y-104734283D01*
X139726064Y-104735705D01*
X139726066Y-104735706D01*
X139936597Y-104792118D01*
X139936599Y-104792118D01*
X139941912Y-104793542D01*
X140169999Y-104813497D01*
X140398086Y-104793542D01*
X140403399Y-104792118D01*
X140403401Y-104792118D01*
X140613932Y-104735706D01*
X140613934Y-104735705D01*
X140619242Y-104734283D01*
X140651174Y-104719393D01*
X140821761Y-104639848D01*
X140821766Y-104639845D01*
X140826748Y-104637522D01*
X141009785Y-104509358D01*
X141009791Y-104509354D01*
X141014299Y-104506197D01*
X141176197Y-104344299D01*
X141307522Y-104156748D01*
X141309845Y-104151766D01*
X141309848Y-104151761D01*
X141401960Y-103954224D01*
X141401960Y-103954223D01*
X141404283Y-103949242D01*
X141452969Y-103767547D01*
X141462118Y-103733401D01*
X141462118Y-103733399D01*
X141463542Y-103728086D01*
X141483497Y-103499999D01*
X141463542Y-103271912D01*
X141453243Y-103233477D01*
X141405706Y-103056066D01*
X141405705Y-103056064D01*
X141404283Y-103050756D01*
X141394543Y-103029869D01*
X141309848Y-102848237D01*
X141309845Y-102848232D01*
X141307522Y-102843250D01*
X141176197Y-102655699D01*
X141014299Y-102493801D01*
X141009791Y-102490644D01*
X141009788Y-102490642D01*
X140931610Y-102435901D01*
X140826748Y-102362476D01*
X140821766Y-102360153D01*
X140821761Y-102360150D01*
X140624224Y-102268038D01*
X140624223Y-102268038D01*
X140619242Y-102265715D01*
X140613934Y-102264293D01*
X140613932Y-102264292D01*
X140403401Y-102207880D01*
X140403399Y-102207880D01*
X140398086Y-102206456D01*
X140169999Y-102186501D01*
X139941912Y-102206456D01*
X139936599Y-102207880D01*
X139936597Y-102207880D01*
X139726066Y-102264292D01*
X139726064Y-102264293D01*
X139720756Y-102265715D01*
X139715775Y-102268038D01*
X139715774Y-102268038D01*
X139518237Y-102360150D01*
X139518232Y-102360153D01*
X139513250Y-102362476D01*
X139408388Y-102435901D01*
X139330210Y-102490642D01*
X139330207Y-102490644D01*
X139325699Y-102493801D01*
X139163801Y-102655699D01*
X139032476Y-102843250D01*
X139030153Y-102848232D01*
X139030150Y-102848237D01*
X138945455Y-103029869D01*
X138935715Y-103050756D01*
X138934293Y-103056064D01*
X138934292Y-103056066D01*
X138886755Y-103233477D01*
X138876456Y-103271912D01*
X138856501Y-103499999D01*
X131323497Y-103499999D01*
X131303542Y-103271912D01*
X131293243Y-103233477D01*
X131245706Y-103056066D01*
X131245705Y-103056064D01*
X131244283Y-103050756D01*
X131234543Y-103029869D01*
X131149848Y-102848237D01*
X131149845Y-102848232D01*
X131147522Y-102843250D01*
X131016197Y-102655699D01*
X130854299Y-102493801D01*
X130849791Y-102490644D01*
X130849788Y-102490642D01*
X130771610Y-102435901D01*
X130666748Y-102362476D01*
X130661766Y-102360153D01*
X130661761Y-102360150D01*
X130464224Y-102268038D01*
X130464223Y-102268038D01*
X130459242Y-102265715D01*
X130453934Y-102264293D01*
X130453932Y-102264292D01*
X130243401Y-102207880D01*
X130243399Y-102207880D01*
X130238086Y-102206456D01*
X130009999Y-102186501D01*
X129781912Y-102206456D01*
X129776599Y-102207880D01*
X129776597Y-102207880D01*
X129566066Y-102264292D01*
X129566064Y-102264293D01*
X129560756Y-102265715D01*
X129555775Y-102268038D01*
X129555774Y-102268038D01*
X129358237Y-102360150D01*
X129358232Y-102360153D01*
X129353250Y-102362476D01*
X129248388Y-102435901D01*
X129170210Y-102490642D01*
X129170207Y-102490644D01*
X129165699Y-102493801D01*
X129003801Y-102655699D01*
X128872476Y-102843250D01*
X128870153Y-102848232D01*
X128870150Y-102848237D01*
X128785455Y-103029869D01*
X128775715Y-103050756D01*
X128774293Y-103056064D01*
X128774292Y-103056066D01*
X128726755Y-103233477D01*
X128716456Y-103271912D01*
X128696501Y-103499999D01*
X127507792Y-103499999D01*
X127507792Y-96163829D01*
X131701709Y-96163829D01*
X131701840Y-96165662D01*
X131706091Y-96172277D01*
X133139480Y-97605666D01*
X133144564Y-97610228D01*
X133184437Y-97642289D01*
X133197788Y-97650510D01*
X133314888Y-97703751D01*
X133331949Y-97708740D01*
X133458217Y-97726823D01*
X133475995Y-97726823D01*
X133602263Y-97708740D01*
X133619324Y-97703751D01*
X133736419Y-97650512D01*
X133749776Y-97642287D01*
X133789660Y-97610220D01*
X133794719Y-97605680D01*
X134517786Y-96882612D01*
X134525397Y-96868674D01*
X134525265Y-96866838D01*
X134521016Y-96860226D01*
X134168444Y-96507654D01*
X137239857Y-96507654D01*
X137275103Y-96766637D01*
X137276411Y-96771123D01*
X137276411Y-96771125D01*
X137291016Y-96821232D01*
X137348242Y-97017566D01*
X137457667Y-97254927D01*
X137460230Y-97258836D01*
X137598409Y-97469595D01*
X137598413Y-97469600D01*
X137600975Y-97473508D01*
X137775017Y-97668505D01*
X137975969Y-97835636D01*
X137979972Y-97838065D01*
X138195421Y-97968803D01*
X138195425Y-97968805D01*
X138199418Y-97971228D01*
X138440454Y-98072302D01*
X138693782Y-98136640D01*
X138698433Y-98137108D01*
X138698437Y-98137109D01*
X138891307Y-98156530D01*
X138910866Y-98158499D01*
X141066353Y-98158499D01*
X141068678Y-98158326D01*
X141068684Y-98158326D01*
X141255999Y-98144406D01*
X141256003Y-98144405D01*
X141260651Y-98144060D01*
X141265199Y-98143031D01*
X141265205Y-98143030D01*
X141451600Y-98100852D01*
X141515576Y-98086376D01*
X141551768Y-98072302D01*
X141754823Y-97993339D01*
X141754826Y-97993338D01*
X141759176Y-97991646D01*
X141986097Y-97861950D01*
X142191356Y-97700137D01*
X142370442Y-97509762D01*
X142486714Y-97342157D01*
X142516758Y-97298850D01*
X142516760Y-97298847D01*
X142519423Y-97295008D01*
X142544880Y-97243386D01*
X142632959Y-97064780D01*
X142632960Y-97064777D01*
X142635024Y-97060592D01*
X142645182Y-97028860D01*
X142713279Y-96816122D01*
X142714706Y-96811664D01*
X142756720Y-96553692D01*
X142760141Y-96292344D01*
X142724895Y-96033361D01*
X142710472Y-95983876D01*
X142656378Y-95798289D01*
X142651756Y-95782432D01*
X142542331Y-95545071D01*
X142483930Y-95455995D01*
X142401589Y-95330403D01*
X142401585Y-95330398D01*
X142399023Y-95326490D01*
X142224981Y-95131493D01*
X142024029Y-94964362D01*
X141976843Y-94935729D01*
X141804577Y-94831195D01*
X141804573Y-94831193D01*
X141800580Y-94828770D01*
X141559544Y-94727696D01*
X141306216Y-94663358D01*
X141301565Y-94662890D01*
X141301561Y-94662889D01*
X141092270Y-94641815D01*
X141089132Y-94641499D01*
X138933645Y-94641499D01*
X138931320Y-94641672D01*
X138931314Y-94641672D01*
X138743999Y-94655592D01*
X138743995Y-94655593D01*
X138739347Y-94655938D01*
X138734799Y-94656967D01*
X138734793Y-94656968D01*
X138548398Y-94699146D01*
X138484422Y-94713622D01*
X138480070Y-94715314D01*
X138480068Y-94715315D01*
X138245175Y-94806659D01*
X138245172Y-94806660D01*
X138240822Y-94808352D01*
X138013901Y-94938048D01*
X137808642Y-95099861D01*
X137629556Y-95290236D01*
X137480575Y-95504990D01*
X137478509Y-95509180D01*
X137478507Y-95509183D01*
X137434055Y-95599324D01*
X137364974Y-95739406D01*
X137363552Y-95743849D01*
X137363551Y-95743851D01*
X137286719Y-95983876D01*
X137285292Y-95988334D01*
X137243278Y-96246306D01*
X137239857Y-96507654D01*
X134168444Y-96507654D01*
X132772811Y-95112021D01*
X132758867Y-95104407D01*
X132757034Y-95104538D01*
X132750419Y-95108789D01*
X131709323Y-96149885D01*
X131701709Y-96163829D01*
X127507792Y-96163829D01*
X127507792Y-94041781D01*
X129773175Y-94041781D01*
X129791258Y-94168049D01*
X129796247Y-94185110D01*
X129849487Y-94302208D01*
X129857710Y-94315562D01*
X129889770Y-94355436D01*
X129894331Y-94360518D01*
X131324489Y-95790675D01*
X131338433Y-95798289D01*
X131340267Y-95798158D01*
X131346879Y-95793909D01*
X132387977Y-94752811D01*
X132394355Y-94741131D01*
X133124407Y-94741131D01*
X133124538Y-94742964D01*
X133128789Y-94749579D01*
X134876992Y-96497782D01*
X134890936Y-96505396D01*
X134892769Y-96505265D01*
X134899384Y-96501014D01*
X135625666Y-95774732D01*
X135630227Y-95769649D01*
X135662288Y-95729775D01*
X135670511Y-95716421D01*
X135723751Y-95599324D01*
X135728740Y-95582263D01*
X135746823Y-95455995D01*
X135746823Y-95438217D01*
X135728740Y-95311949D01*
X135723751Y-95294888D01*
X135670511Y-95177790D01*
X135662288Y-95164436D01*
X135630228Y-95124562D01*
X135625667Y-95119480D01*
X134195509Y-93689323D01*
X134181565Y-93681709D01*
X134179731Y-93681840D01*
X134173119Y-93686089D01*
X133132021Y-94727187D01*
X133124407Y-94741131D01*
X132394355Y-94741131D01*
X132395591Y-94738867D01*
X132395460Y-94737034D01*
X132391209Y-94730419D01*
X130643006Y-92982216D01*
X130629062Y-92974602D01*
X130627229Y-92974733D01*
X130620614Y-92978984D01*
X129894332Y-93705266D01*
X129889771Y-93710349D01*
X129857710Y-93750223D01*
X129849487Y-93763577D01*
X129796247Y-93880674D01*
X129791258Y-93897735D01*
X129773175Y-94024003D01*
X129773175Y-94041781D01*
X127507792Y-94041781D01*
X127507792Y-92611324D01*
X130994601Y-92611324D01*
X130994733Y-92613160D01*
X130998982Y-92619772D01*
X132747187Y-94367977D01*
X132761131Y-94375591D01*
X132762964Y-94375460D01*
X132769579Y-94371209D01*
X133810675Y-93330113D01*
X133818289Y-93316169D01*
X133818158Y-93314336D01*
X133813907Y-93307721D01*
X132380518Y-91874332D01*
X132375434Y-91869770D01*
X132335561Y-91837709D01*
X132322210Y-91829488D01*
X132205110Y-91776247D01*
X132188049Y-91771258D01*
X132061781Y-91753175D01*
X132044003Y-91753175D01*
X131917735Y-91771258D01*
X131900674Y-91776247D01*
X131783579Y-91829486D01*
X131770222Y-91837711D01*
X131730338Y-91869778D01*
X131725279Y-91874318D01*
X131002212Y-92597386D01*
X130994601Y-92611324D01*
X127507792Y-92611324D01*
X127507792Y-91566353D01*
X142141499Y-91566353D01*
X142155938Y-91760651D01*
X142156967Y-91765199D01*
X142156968Y-91765205D01*
X142199146Y-91951600D01*
X142213622Y-92015576D01*
X142308352Y-92259176D01*
X142438048Y-92486097D01*
X142599861Y-92691356D01*
X142790236Y-92870442D01*
X143004990Y-93019423D01*
X143009180Y-93021489D01*
X143009183Y-93021491D01*
X143235218Y-93132959D01*
X143235221Y-93132960D01*
X143239406Y-93135024D01*
X143243849Y-93136446D01*
X143243851Y-93136447D01*
X143483876Y-93213279D01*
X143488334Y-93214706D01*
X143746306Y-93256720D01*
X143860057Y-93258209D01*
X144002977Y-93260080D01*
X144002980Y-93260080D01*
X144007654Y-93260141D01*
X144266637Y-93224895D01*
X144517566Y-93151756D01*
X144553861Y-93135024D01*
X144572111Y-93126610D01*
X144754927Y-93042331D01*
X144858231Y-92974602D01*
X144969595Y-92901589D01*
X144969600Y-92901585D01*
X144973508Y-92899023D01*
X145168505Y-92724981D01*
X145335636Y-92524029D01*
X145471228Y-92300580D01*
X145572302Y-92059544D01*
X145636640Y-91806216D01*
X145658499Y-91589132D01*
X145658499Y-89433645D01*
X145656573Y-89407728D01*
X145644406Y-89243999D01*
X145644405Y-89243995D01*
X145644060Y-89239347D01*
X145632724Y-89189247D01*
X145587407Y-88988979D01*
X145586376Y-88984422D01*
X145491646Y-88740822D01*
X145361950Y-88513901D01*
X145200137Y-88308642D01*
X145009762Y-88129556D01*
X144795008Y-87980575D01*
X144790815Y-87978507D01*
X144564780Y-87867039D01*
X144564777Y-87867038D01*
X144560592Y-87864974D01*
X144514448Y-87850203D01*
X144316122Y-87786719D01*
X144311664Y-87785292D01*
X144053692Y-87743278D01*
X143939941Y-87741789D01*
X143797021Y-87739918D01*
X143797018Y-87739918D01*
X143792344Y-87739857D01*
X143533361Y-87775103D01*
X143282432Y-87848242D01*
X143278179Y-87850202D01*
X143278178Y-87850203D01*
X143241658Y-87867039D01*
X143045071Y-87957667D01*
X143006066Y-87983240D01*
X142830403Y-88098409D01*
X142830398Y-88098413D01*
X142826490Y-88100975D01*
X142631493Y-88275017D01*
X142464362Y-88475969D01*
X142328770Y-88699418D01*
X142227696Y-88940454D01*
X142163358Y-89193782D01*
X142162890Y-89198433D01*
X142162889Y-89198437D01*
X142152604Y-89300580D01*
X142141499Y-89410866D01*
X142141499Y-91566353D01*
X127507792Y-91566353D01*
X127507792Y-88566353D01*
X129341499Y-88566353D01*
X129341672Y-88568678D01*
X129341672Y-88568684D01*
X129351388Y-88699418D01*
X129355938Y-88760651D01*
X129356967Y-88765199D01*
X129356968Y-88765205D01*
X129397647Y-88944979D01*
X129413622Y-89015576D01*
X129508352Y-89259176D01*
X129638048Y-89486097D01*
X129799861Y-89691356D01*
X129990236Y-89870442D01*
X130204990Y-90019423D01*
X130209180Y-90021489D01*
X130209183Y-90021491D01*
X130435218Y-90132959D01*
X130435221Y-90132960D01*
X130439406Y-90135024D01*
X130443849Y-90136446D01*
X130443851Y-90136447D01*
X130683876Y-90213279D01*
X130688334Y-90214706D01*
X130946306Y-90256720D01*
X131060057Y-90258209D01*
X131202977Y-90260080D01*
X131202980Y-90260080D01*
X131207654Y-90260141D01*
X131466637Y-90224895D01*
X131717566Y-90151756D01*
X131753861Y-90135024D01*
X131772111Y-90126610D01*
X131954927Y-90042331D01*
X132004975Y-90009518D01*
X132169595Y-89901589D01*
X132169600Y-89901585D01*
X132173508Y-89899023D01*
X132368505Y-89724981D01*
X132535636Y-89524029D01*
X132671228Y-89300580D01*
X132772302Y-89059544D01*
X132836640Y-88806216D01*
X132842787Y-88745175D01*
X132858183Y-88592270D01*
X132858499Y-88589132D01*
X132858499Y-86433645D01*
X132844060Y-86239347D01*
X132832724Y-86189247D01*
X132787407Y-85988979D01*
X132786376Y-85984422D01*
X132691646Y-85740822D01*
X132561950Y-85513901D01*
X132400137Y-85308642D01*
X132209762Y-85129556D01*
X131995008Y-84980575D01*
X131990815Y-84978507D01*
X131764780Y-84867039D01*
X131764777Y-84867038D01*
X131760592Y-84864974D01*
X131714448Y-84850203D01*
X131516122Y-84786719D01*
X131511664Y-84785292D01*
X131253692Y-84743278D01*
X131139941Y-84741789D01*
X130997021Y-84739918D01*
X130997018Y-84739918D01*
X130992344Y-84739857D01*
X130733361Y-84775103D01*
X130482432Y-84848242D01*
X130478179Y-84850202D01*
X130478178Y-84850203D01*
X130441658Y-84867039D01*
X130245071Y-84957667D01*
X130206066Y-84983240D01*
X130030403Y-85098409D01*
X130030398Y-85098413D01*
X130026490Y-85100975D01*
X129831493Y-85275017D01*
X129664362Y-85475969D01*
X129528770Y-85699418D01*
X129427696Y-85940454D01*
X129363358Y-86193782D01*
X129341499Y-86410866D01*
X129341499Y-88566353D01*
X127507792Y-88566353D01*
X127507792Y-83707654D01*
X134239857Y-83707654D01*
X134275103Y-83966637D01*
X134276411Y-83971123D01*
X134276411Y-83971125D01*
X134296097Y-84038663D01*
X134348242Y-84217566D01*
X134457667Y-84454927D01*
X134460230Y-84458836D01*
X134598409Y-84669595D01*
X134598413Y-84669600D01*
X134600975Y-84673508D01*
X134775017Y-84868505D01*
X134975969Y-85035636D01*
X134979972Y-85038065D01*
X135195421Y-85168803D01*
X135195425Y-85168805D01*
X135199418Y-85171228D01*
X135440454Y-85272302D01*
X135693782Y-85336640D01*
X135698433Y-85337108D01*
X135698437Y-85337109D01*
X135891307Y-85356530D01*
X135910866Y-85358499D01*
X138066353Y-85358499D01*
X138068678Y-85358326D01*
X138068684Y-85358326D01*
X138255999Y-85344406D01*
X138256003Y-85344405D01*
X138260651Y-85344060D01*
X138265199Y-85343031D01*
X138265205Y-85343030D01*
X138451600Y-85300852D01*
X138515576Y-85286376D01*
X138519930Y-85284683D01*
X138754823Y-85193339D01*
X138754826Y-85193338D01*
X138759176Y-85191646D01*
X138986097Y-85061950D01*
X139191356Y-84900137D01*
X139370442Y-84709762D01*
X139519423Y-84495008D01*
X139635024Y-84260592D01*
X139714706Y-84011664D01*
X139756720Y-83753692D01*
X139760141Y-83492344D01*
X139724895Y-83233361D01*
X139710472Y-83183876D01*
X139653067Y-82986931D01*
X139651756Y-82982432D01*
X139542331Y-82745071D01*
X139509518Y-82695023D01*
X139401589Y-82530403D01*
X139401585Y-82530398D01*
X139399023Y-82526490D01*
X139275684Y-82388301D01*
X139245248Y-82324164D01*
X139254319Y-82253749D01*
X139280594Y-82215308D01*
X142325498Y-79170404D01*
X142387810Y-79136378D01*
X142414593Y-79133499D01*
X143724273Y-79133499D01*
X143792394Y-79153501D01*
X143831706Y-79193664D01*
X143899986Y-79305087D01*
X144046249Y-79473937D01*
X144218125Y-79616631D01*
X144410999Y-79729337D01*
X144619691Y-79809029D01*
X144624759Y-79810060D01*
X144624762Y-79810061D01*
X144732016Y-79831882D01*
X144838596Y-79853566D01*
X144843771Y-79853756D01*
X144843773Y-79853756D01*
X145056672Y-79861563D01*
X145056676Y-79861563D01*
X145061836Y-79861752D01*
X145066956Y-79861096D01*
X145066958Y-79861096D01*
X145278287Y-79834024D01*
X145278288Y-79834024D01*
X145283415Y-79833367D01*
X145288365Y-79831882D01*
X145492428Y-79770660D01*
X145492433Y-79770658D01*
X145497383Y-79769173D01*
X145697993Y-79670895D01*
X145879859Y-79541172D01*
X146038095Y-79383488D01*
X146168452Y-79202076D01*
X146169775Y-79203027D01*
X146216644Y-79159856D01*
X146286579Y-79147624D01*
X146352025Y-79175143D01*
X146379874Y-79206993D01*
X146439986Y-79305087D01*
X146586249Y-79473937D01*
X146758125Y-79616631D01*
X146950999Y-79729337D01*
X147159691Y-79809029D01*
X147164759Y-79810060D01*
X147164762Y-79810061D01*
X147272016Y-79831882D01*
X147378596Y-79853566D01*
X147383771Y-79853756D01*
X147383773Y-79853756D01*
X147596672Y-79861563D01*
X147596676Y-79861563D01*
X147601836Y-79861752D01*
X147606956Y-79861096D01*
X147606958Y-79861096D01*
X147818287Y-79834024D01*
X147818288Y-79834024D01*
X147823415Y-79833367D01*
X147828365Y-79831882D01*
X148032428Y-79770660D01*
X148032433Y-79770658D01*
X148037383Y-79769173D01*
X148237993Y-79670895D01*
X148419859Y-79541172D01*
X148578095Y-79383488D01*
X148708452Y-79202076D01*
X148709775Y-79203027D01*
X148756644Y-79159856D01*
X148826579Y-79147624D01*
X148892025Y-79175143D01*
X148919874Y-79206993D01*
X148979986Y-79305087D01*
X149126249Y-79473937D01*
X149298125Y-79616631D01*
X149384069Y-79666852D01*
X149432793Y-79718490D01*
X149446499Y-79775640D01*
X149446499Y-98355405D01*
X149426497Y-98423526D01*
X149409594Y-98444500D01*
X145663247Y-102190847D01*
X145600935Y-102224873D01*
X145541540Y-102223458D01*
X145483408Y-102207881D01*
X145483397Y-102207879D01*
X145478086Y-102206456D01*
X145249999Y-102186501D01*
X145021912Y-102206456D01*
X145016599Y-102207880D01*
X145016597Y-102207880D01*
X144806066Y-102264292D01*
X144806064Y-102264293D01*
X144800756Y-102265715D01*
X144795775Y-102268038D01*
X144795774Y-102268038D01*
X144598237Y-102360150D01*
X144598232Y-102360153D01*
X144593250Y-102362476D01*
X144488388Y-102435901D01*
X144410210Y-102490642D01*
X144410207Y-102490644D01*
X144405699Y-102493801D01*
X144243801Y-102655699D01*
X144112476Y-102843250D01*
X144110153Y-102848232D01*
X144110150Y-102848237D01*
X144025455Y-103029869D01*
X144015715Y-103050756D01*
X144014293Y-103056064D01*
X144014292Y-103056066D01*
X143966755Y-103233477D01*
X143956456Y-103271912D01*
X143936501Y-103499999D01*
X143956456Y-103728086D01*
X143957880Y-103733399D01*
X143957880Y-103733401D01*
X143967030Y-103767547D01*
X144015715Y-103949242D01*
X144018038Y-103954223D01*
X144018038Y-103954224D01*
X144110150Y-104151761D01*
X144110153Y-104151766D01*
X144112476Y-104156748D01*
X144243801Y-104344299D01*
X144405699Y-104506197D01*
X144410207Y-104509354D01*
X144410213Y-104509358D01*
X144593250Y-104637522D01*
X144598232Y-104639845D01*
X144598237Y-104639848D01*
X144768824Y-104719393D01*
X144800756Y-104734283D01*
X144806064Y-104735705D01*
X144806066Y-104735706D01*
X145016597Y-104792118D01*
X145016599Y-104792118D01*
X145021912Y-104793542D01*
X145249999Y-104813497D01*
X145478086Y-104793542D01*
X145483399Y-104792118D01*
X145483401Y-104792118D01*
X145693932Y-104735706D01*
X145693934Y-104735705D01*
X145699242Y-104734283D01*
X145731174Y-104719393D01*
X145901761Y-104639848D01*
X145901766Y-104639845D01*
X145906748Y-104637522D01*
X146089785Y-104509358D01*
X146089791Y-104509354D01*
X146094299Y-104506197D01*
X146256197Y-104344299D01*
X146387522Y-104156748D01*
X146389845Y-104151766D01*
X146389848Y-104151761D01*
X146481960Y-103954224D01*
X146481960Y-103954223D01*
X146484283Y-103949242D01*
X146532969Y-103767547D01*
X146533244Y-103766521D01*
X154127272Y-103766521D01*
X154174763Y-103943760D01*
X154178509Y-103954052D01*
X154270585Y-104151510D01*
X154276068Y-104161006D01*
X154401027Y-104339466D01*
X154408083Y-104347874D01*
X154562124Y-104501915D01*
X154570532Y-104508971D01*
X154748992Y-104633930D01*
X154758488Y-104639413D01*
X154955946Y-104731489D01*
X154966238Y-104735235D01*
X155138502Y-104781393D01*
X155152598Y-104781057D01*
X155155999Y-104773115D01*
X155155999Y-104767966D01*
X155663999Y-104767966D01*
X155667972Y-104781497D01*
X155676521Y-104782726D01*
X155853760Y-104735235D01*
X155864052Y-104731489D01*
X156061510Y-104639413D01*
X156071006Y-104633930D01*
X156249466Y-104508971D01*
X156257874Y-104501915D01*
X156411915Y-104347874D01*
X156418971Y-104339466D01*
X156543930Y-104161006D01*
X156549413Y-104151510D01*
X156641489Y-103954052D01*
X156645235Y-103943760D01*
X156691393Y-103771496D01*
X156691057Y-103757400D01*
X156683115Y-103753999D01*
X155682114Y-103753999D01*
X155666875Y-103758474D01*
X155665670Y-103759864D01*
X155663999Y-103767547D01*
X155663999Y-104767966D01*
X155155999Y-104767966D01*
X155155999Y-103772114D01*
X155151524Y-103756875D01*
X155150134Y-103755670D01*
X155142451Y-103753999D01*
X154142032Y-103753999D01*
X154128501Y-103757972D01*
X154127272Y-103766521D01*
X146533244Y-103766521D01*
X146542118Y-103733401D01*
X146542118Y-103733399D01*
X146543542Y-103728086D01*
X146563497Y-103499999D01*
X146543542Y-103271912D01*
X146542118Y-103266597D01*
X146542117Y-103266590D01*
X146531911Y-103228502D01*
X154128605Y-103228502D01*
X154128941Y-103242598D01*
X154136883Y-103245999D01*
X155137884Y-103245999D01*
X155153123Y-103241524D01*
X155154328Y-103240134D01*
X155155999Y-103232451D01*
X155155999Y-103227884D01*
X155663999Y-103227884D01*
X155668474Y-103243123D01*
X155669864Y-103244328D01*
X155677547Y-103245999D01*
X156677966Y-103245999D01*
X156691497Y-103242026D01*
X156692726Y-103233477D01*
X156645235Y-103056238D01*
X156641489Y-103045946D01*
X156549413Y-102848488D01*
X156543930Y-102838992D01*
X156418971Y-102660532D01*
X156411915Y-102652124D01*
X156257874Y-102498083D01*
X156249466Y-102491027D01*
X156071006Y-102366068D01*
X156061510Y-102360585D01*
X155864052Y-102268509D01*
X155853760Y-102264763D01*
X155681496Y-102218605D01*
X155667400Y-102218941D01*
X155663999Y-102226883D01*
X155663999Y-103227884D01*
X155155999Y-103227884D01*
X155155999Y-102232032D01*
X155152026Y-102218501D01*
X155143477Y-102217272D01*
X154966238Y-102264763D01*
X154955946Y-102268509D01*
X154758488Y-102360585D01*
X154748992Y-102366068D01*
X154570532Y-102491027D01*
X154562124Y-102498083D01*
X154408083Y-102652124D01*
X154401027Y-102660532D01*
X154276068Y-102838992D01*
X154270585Y-102848488D01*
X154178509Y-103045946D01*
X154174763Y-103056238D01*
X154128605Y-103228502D01*
X146531911Y-103228502D01*
X146526540Y-103208458D01*
X146528229Y-103137482D01*
X146559151Y-103086751D01*
X150472246Y-99173656D01*
X150480536Y-99166112D01*
X150487017Y-99161999D01*
X150533658Y-99112331D01*
X150536412Y-99109490D01*
X150556134Y-99089768D01*
X150558611Y-99086575D01*
X150566316Y-99077554D01*
X150591158Y-99051099D01*
X150596585Y-99045320D01*
X150600406Y-99038370D01*
X150606345Y-99027567D01*
X150617201Y-99011040D01*
X150624756Y-99001301D01*
X150624757Y-99001299D01*
X150629613Y-98995039D01*
X150647173Y-98954459D01*
X150652390Y-98943811D01*
X150669874Y-98912008D01*
X150669875Y-98912006D01*
X150673694Y-98905059D01*
X150678732Y-98885436D01*
X150685136Y-98866733D01*
X150690032Y-98855419D01*
X150690032Y-98855418D01*
X150693180Y-98848144D01*
X150694419Y-98840321D01*
X150694422Y-98840311D01*
X150700098Y-98804475D01*
X150702504Y-98792855D01*
X150711527Y-98757710D01*
X150711527Y-98757709D01*
X150713499Y-98750029D01*
X150713499Y-98729775D01*
X150715050Y-98710064D01*
X150716979Y-98697885D01*
X150718219Y-98690056D01*
X150714058Y-98646037D01*
X150713499Y-98634180D01*
X150713499Y-79780426D01*
X150733501Y-79712305D01*
X150774617Y-79672549D01*
X150777993Y-79670895D01*
X150959859Y-79541172D01*
X151118095Y-79383488D01*
X151248452Y-79202076D01*
X151249775Y-79203027D01*
X151296644Y-79159856D01*
X151366579Y-79147624D01*
X151432025Y-79175143D01*
X151459874Y-79206993D01*
X151519986Y-79305087D01*
X151666249Y-79473937D01*
X151838125Y-79616631D01*
X151924069Y-79666852D01*
X151972793Y-79718490D01*
X151986499Y-79775640D01*
X151986499Y-96821232D01*
X151985972Y-96832415D01*
X151984297Y-96839908D01*
X151984546Y-96847834D01*
X151984546Y-96847835D01*
X151986437Y-96907985D01*
X151986499Y-96911944D01*
X151986499Y-96939855D01*
X151986996Y-96943789D01*
X151986996Y-96943790D01*
X151987004Y-96943855D01*
X151987937Y-96955692D01*
X151989326Y-96999888D01*
X151993155Y-97013067D01*
X151994977Y-97019338D01*
X151998986Y-97038699D01*
X152001525Y-97058796D01*
X152004444Y-97066167D01*
X152004444Y-97066169D01*
X152017803Y-97099911D01*
X152021648Y-97111141D01*
X152033981Y-97153592D01*
X152038014Y-97160411D01*
X152038016Y-97160416D01*
X152044292Y-97171027D01*
X152052987Y-97188775D01*
X152060447Y-97207616D01*
X152065109Y-97214032D01*
X152065109Y-97214033D01*
X152086435Y-97243386D01*
X152092951Y-97253306D01*
X152096222Y-97258836D01*
X152115457Y-97291361D01*
X152129778Y-97305682D01*
X152142618Y-97320715D01*
X152154527Y-97337106D01*
X152160633Y-97342157D01*
X152188604Y-97365297D01*
X152197383Y-97373287D01*
X157910847Y-103086751D01*
X157944873Y-103149063D01*
X157943458Y-103208458D01*
X157927881Y-103266590D01*
X157927880Y-103266597D01*
X157926456Y-103271912D01*
X157906501Y-103499999D01*
X157926456Y-103728086D01*
X157927880Y-103733399D01*
X157927880Y-103733401D01*
X157937030Y-103767547D01*
X157985715Y-103949242D01*
X157988038Y-103954223D01*
X157988038Y-103954224D01*
X158080150Y-104151761D01*
X158080153Y-104151766D01*
X158082476Y-104156748D01*
X158213801Y-104344299D01*
X158375699Y-104506197D01*
X158380207Y-104509354D01*
X158380213Y-104509358D01*
X158563250Y-104637522D01*
X158568232Y-104639845D01*
X158568237Y-104639848D01*
X158738824Y-104719393D01*
X158770756Y-104734283D01*
X158776064Y-104735705D01*
X158776066Y-104735706D01*
X158986597Y-104792118D01*
X158986599Y-104792118D01*
X158991912Y-104793542D01*
X159219999Y-104813497D01*
X159448086Y-104793542D01*
X159453399Y-104792118D01*
X159453401Y-104792118D01*
X159663932Y-104735706D01*
X159663934Y-104735705D01*
X159669242Y-104734283D01*
X159701174Y-104719393D01*
X159871761Y-104639848D01*
X159871766Y-104639845D01*
X159876748Y-104637522D01*
X160059785Y-104509358D01*
X160059791Y-104509354D01*
X160064299Y-104506197D01*
X160226197Y-104344299D01*
X160357522Y-104156748D01*
X160359845Y-104151766D01*
X160359848Y-104151761D01*
X160451960Y-103954224D01*
X160451960Y-103954223D01*
X160454283Y-103949242D01*
X160502969Y-103767547D01*
X160512118Y-103733401D01*
X160512118Y-103733399D01*
X160513542Y-103728086D01*
X160533497Y-103499999D01*
X160513542Y-103271912D01*
X160503243Y-103233477D01*
X160455706Y-103056066D01*
X160455705Y-103056064D01*
X160454283Y-103050756D01*
X160444543Y-103029869D01*
X160359848Y-102848237D01*
X160359845Y-102848232D01*
X160357522Y-102843250D01*
X160226197Y-102655699D01*
X160064299Y-102493801D01*
X160059791Y-102490644D01*
X160059788Y-102490642D01*
X159981610Y-102435901D01*
X159876748Y-102362476D01*
X159871766Y-102360153D01*
X159871761Y-102360150D01*
X159674224Y-102268038D01*
X159674223Y-102268038D01*
X159669242Y-102265715D01*
X159663934Y-102264293D01*
X159663932Y-102264292D01*
X159453401Y-102207880D01*
X159453399Y-102207880D01*
X159448086Y-102206456D01*
X159219999Y-102186501D01*
X158991912Y-102206456D01*
X158986601Y-102207879D01*
X158986590Y-102207881D01*
X158928458Y-102223458D01*
X158857482Y-102221769D01*
X158806751Y-102190847D01*
X153290404Y-96674499D01*
X153256378Y-96612187D01*
X153253499Y-96585404D01*
X153253499Y-96163829D01*
X156701709Y-96163829D01*
X156701840Y-96165662D01*
X156706091Y-96172277D01*
X158139480Y-97605666D01*
X158144564Y-97610228D01*
X158184437Y-97642289D01*
X158197788Y-97650510D01*
X158314888Y-97703751D01*
X158331949Y-97708740D01*
X158458217Y-97726823D01*
X158475995Y-97726823D01*
X158602263Y-97708740D01*
X158619324Y-97703751D01*
X158736419Y-97650512D01*
X158749776Y-97642287D01*
X158789660Y-97610220D01*
X158794719Y-97605680D01*
X159517786Y-96882612D01*
X159525397Y-96868674D01*
X159525265Y-96866838D01*
X159521016Y-96860226D01*
X159168444Y-96507654D01*
X162239857Y-96507654D01*
X162275103Y-96766637D01*
X162276411Y-96771123D01*
X162276411Y-96771125D01*
X162291016Y-96821232D01*
X162348242Y-97017566D01*
X162457667Y-97254927D01*
X162460230Y-97258836D01*
X162598409Y-97469595D01*
X162598413Y-97469600D01*
X162600975Y-97473508D01*
X162775017Y-97668505D01*
X162975969Y-97835636D01*
X162979972Y-97838065D01*
X163195421Y-97968803D01*
X163195425Y-97968805D01*
X163199418Y-97971228D01*
X163440454Y-98072302D01*
X163693782Y-98136640D01*
X163698433Y-98137108D01*
X163698437Y-98137109D01*
X163891307Y-98156530D01*
X163910866Y-98158499D01*
X166066353Y-98158499D01*
X166068678Y-98158326D01*
X166068684Y-98158326D01*
X166255999Y-98144406D01*
X166256003Y-98144405D01*
X166260651Y-98144060D01*
X166265199Y-98143031D01*
X166265205Y-98143030D01*
X166451600Y-98100852D01*
X166515576Y-98086376D01*
X166551768Y-98072302D01*
X166754823Y-97993339D01*
X166754826Y-97993338D01*
X166759176Y-97991646D01*
X166986097Y-97861950D01*
X167191356Y-97700137D01*
X167370442Y-97509762D01*
X167486714Y-97342157D01*
X167516758Y-97298850D01*
X167516760Y-97298847D01*
X167519423Y-97295008D01*
X167544880Y-97243386D01*
X167632959Y-97064780D01*
X167632960Y-97064777D01*
X167635024Y-97060592D01*
X167645182Y-97028860D01*
X167713279Y-96816122D01*
X167714706Y-96811664D01*
X167756720Y-96553692D01*
X167760141Y-96292344D01*
X167724895Y-96033361D01*
X167710472Y-95983876D01*
X167656378Y-95798289D01*
X167651756Y-95782432D01*
X167542331Y-95545071D01*
X167483930Y-95455995D01*
X167401589Y-95330403D01*
X167401585Y-95330398D01*
X167399023Y-95326490D01*
X167224981Y-95131493D01*
X167024029Y-94964362D01*
X166976843Y-94935729D01*
X166804577Y-94831195D01*
X166804573Y-94831193D01*
X166800580Y-94828770D01*
X166559544Y-94727696D01*
X166306216Y-94663358D01*
X166301565Y-94662890D01*
X166301561Y-94662889D01*
X166092270Y-94641815D01*
X166089132Y-94641499D01*
X163933645Y-94641499D01*
X163931320Y-94641672D01*
X163931314Y-94641672D01*
X163743999Y-94655592D01*
X163743995Y-94655593D01*
X163739347Y-94655938D01*
X163734799Y-94656967D01*
X163734793Y-94656968D01*
X163548398Y-94699146D01*
X163484422Y-94713622D01*
X163480070Y-94715314D01*
X163480068Y-94715315D01*
X163245175Y-94806659D01*
X163245172Y-94806660D01*
X163240822Y-94808352D01*
X163013901Y-94938048D01*
X162808642Y-95099861D01*
X162629556Y-95290236D01*
X162480575Y-95504990D01*
X162478509Y-95509180D01*
X162478507Y-95509183D01*
X162434055Y-95599324D01*
X162364974Y-95739406D01*
X162363552Y-95743849D01*
X162363551Y-95743851D01*
X162286719Y-95983876D01*
X162285292Y-95988334D01*
X162243278Y-96246306D01*
X162239857Y-96507654D01*
X159168444Y-96507654D01*
X157772811Y-95112021D01*
X157758867Y-95104407D01*
X157757034Y-95104538D01*
X157750419Y-95108789D01*
X156709323Y-96149885D01*
X156701709Y-96163829D01*
X153253499Y-96163829D01*
X153253499Y-94041781D01*
X154773175Y-94041781D01*
X154791258Y-94168049D01*
X154796247Y-94185110D01*
X154849487Y-94302208D01*
X154857710Y-94315562D01*
X154889770Y-94355436D01*
X154894331Y-94360518D01*
X156324489Y-95790675D01*
X156338433Y-95798289D01*
X156340267Y-95798158D01*
X156346879Y-95793909D01*
X157387977Y-94752811D01*
X157394355Y-94741131D01*
X158124407Y-94741131D01*
X158124538Y-94742964D01*
X158128789Y-94749579D01*
X159876992Y-96497782D01*
X159890936Y-96505396D01*
X159892769Y-96505265D01*
X159899384Y-96501014D01*
X160625666Y-95774732D01*
X160630227Y-95769649D01*
X160662288Y-95729775D01*
X160670511Y-95716421D01*
X160723751Y-95599324D01*
X160728740Y-95582263D01*
X160746823Y-95455995D01*
X160746823Y-95438217D01*
X160728740Y-95311949D01*
X160723751Y-95294888D01*
X160670511Y-95177790D01*
X160662288Y-95164436D01*
X160630228Y-95124562D01*
X160625667Y-95119480D01*
X159195509Y-93689323D01*
X159181565Y-93681709D01*
X159179731Y-93681840D01*
X159173119Y-93686089D01*
X158132021Y-94727187D01*
X158124407Y-94741131D01*
X157394355Y-94741131D01*
X157395591Y-94738867D01*
X157395460Y-94737034D01*
X157391209Y-94730419D01*
X155643006Y-92982216D01*
X155629062Y-92974602D01*
X155627229Y-92974733D01*
X155620614Y-92978984D01*
X154894332Y-93705266D01*
X154889771Y-93710349D01*
X154857710Y-93750223D01*
X154849487Y-93763577D01*
X154796247Y-93880674D01*
X154791258Y-93897735D01*
X154773175Y-94024003D01*
X154773175Y-94041781D01*
X153253499Y-94041781D01*
X153253499Y-92611324D01*
X155994601Y-92611324D01*
X155994733Y-92613160D01*
X155998982Y-92619772D01*
X157747187Y-94367977D01*
X157761131Y-94375591D01*
X157762964Y-94375460D01*
X157769579Y-94371209D01*
X158810675Y-93330113D01*
X158818289Y-93316169D01*
X158818158Y-93314336D01*
X158813907Y-93307721D01*
X157380518Y-91874332D01*
X157375434Y-91869770D01*
X157335561Y-91837709D01*
X157322210Y-91829488D01*
X157205110Y-91776247D01*
X157188049Y-91771258D01*
X157061781Y-91753175D01*
X157044003Y-91753175D01*
X156917735Y-91771258D01*
X156900674Y-91776247D01*
X156783579Y-91829486D01*
X156770222Y-91837711D01*
X156730338Y-91869778D01*
X156725279Y-91874318D01*
X156002212Y-92597386D01*
X155994601Y-92611324D01*
X153253499Y-92611324D01*
X153253499Y-91566353D01*
X167141499Y-91566353D01*
X167155938Y-91760651D01*
X167156967Y-91765199D01*
X167156968Y-91765205D01*
X167199146Y-91951600D01*
X167213622Y-92015576D01*
X167308352Y-92259176D01*
X167438048Y-92486097D01*
X167599861Y-92691356D01*
X167790236Y-92870442D01*
X168004990Y-93019423D01*
X168009180Y-93021489D01*
X168009183Y-93021491D01*
X168235218Y-93132959D01*
X168235221Y-93132960D01*
X168239406Y-93135024D01*
X168243849Y-93136446D01*
X168243851Y-93136447D01*
X168483876Y-93213279D01*
X168488334Y-93214706D01*
X168746306Y-93256720D01*
X168860057Y-93258209D01*
X169002977Y-93260080D01*
X169002980Y-93260080D01*
X169007654Y-93260141D01*
X169266637Y-93224895D01*
X169517566Y-93151756D01*
X169553861Y-93135024D01*
X169572111Y-93126610D01*
X169754927Y-93042331D01*
X169858231Y-92974602D01*
X169969595Y-92901589D01*
X169969600Y-92901585D01*
X169973508Y-92899023D01*
X170168505Y-92724981D01*
X170335636Y-92524029D01*
X170471228Y-92300580D01*
X170572302Y-92059544D01*
X170636640Y-91806216D01*
X170658499Y-91589132D01*
X170658499Y-89433645D01*
X170656573Y-89407728D01*
X170644406Y-89243999D01*
X170644405Y-89243995D01*
X170644060Y-89239347D01*
X170632724Y-89189247D01*
X170587407Y-88988979D01*
X170586376Y-88984422D01*
X170491646Y-88740822D01*
X170361950Y-88513901D01*
X170200137Y-88308642D01*
X170009762Y-88129556D01*
X169795008Y-87980575D01*
X169790815Y-87978507D01*
X169564780Y-87867039D01*
X169564777Y-87867038D01*
X169560592Y-87864974D01*
X169514448Y-87850203D01*
X169316122Y-87786719D01*
X169311664Y-87785292D01*
X169053692Y-87743278D01*
X168939941Y-87741789D01*
X168797021Y-87739918D01*
X168797018Y-87739918D01*
X168792344Y-87739857D01*
X168533361Y-87775103D01*
X168282432Y-87848242D01*
X168278179Y-87850202D01*
X168278178Y-87850203D01*
X168241658Y-87867039D01*
X168045071Y-87957667D01*
X168006066Y-87983240D01*
X167830403Y-88098409D01*
X167830398Y-88098413D01*
X167826490Y-88100975D01*
X167631493Y-88275017D01*
X167464362Y-88475969D01*
X167328770Y-88699418D01*
X167227696Y-88940454D01*
X167163358Y-89193782D01*
X167162890Y-89198433D01*
X167162889Y-89198437D01*
X167152604Y-89300580D01*
X167141499Y-89410866D01*
X167141499Y-91566353D01*
X153253499Y-91566353D01*
X153253499Y-88566353D01*
X154341499Y-88566353D01*
X154341672Y-88568678D01*
X154341672Y-88568684D01*
X154351388Y-88699418D01*
X154355938Y-88760651D01*
X154356967Y-88765199D01*
X154356968Y-88765205D01*
X154397647Y-88944979D01*
X154413622Y-89015576D01*
X154508352Y-89259176D01*
X154638048Y-89486097D01*
X154799861Y-89691356D01*
X154990236Y-89870442D01*
X155204990Y-90019423D01*
X155209180Y-90021489D01*
X155209183Y-90021491D01*
X155435218Y-90132959D01*
X155435221Y-90132960D01*
X155439406Y-90135024D01*
X155443849Y-90136446D01*
X155443851Y-90136447D01*
X155683876Y-90213279D01*
X155688334Y-90214706D01*
X155946306Y-90256720D01*
X156060057Y-90258209D01*
X156202977Y-90260080D01*
X156202980Y-90260080D01*
X156207654Y-90260141D01*
X156466637Y-90224895D01*
X156717566Y-90151756D01*
X156753861Y-90135024D01*
X156772111Y-90126610D01*
X156954927Y-90042331D01*
X157004975Y-90009518D01*
X157169595Y-89901589D01*
X157169600Y-89901585D01*
X157173508Y-89899023D01*
X157368505Y-89724981D01*
X157535636Y-89524029D01*
X157671228Y-89300580D01*
X157772302Y-89059544D01*
X157836640Y-88806216D01*
X157842787Y-88745175D01*
X157858183Y-88592270D01*
X157858499Y-88589132D01*
X157858499Y-86433645D01*
X157844060Y-86239347D01*
X157832724Y-86189247D01*
X157787407Y-85988979D01*
X157786376Y-85984422D01*
X157691646Y-85740822D01*
X157561950Y-85513901D01*
X157400137Y-85308642D01*
X157209762Y-85129556D01*
X156995008Y-84980575D01*
X156990815Y-84978507D01*
X156764780Y-84867039D01*
X156764777Y-84867038D01*
X156760592Y-84864974D01*
X156714448Y-84850203D01*
X156516122Y-84786719D01*
X156511664Y-84785292D01*
X156253692Y-84743278D01*
X156139941Y-84741789D01*
X155997021Y-84739918D01*
X155997018Y-84739918D01*
X155992344Y-84739857D01*
X155733361Y-84775103D01*
X155482432Y-84848242D01*
X155478179Y-84850202D01*
X155478178Y-84850203D01*
X155441658Y-84867039D01*
X155245071Y-84957667D01*
X155206066Y-84983240D01*
X155030403Y-85098409D01*
X155030398Y-85098413D01*
X155026490Y-85100975D01*
X154831493Y-85275017D01*
X154664362Y-85475969D01*
X154528770Y-85699418D01*
X154427696Y-85940454D01*
X154363358Y-86193782D01*
X154341499Y-86410866D01*
X154341499Y-88566353D01*
X153253499Y-88566353D01*
X153253499Y-83707654D01*
X159239857Y-83707654D01*
X159275103Y-83966637D01*
X159276411Y-83971123D01*
X159276411Y-83971125D01*
X159296097Y-84038663D01*
X159348242Y-84217566D01*
X159457667Y-84454927D01*
X159460230Y-84458836D01*
X159598409Y-84669595D01*
X159598413Y-84669600D01*
X159600975Y-84673508D01*
X159775017Y-84868505D01*
X159975969Y-85035636D01*
X159979972Y-85038065D01*
X160195421Y-85168803D01*
X160195425Y-85168805D01*
X160199418Y-85171228D01*
X160440454Y-85272302D01*
X160693782Y-85336640D01*
X160698433Y-85337108D01*
X160698437Y-85337109D01*
X160891307Y-85356530D01*
X160910866Y-85358499D01*
X163066353Y-85358499D01*
X163068678Y-85358326D01*
X163068684Y-85358326D01*
X163255999Y-85344406D01*
X163256003Y-85344405D01*
X163260651Y-85344060D01*
X163265199Y-85343031D01*
X163265205Y-85343030D01*
X163451600Y-85300852D01*
X163515576Y-85286376D01*
X163519930Y-85284683D01*
X163754823Y-85193339D01*
X163754826Y-85193338D01*
X163759176Y-85191646D01*
X163986097Y-85061950D01*
X164191356Y-84900137D01*
X164370442Y-84709762D01*
X164519423Y-84495008D01*
X164635024Y-84260592D01*
X164714706Y-84011664D01*
X164756720Y-83753692D01*
X164760141Y-83492344D01*
X164724895Y-83233361D01*
X164710472Y-83183876D01*
X164653067Y-82986931D01*
X164651756Y-82982432D01*
X164542331Y-82745071D01*
X164509518Y-82695023D01*
X164401589Y-82530403D01*
X164401585Y-82530398D01*
X164399023Y-82526490D01*
X164224981Y-82331493D01*
X164024029Y-82164362D01*
X163976843Y-82135729D01*
X163804577Y-82031195D01*
X163804573Y-82031193D01*
X163800580Y-82028770D01*
X163559544Y-81927696D01*
X163306216Y-81863358D01*
X163301565Y-81862890D01*
X163301561Y-81862889D01*
X163092270Y-81841815D01*
X163089132Y-81841499D01*
X160933645Y-81841499D01*
X160931320Y-81841672D01*
X160931314Y-81841672D01*
X160743999Y-81855592D01*
X160743995Y-81855593D01*
X160739347Y-81855938D01*
X160734799Y-81856967D01*
X160734793Y-81856968D01*
X160548398Y-81899146D01*
X160484422Y-81913622D01*
X160480070Y-81915314D01*
X160480068Y-81915315D01*
X160245175Y-82006659D01*
X160245172Y-82006660D01*
X160240822Y-82008352D01*
X160013901Y-82138048D01*
X159808642Y-82299861D01*
X159629556Y-82490236D01*
X159480575Y-82704990D01*
X159364974Y-82939406D01*
X159285292Y-83188334D01*
X159243278Y-83446306D01*
X159239857Y-83707654D01*
X153253499Y-83707654D01*
X153253499Y-79780426D01*
X153273501Y-79712305D01*
X153314617Y-79672549D01*
X153317993Y-79670895D01*
X153499859Y-79541172D01*
X153567330Y-79473937D01*
X153608478Y-79432932D01*
X153670850Y-79399016D01*
X153741657Y-79404204D01*
X153798418Y-79446850D01*
X153815400Y-79477953D01*
X153856675Y-79588053D01*
X153865213Y-79603648D01*
X153941714Y-79705723D01*
X153954275Y-79718284D01*
X154056350Y-79794785D01*
X154071945Y-79803323D01*
X154192393Y-79848477D01*
X154207648Y-79852104D01*
X154258513Y-79857630D01*
X154265327Y-79857999D01*
X154887884Y-79857999D01*
X154903123Y-79853524D01*
X154904328Y-79852134D01*
X154905999Y-79844451D01*
X154905999Y-79839883D01*
X155413999Y-79839883D01*
X155418474Y-79855122D01*
X155419864Y-79856327D01*
X155427547Y-79857998D01*
X156054668Y-79857998D01*
X156061489Y-79857628D01*
X156112351Y-79852104D01*
X156127603Y-79848478D01*
X156248053Y-79803323D01*
X156263648Y-79794785D01*
X156365723Y-79718284D01*
X156378284Y-79705723D01*
X156454785Y-79603648D01*
X156463323Y-79588053D01*
X156508477Y-79467605D01*
X156512104Y-79452350D01*
X156517630Y-79401485D01*
X156517999Y-79394671D01*
X156517999Y-78772114D01*
X156513524Y-78756875D01*
X156512134Y-78755670D01*
X156504451Y-78753999D01*
X155432114Y-78753999D01*
X155416875Y-78758474D01*
X155415670Y-78759864D01*
X155413999Y-78767547D01*
X155413999Y-79839883D01*
X154905999Y-79839883D01*
X154905999Y-78227884D01*
X155413999Y-78227884D01*
X155418474Y-78243123D01*
X155419864Y-78244328D01*
X155427547Y-78245999D01*
X156499883Y-78245999D01*
X156515122Y-78241524D01*
X156516327Y-78240134D01*
X156517998Y-78232451D01*
X156517998Y-78132702D01*
X167890742Y-78132702D01*
X167928267Y-78417733D01*
X168004128Y-78695035D01*
X168116922Y-78959475D01*
X168128692Y-78979141D01*
X168262116Y-79202076D01*
X168264560Y-79206160D01*
X168444312Y-79430527D01*
X168494289Y-79477953D01*
X168626744Y-79603648D01*
X168652850Y-79628422D01*
X168886316Y-79796185D01*
X168890111Y-79798194D01*
X168890112Y-79798195D01*
X168910574Y-79809029D01*
X169140391Y-79930711D01*
X169410372Y-80029510D01*
X169691263Y-80090754D01*
X169719840Y-80093003D01*
X169914281Y-80108306D01*
X169914290Y-80108306D01*
X169916738Y-80108499D01*
X170072270Y-80108499D01*
X170074406Y-80108353D01*
X170074417Y-80108353D01*
X170282547Y-80094164D01*
X170282553Y-80094163D01*
X170286824Y-80093872D01*
X170291019Y-80093003D01*
X170291021Y-80093003D01*
X170427583Y-80064722D01*
X170568341Y-80035573D01*
X170839342Y-79939606D01*
X171094811Y-79807749D01*
X171098312Y-79805288D01*
X171098316Y-79805286D01*
X171244579Y-79702490D01*
X171330022Y-79642440D01*
X171540621Y-79446739D01*
X171722712Y-79224267D01*
X171872926Y-78979141D01*
X171963805Y-78772114D01*
X171986756Y-78719829D01*
X171988482Y-78715897D01*
X172067243Y-78439405D01*
X172107750Y-78154783D01*
X172107844Y-78136950D01*
X172109234Y-77871582D01*
X172109234Y-77871575D01*
X172109256Y-77867296D01*
X172107836Y-77856506D01*
X172083626Y-77672616D01*
X172071731Y-77582265D01*
X171995870Y-77304963D01*
X171944187Y-77183794D01*
X171884762Y-77044475D01*
X171884760Y-77044471D01*
X171883076Y-77040523D01*
X171735438Y-76793838D01*
X171555686Y-76569471D01*
X171347148Y-76371576D01*
X171113682Y-76203813D01*
X171091842Y-76192249D01*
X171068653Y-76179971D01*
X170859607Y-76069287D01*
X170589626Y-75970488D01*
X170308735Y-75909244D01*
X170277684Y-75906800D01*
X170085717Y-75891692D01*
X170085708Y-75891692D01*
X170083260Y-75891499D01*
X169927728Y-75891499D01*
X169925592Y-75891645D01*
X169925581Y-75891645D01*
X169717451Y-75905834D01*
X169717445Y-75905835D01*
X169713174Y-75906126D01*
X169708979Y-75906995D01*
X169708977Y-75906995D01*
X169572416Y-75935275D01*
X169431657Y-75964425D01*
X169160656Y-76060392D01*
X168905187Y-76192249D01*
X168901686Y-76194710D01*
X168901682Y-76194712D01*
X168891593Y-76201803D01*
X168669976Y-76357558D01*
X168459377Y-76553259D01*
X168277286Y-76775731D01*
X168127072Y-77020857D01*
X168125346Y-77024790D01*
X168125345Y-77024791D01*
X168023572Y-77256637D01*
X168011516Y-77284101D01*
X167932755Y-77560593D01*
X167892248Y-77845215D01*
X167892226Y-77849504D01*
X167892225Y-77849511D01*
X167890764Y-78128416D01*
X167890742Y-78132702D01*
X156517998Y-78132702D01*
X156517998Y-77605330D01*
X156517628Y-77598509D01*
X156512104Y-77547647D01*
X156508478Y-77532395D01*
X156463323Y-77411945D01*
X156454785Y-77396350D01*
X156378284Y-77294275D01*
X156365723Y-77281714D01*
X156263648Y-77205213D01*
X156248053Y-77196675D01*
X156127605Y-77151521D01*
X156112350Y-77147894D01*
X156061485Y-77142368D01*
X156054671Y-77141999D01*
X155432114Y-77141999D01*
X155416875Y-77146474D01*
X155415670Y-77147864D01*
X155413999Y-77155547D01*
X155413999Y-78227884D01*
X154905999Y-78227884D01*
X154905999Y-77160115D01*
X154901524Y-77144876D01*
X154900134Y-77143671D01*
X154892451Y-77142000D01*
X154265330Y-77142000D01*
X154258509Y-77142370D01*
X154207647Y-77147894D01*
X154192395Y-77151520D01*
X154071945Y-77196675D01*
X154056350Y-77205213D01*
X153954275Y-77281714D01*
X153941714Y-77294275D01*
X153865213Y-77396350D01*
X153856675Y-77411945D01*
X153815296Y-77522321D01*
X153772654Y-77579086D01*
X153706092Y-77603785D01*
X153636743Y-77588577D01*
X153604120Y-77562890D01*
X153553150Y-77506875D01*
X153553144Y-77506869D01*
X153549669Y-77503050D01*
X153545618Y-77499851D01*
X153545614Y-77499847D01*
X153378413Y-77367799D01*
X153378409Y-77367797D01*
X153374358Y-77364597D01*
X153178788Y-77256637D01*
X153173919Y-77254913D01*
X153173915Y-77254911D01*
X152973086Y-77183794D01*
X152973082Y-77183793D01*
X152968211Y-77182068D01*
X152963118Y-77181161D01*
X152963115Y-77181160D01*
X152753372Y-77143799D01*
X152753366Y-77143798D01*
X152748283Y-77142893D01*
X152674451Y-77141991D01*
X152530080Y-77140227D01*
X152530078Y-77140227D01*
X152524910Y-77140164D01*
X152304090Y-77173954D01*
X152091755Y-77243356D01*
X151893606Y-77346506D01*
X151889473Y-77349609D01*
X151889470Y-77349611D01*
X151806449Y-77411945D01*
X151714964Y-77480634D01*
X151560628Y-77642137D01*
X151453200Y-77799620D01*
X151398292Y-77844620D01*
X151327767Y-77852791D01*
X151264020Y-77821537D01*
X151243323Y-77797053D01*
X151162821Y-77672616D01*
X151162819Y-77672613D01*
X151160013Y-77668276D01*
X151009669Y-77503050D01*
X151005618Y-77499851D01*
X151005614Y-77499847D01*
X150838413Y-77367799D01*
X150838409Y-77367797D01*
X150834358Y-77364597D01*
X150638788Y-77256637D01*
X150633919Y-77254913D01*
X150633915Y-77254911D01*
X150433086Y-77183794D01*
X150433082Y-77183793D01*
X150428211Y-77182068D01*
X150423118Y-77181161D01*
X150423115Y-77181160D01*
X150213372Y-77143799D01*
X150213366Y-77143798D01*
X150208283Y-77142893D01*
X150134451Y-77141991D01*
X149990080Y-77140227D01*
X149990078Y-77140227D01*
X149984910Y-77140164D01*
X149764090Y-77173954D01*
X149551755Y-77243356D01*
X149353606Y-77346506D01*
X149349473Y-77349609D01*
X149349470Y-77349611D01*
X149266449Y-77411945D01*
X149174964Y-77480634D01*
X149020628Y-77642137D01*
X148913200Y-77799620D01*
X148858292Y-77844620D01*
X148787767Y-77852791D01*
X148724020Y-77821537D01*
X148703323Y-77797053D01*
X148622821Y-77672616D01*
X148622819Y-77672613D01*
X148620013Y-77668276D01*
X148469669Y-77503050D01*
X148465618Y-77499851D01*
X148465614Y-77499847D01*
X148298413Y-77367799D01*
X148298409Y-77367797D01*
X148294358Y-77364597D01*
X148098788Y-77256637D01*
X148093919Y-77254913D01*
X148093915Y-77254911D01*
X147893086Y-77183794D01*
X147893082Y-77183793D01*
X147888211Y-77182068D01*
X147883118Y-77181161D01*
X147883115Y-77181160D01*
X147673372Y-77143799D01*
X147673366Y-77143798D01*
X147668283Y-77142893D01*
X147594451Y-77141991D01*
X147450080Y-77140227D01*
X147450078Y-77140227D01*
X147444910Y-77140164D01*
X147224090Y-77173954D01*
X147011755Y-77243356D01*
X146813606Y-77346506D01*
X146809473Y-77349609D01*
X146809470Y-77349611D01*
X146726449Y-77411945D01*
X146634964Y-77480634D01*
X146480628Y-77642137D01*
X146373200Y-77799620D01*
X146318292Y-77844620D01*
X146247767Y-77852791D01*
X146184020Y-77821537D01*
X146163323Y-77797053D01*
X146082821Y-77672616D01*
X146082819Y-77672613D01*
X146080013Y-77668276D01*
X145929669Y-77503050D01*
X145925618Y-77499851D01*
X145925614Y-77499847D01*
X145758413Y-77367799D01*
X145758409Y-77367797D01*
X145754358Y-77364597D01*
X145558788Y-77256637D01*
X145553919Y-77254913D01*
X145553915Y-77254911D01*
X145353086Y-77183794D01*
X145353082Y-77183793D01*
X145348211Y-77182068D01*
X145343118Y-77181161D01*
X145343115Y-77181160D01*
X145133372Y-77143799D01*
X145133366Y-77143798D01*
X145128283Y-77142893D01*
X145054451Y-77141991D01*
X144910080Y-77140227D01*
X144910078Y-77140227D01*
X144904910Y-77140164D01*
X144684090Y-77173954D01*
X144471755Y-77243356D01*
X144273606Y-77346506D01*
X144269473Y-77349609D01*
X144269470Y-77349611D01*
X144186449Y-77411945D01*
X144094964Y-77480634D01*
X143940628Y-77642137D01*
X143937719Y-77646402D01*
X143937713Y-77646410D01*
X143825094Y-77811503D01*
X143770183Y-77856506D01*
X143721006Y-77866499D01*
X142178766Y-77866499D01*
X142167583Y-77865972D01*
X142160090Y-77864297D01*
X142152164Y-77864546D01*
X142152163Y-77864546D01*
X142092013Y-77866437D01*
X142088054Y-77866499D01*
X142060143Y-77866499D01*
X142056209Y-77866996D01*
X142056208Y-77866996D01*
X142056143Y-77867004D01*
X142044306Y-77867937D01*
X142012489Y-77868937D01*
X142008028Y-77869077D01*
X142000109Y-77869326D01*
X141982453Y-77874455D01*
X141980657Y-77874977D01*
X141961305Y-77878985D01*
X141954234Y-77879879D01*
X141941202Y-77881525D01*
X141933833Y-77884442D01*
X141933831Y-77884443D01*
X141900096Y-77897799D01*
X141888868Y-77901644D01*
X141846406Y-77913981D01*
X141839584Y-77918015D01*
X141839578Y-77918018D01*
X141828967Y-77924293D01*
X141811217Y-77932989D01*
X141799755Y-77937527D01*
X141799750Y-77937530D01*
X141792382Y-77940447D01*
X141785967Y-77945108D01*
X141756624Y-77966426D01*
X141746706Y-77972942D01*
X141728018Y-77983994D01*
X141708636Y-77995457D01*
X141694312Y-78009781D01*
X141679280Y-78022620D01*
X141662892Y-78034527D01*
X141641239Y-78060701D01*
X141634711Y-78068592D01*
X141626721Y-78077372D01*
X137899499Y-81804594D01*
X137837187Y-81838620D01*
X137810404Y-81841499D01*
X135933645Y-81841499D01*
X135931320Y-81841672D01*
X135931314Y-81841672D01*
X135743999Y-81855592D01*
X135743995Y-81855593D01*
X135739347Y-81855938D01*
X135734799Y-81856967D01*
X135734793Y-81856968D01*
X135548398Y-81899146D01*
X135484422Y-81913622D01*
X135480070Y-81915314D01*
X135480068Y-81915315D01*
X135245175Y-82006659D01*
X135245172Y-82006660D01*
X135240822Y-82008352D01*
X135013901Y-82138048D01*
X134808642Y-82299861D01*
X134629556Y-82490236D01*
X134480575Y-82704990D01*
X134364974Y-82939406D01*
X134285292Y-83188334D01*
X134243278Y-83446306D01*
X134239857Y-83707654D01*
X127507792Y-83707654D01*
X127507792Y-78132702D01*
X127890742Y-78132702D01*
X127928267Y-78417733D01*
X128004128Y-78695035D01*
X128116922Y-78959475D01*
X128128692Y-78979141D01*
X128262116Y-79202076D01*
X128264560Y-79206160D01*
X128444312Y-79430527D01*
X128494289Y-79477953D01*
X128626744Y-79603648D01*
X128652850Y-79628422D01*
X128886316Y-79796185D01*
X128890111Y-79798194D01*
X128890112Y-79798195D01*
X128910574Y-79809029D01*
X129140391Y-79930711D01*
X129410372Y-80029510D01*
X129691263Y-80090754D01*
X129719840Y-80093003D01*
X129914281Y-80108306D01*
X129914290Y-80108306D01*
X129916738Y-80108499D01*
X130072270Y-80108499D01*
X130074406Y-80108353D01*
X130074417Y-80108353D01*
X130282547Y-80094164D01*
X130282553Y-80094163D01*
X130286824Y-80093872D01*
X130291019Y-80093003D01*
X130291021Y-80093003D01*
X130427582Y-80064723D01*
X130568341Y-80035573D01*
X130839342Y-79939606D01*
X131094811Y-79807749D01*
X131098312Y-79805288D01*
X131098316Y-79805286D01*
X131244579Y-79702490D01*
X131330022Y-79642440D01*
X131540621Y-79446739D01*
X131722712Y-79224267D01*
X131872926Y-78979141D01*
X131963805Y-78772114D01*
X131986756Y-78719829D01*
X131988482Y-78715897D01*
X132067243Y-78439405D01*
X132107750Y-78154783D01*
X132107844Y-78136950D01*
X132109234Y-77871582D01*
X132109234Y-77871575D01*
X132109256Y-77867296D01*
X132107836Y-77856506D01*
X132083626Y-77672616D01*
X132071731Y-77582265D01*
X131995870Y-77304963D01*
X131944187Y-77183794D01*
X131884762Y-77044475D01*
X131884760Y-77044471D01*
X131883076Y-77040523D01*
X131735438Y-76793838D01*
X131555686Y-76569471D01*
X131347148Y-76371576D01*
X131113682Y-76203813D01*
X131091842Y-76192249D01*
X131068653Y-76179971D01*
X130859607Y-76069287D01*
X130589626Y-75970488D01*
X130308735Y-75909244D01*
X130277684Y-75906800D01*
X130085717Y-75891692D01*
X130085708Y-75891692D01*
X130083260Y-75891499D01*
X129927728Y-75891499D01*
X129925592Y-75891645D01*
X129925581Y-75891645D01*
X129717451Y-75905834D01*
X129717445Y-75905835D01*
X129713174Y-75906126D01*
X129708979Y-75906995D01*
X129708977Y-75906995D01*
X129572416Y-75935275D01*
X129431657Y-75964425D01*
X129160656Y-76060392D01*
X128905187Y-76192249D01*
X128901686Y-76194710D01*
X128901682Y-76194712D01*
X128891593Y-76201803D01*
X128669976Y-76357558D01*
X128459377Y-76553259D01*
X128277286Y-76775731D01*
X128127072Y-77020857D01*
X128125346Y-77024790D01*
X128125345Y-77024791D01*
X128023572Y-77256637D01*
X128011516Y-77284101D01*
X127932755Y-77560593D01*
X127892248Y-77845215D01*
X127892226Y-77849504D01*
X127892225Y-77849511D01*
X127890764Y-78128416D01*
X127890742Y-78132702D01*
X127507792Y-78132702D01*
X127507792Y-75633801D01*
X127527794Y-75565680D01*
X127581450Y-75519187D01*
X127633794Y-75507801D01*
X149990926Y-75508146D01*
G37*
G04 #@! TD.AperFunction*
G04 #@! TD*
M02*
