M48
; DRILL file {KiCad 6.0.5-a6ca702e91~116~ubuntu20.04.1} date Sat May  7 11:35:15 2022
; FORMAT={-:-/ absolute / metric / decimal}
; #@! TF.CreationDate,2022-05-07T11:35:15-04:00
; #@! TF.GenerationSoftware,Kicad,Pcbnew,6.0.5-a6ca702e91~116~ubuntu20.04.1
; #@! TF.FileFunction,MixedPlating,1,2
FMAT,2
METRIC
; #@! TA.AperFunction,Plated,PTH,ComponentDrill
T1C0.800
; #@! TA.AperFunction,Plated,PTH,ComponentDrill
T2C1.000
; #@! TA.AperFunction,NonPlated,NPTH,ComponentDrill
T3C3.200
%
G90
G05
T1
X130.01Y-103.5
X140.17Y-103.5
X145.25Y-103.5
X150.33Y-107.31
X150.33Y-117.47
X155.41Y-103.5
X159.22Y-103.5
X169.38Y-103.5
T2
X145.0Y-78.5
X147.54Y-78.5
X150.08Y-78.5
X152.62Y-78.5
X155.16Y-78.5
T3
X130.0Y-78.0
X170.0Y-78.0
T2
X131.1Y-86.65G85X131.1Y-88.35
G05
X131.1Y-111.65G85X131.1Y-113.35
G05
X132.159Y-94.139G85X133.361Y-95.341
G05
X132.159Y-119.139G85X133.361Y-120.341
G05
X137.85Y-83.6G85X136.15Y-83.6
G05
X137.85Y-108.6G85X136.15Y-108.6
G05
X140.85Y-96.4G85X139.15Y-96.4
G05
X140.85Y-121.4G85X139.15Y-121.4
G05
X143.9Y-89.65G85X143.9Y-91.35
G05
X143.9Y-114.65G85X143.9Y-116.35
G05
X156.1Y-86.65G85X156.1Y-88.35
G05
X156.1Y-111.65G85X156.1Y-113.35
G05
X157.159Y-94.139G85X158.361Y-95.341
G05
X157.159Y-119.139G85X158.361Y-120.341
G05
X162.85Y-83.6G85X161.15Y-83.6
G05
X162.85Y-108.6G85X161.15Y-108.6
G05
X165.85Y-96.4G85X164.15Y-96.4
G05
X165.85Y-121.4G85X164.15Y-121.4
G05
X168.9Y-89.65G85X168.9Y-91.35
G05
X168.9Y-114.65G85X168.9Y-116.35
G05
T0
M30
