G04 #@! TF.GenerationSoftware,KiCad,Pcbnew,6.0.5-a6ca702e91~116~ubuntu20.04.1*
G04 #@! TF.CreationDate,2022-05-07T11:35:15-04:00*
G04 #@! TF.ProjectId,vcapf_jacks,76636170-665f-46a6-9163-6b732e6b6963,rev?*
G04 #@! TF.SameCoordinates,Original*
G04 #@! TF.FileFunction,Legend,Bot*
G04 #@! TF.FilePolarity,Positive*
%FSLAX46Y46*%
G04 Gerber Fmt 4.6, Leading zero omitted, Abs format (unit mm)*
G04 Created by KiCad (PCBNEW 6.0.5-a6ca702e91~116~ubuntu20.04.1) date 2022-05-07 11:35:15*
%MOMM*%
%LPD*%
G01*
G04 APERTURE LIST*
%ADD10C,0.150000*%
%ADD11C,0.120000*%
G04 APERTURE END LIST*
D10*
X139523808Y-115452379D02*
X140095237Y-115452379D01*
X139809522Y-115452379D02*
X139809522Y-114452379D01*
X139904760Y-114595237D01*
X139999999Y-114690475D01*
X140095237Y-114738094D01*
X139095237Y-115452379D02*
X139095237Y-114452379D01*
X138714284Y-114452379D01*
X138619046Y-114499999D01*
X138571427Y-114547618D01*
X138523808Y-114642856D01*
X138523808Y-114785713D01*
X138571427Y-114880951D01*
X138619046Y-114928570D01*
X138714284Y-114976189D01*
X139095237Y-114976189D01*
X137142856Y-114452379D02*
X136952379Y-114452379D01*
X136857141Y-114499999D01*
X136761903Y-114595237D01*
X136714284Y-114785713D01*
X136714284Y-115119046D01*
X136761903Y-115309522D01*
X136857141Y-115404760D01*
X136952379Y-115452379D01*
X137142856Y-115452379D01*
X137238094Y-115404760D01*
X137333332Y-115309522D01*
X137380951Y-115119046D01*
X137380951Y-114785713D01*
X137333332Y-114595237D01*
X137238094Y-114499999D01*
X137142856Y-114452379D01*
X136285713Y-114452379D02*
X136285713Y-115261903D01*
X136238094Y-115357141D01*
X136190475Y-115404760D01*
X136095237Y-115452379D01*
X135904760Y-115452379D01*
X135809522Y-115404760D01*
X135761903Y-115357141D01*
X135714284Y-115261903D01*
X135714284Y-114452379D01*
X135380951Y-114452379D02*
X134809522Y-114452379D01*
X135095237Y-115452379D02*
X135095237Y-114452379D01*
X139285713Y-90452379D02*
X139761903Y-90452379D01*
X139761903Y-89452379D01*
X138619046Y-89928570D02*
X138952379Y-89928570D01*
X138952379Y-90452379D02*
X138952379Y-89452379D01*
X138476189Y-89452379D01*
X137904760Y-89452379D02*
X137714284Y-89452379D01*
X137619046Y-89499999D01*
X137523808Y-89595237D01*
X137476189Y-89785713D01*
X137476189Y-90119046D01*
X137523808Y-90309522D01*
X137619046Y-90404760D01*
X137714284Y-90452379D01*
X137904760Y-90452379D01*
X137999999Y-90404760D01*
X138095237Y-90309522D01*
X138142856Y-90119046D01*
X138142856Y-89785713D01*
X138095237Y-89595237D01*
X137999999Y-89499999D01*
X137904760Y-89452379D01*
X136285713Y-90452379D02*
X136285713Y-89452379D01*
X135809522Y-90452379D02*
X135809522Y-89452379D01*
X135238094Y-90452379D01*
X135238094Y-89452379D01*
X163761903Y-90357141D02*
X163809522Y-90404760D01*
X163952379Y-90452379D01*
X164047618Y-90452379D01*
X164190475Y-90404760D01*
X164285713Y-90309522D01*
X164333332Y-90214284D01*
X164380951Y-90023808D01*
X164380951Y-89880951D01*
X164333332Y-89690475D01*
X164285713Y-89595237D01*
X164190475Y-89499999D01*
X164047618Y-89452379D01*
X163952379Y-89452379D01*
X163809522Y-89499999D01*
X163761903Y-89547618D01*
X163476189Y-89452379D02*
X163142856Y-90452379D01*
X162809522Y-89452379D01*
X161714284Y-90452379D02*
X161714284Y-89452379D01*
X161238094Y-90452379D02*
X161238094Y-89452379D01*
X160666665Y-90452379D01*
X160666665Y-89452379D01*
X165095237Y-114547618D02*
X165047618Y-114499999D01*
X164952379Y-114452379D01*
X164714284Y-114452379D01*
X164619046Y-114499999D01*
X164571427Y-114547618D01*
X164523808Y-114642856D01*
X164523808Y-114738094D01*
X164571427Y-114880951D01*
X165142856Y-115452379D01*
X164523808Y-115452379D01*
X164095237Y-115452379D02*
X164095237Y-114452379D01*
X163714284Y-114452379D01*
X163619046Y-114499999D01*
X163571427Y-114547618D01*
X163523808Y-114642856D01*
X163523808Y-114785713D01*
X163571427Y-114880951D01*
X163619046Y-114928570D01*
X163714284Y-114976189D01*
X164095237Y-114976189D01*
X162142856Y-114452379D02*
X161952379Y-114452379D01*
X161857141Y-114499999D01*
X161761903Y-114595237D01*
X161714284Y-114785713D01*
X161714284Y-115119046D01*
X161761903Y-115309522D01*
X161857141Y-115404760D01*
X161952379Y-115452379D01*
X162142856Y-115452379D01*
X162238094Y-115404760D01*
X162333332Y-115309522D01*
X162380951Y-115119046D01*
X162380951Y-114785713D01*
X162333332Y-114595237D01*
X162238094Y-114499999D01*
X162142856Y-114452379D01*
X161285713Y-114452379D02*
X161285713Y-115261903D01*
X161238094Y-115357141D01*
X161190475Y-115404760D01*
X161095237Y-115452379D01*
X160904760Y-115452379D01*
X160809522Y-115404760D01*
X160761903Y-115357141D01*
X160714284Y-115261903D01*
X160714284Y-114452379D01*
X160380951Y-114452379D02*
X159809522Y-114452379D01*
X160095237Y-115452379D02*
X160095237Y-114452379D01*
G04 #@! TO.C,R2*
X148299284Y-112264999D02*
X147942141Y-112014999D01*
X148299284Y-111836427D02*
X147549284Y-111836427D01*
X147549284Y-112122141D01*
X147584999Y-112193570D01*
X147620713Y-112229284D01*
X147692141Y-112264999D01*
X147799284Y-112264999D01*
X147870713Y-112229284D01*
X147906427Y-112193570D01*
X147942141Y-112122141D01*
X147942141Y-111836427D01*
X147620713Y-112550713D02*
X147584999Y-112586427D01*
X147549284Y-112657856D01*
X147549284Y-112836427D01*
X147584999Y-112907856D01*
X147620713Y-112943570D01*
X147692141Y-112979284D01*
X147763570Y-112979284D01*
X147870713Y-112943570D01*
X148299284Y-112514999D01*
X148299284Y-112979284D01*
X150669284Y-111586427D02*
X150669284Y-111157856D01*
X150669284Y-111372141D02*
X149919284Y-111372141D01*
X150026427Y-111300713D01*
X150097856Y-111229284D01*
X150133570Y-111157856D01*
X149919284Y-112050713D02*
X149919284Y-112122141D01*
X149954999Y-112193570D01*
X149990713Y-112229284D01*
X150062141Y-112264999D01*
X150204999Y-112300713D01*
X150383570Y-112300713D01*
X150526427Y-112264999D01*
X150597856Y-112229284D01*
X150633570Y-112193570D01*
X150669284Y-112122141D01*
X150669284Y-112050713D01*
X150633570Y-111979284D01*
X150597856Y-111943570D01*
X150526427Y-111907856D01*
X150383570Y-111872141D01*
X150204999Y-111872141D01*
X150062141Y-111907856D01*
X149990713Y-111943570D01*
X149954999Y-111979284D01*
X149919284Y-112050713D01*
X149919284Y-112764999D02*
X149919284Y-112836427D01*
X149954999Y-112907856D01*
X149990713Y-112943570D01*
X150062141Y-112979284D01*
X150204999Y-113014999D01*
X150383570Y-113014999D01*
X150526427Y-112979284D01*
X150597856Y-112943570D01*
X150633570Y-112907856D01*
X150669284Y-112836427D01*
X150669284Y-112764999D01*
X150633570Y-112693570D01*
X150597856Y-112657856D01*
X150526427Y-112622141D01*
X150383570Y-112586427D01*
X150204999Y-112586427D01*
X150062141Y-112622141D01*
X149990713Y-112657856D01*
X149954999Y-112693570D01*
X149919284Y-112764999D01*
X150669284Y-113336427D02*
X149919284Y-113336427D01*
X150383570Y-113407856D02*
X150669284Y-113622141D01*
X150169284Y-113622141D02*
X150454999Y-113336427D01*
G04 #@! TO.C,R1*
X150454999Y-106209284D02*
X150704999Y-105852141D01*
X150883570Y-106209284D02*
X150883570Y-105459284D01*
X150597856Y-105459284D01*
X150526427Y-105494999D01*
X150490713Y-105530713D01*
X150454999Y-105602141D01*
X150454999Y-105709284D01*
X150490713Y-105780713D01*
X150526427Y-105816427D01*
X150597856Y-105852141D01*
X150883570Y-105852141D01*
X149740713Y-106209284D02*
X150169284Y-106209284D01*
X149954999Y-106209284D02*
X149954999Y-105459284D01*
X150026427Y-105566427D01*
X150097856Y-105637856D01*
X150169284Y-105673570D01*
X151133570Y-103839284D02*
X151562141Y-103839284D01*
X151347856Y-103839284D02*
X151347856Y-103089284D01*
X151419284Y-103196427D01*
X151490713Y-103267856D01*
X151562141Y-103303570D01*
X150669284Y-103089284D02*
X150597856Y-103089284D01*
X150526427Y-103124999D01*
X150490713Y-103160713D01*
X150454999Y-103232141D01*
X150419284Y-103374999D01*
X150419284Y-103553570D01*
X150454999Y-103696427D01*
X150490713Y-103767856D01*
X150526427Y-103803570D01*
X150597856Y-103839284D01*
X150669284Y-103839284D01*
X150740713Y-103803570D01*
X150776427Y-103767856D01*
X150812141Y-103696427D01*
X150847856Y-103553570D01*
X150847856Y-103374999D01*
X150812141Y-103232141D01*
X150776427Y-103160713D01*
X150740713Y-103124999D01*
X150669284Y-103089284D01*
X149954999Y-103089284D02*
X149883570Y-103089284D01*
X149812141Y-103124999D01*
X149776427Y-103160713D01*
X149740713Y-103232141D01*
X149704999Y-103374999D01*
X149704999Y-103553570D01*
X149740713Y-103696427D01*
X149776427Y-103767856D01*
X149812141Y-103803570D01*
X149883570Y-103839284D01*
X149954999Y-103839284D01*
X150026427Y-103803570D01*
X150062141Y-103767856D01*
X150097856Y-103696427D01*
X150133570Y-103553570D01*
X150133570Y-103374999D01*
X150097856Y-103232141D01*
X150062141Y-103160713D01*
X150026427Y-103124999D01*
X149954999Y-103089284D01*
X149383570Y-103839284D02*
X149383570Y-103089284D01*
X149312141Y-103553570D02*
X149097856Y-103839284D01*
X149097856Y-103339284D02*
X149383570Y-103624999D01*
G04 #@! TO.C,R4*
X164424999Y-106209284D02*
X164674999Y-105852141D01*
X164853570Y-106209284D02*
X164853570Y-105459284D01*
X164567856Y-105459284D01*
X164496427Y-105494999D01*
X164460713Y-105530713D01*
X164424999Y-105602141D01*
X164424999Y-105709284D01*
X164460713Y-105780713D01*
X164496427Y-105816427D01*
X164567856Y-105852141D01*
X164853570Y-105852141D01*
X163782141Y-105709284D02*
X163782141Y-106209284D01*
X163960713Y-105423570D02*
X164139284Y-105959284D01*
X163674999Y-105959284D01*
X164389284Y-103839284D02*
X164817856Y-103839284D01*
X164603570Y-103839284D02*
X164603570Y-103089284D01*
X164674999Y-103196427D01*
X164746427Y-103267856D01*
X164817856Y-103303570D01*
X164067856Y-103839284D02*
X164067856Y-103089284D01*
X163996427Y-103553570D02*
X163782141Y-103839284D01*
X163782141Y-103339284D02*
X164067856Y-103624999D01*
G04 #@! TO.C,R3*
X135214999Y-101469284D02*
X135464999Y-101112141D01*
X135643570Y-101469284D02*
X135643570Y-100719284D01*
X135357856Y-100719284D01*
X135286427Y-100754999D01*
X135250713Y-100790713D01*
X135214999Y-100862141D01*
X135214999Y-100969284D01*
X135250713Y-101040713D01*
X135286427Y-101076427D01*
X135357856Y-101112141D01*
X135643570Y-101112141D01*
X134964999Y-100719284D02*
X134500713Y-100719284D01*
X134750713Y-101004999D01*
X134643570Y-101004999D01*
X134572141Y-101040713D01*
X134536427Y-101076427D01*
X134500713Y-101147856D01*
X134500713Y-101326427D01*
X134536427Y-101397856D01*
X134572141Y-101433570D01*
X134643570Y-101469284D01*
X134857856Y-101469284D01*
X134929284Y-101433570D01*
X134964999Y-101397856D01*
X135179284Y-103839284D02*
X135607856Y-103839284D01*
X135393570Y-103839284D02*
X135393570Y-103089284D01*
X135464999Y-103196427D01*
X135536427Y-103267856D01*
X135607856Y-103303570D01*
X134857856Y-103839284D02*
X134857856Y-103089284D01*
X134786427Y-103553570D02*
X134572141Y-103839284D01*
X134572141Y-103339284D02*
X134857856Y-103624999D01*
D11*
G04 #@! TO.C,R2*
X150329999Y-116429999D02*
X150329999Y-115659999D01*
X151699999Y-109119999D02*
X151699999Y-115659999D01*
X151699999Y-115659999D02*
X148959999Y-115659999D01*
X150329999Y-108349999D02*
X150329999Y-109119999D01*
X148959999Y-115659999D02*
X148959999Y-109119999D01*
X148959999Y-109119999D02*
X151699999Y-109119999D01*
G04 #@! TO.C,R1*
X147059999Y-104869999D02*
X147059999Y-102129999D01*
X153599999Y-102129999D02*
X153599999Y-104869999D01*
X153599999Y-104869999D02*
X147059999Y-104869999D01*
X154369999Y-103499999D02*
X153599999Y-103499999D01*
X146289999Y-103499999D02*
X147059999Y-103499999D01*
X147059999Y-102129999D02*
X153599999Y-102129999D01*
G04 #@! TO.C,R4*
X161029999Y-104869999D02*
X161029999Y-102129999D01*
X167569999Y-102129999D02*
X167569999Y-104869999D01*
X160259999Y-103499999D02*
X161029999Y-103499999D01*
X168339999Y-103499999D02*
X167569999Y-103499999D01*
X167569999Y-104869999D02*
X161029999Y-104869999D01*
X161029999Y-102129999D02*
X167569999Y-102129999D01*
G04 #@! TO.C,R3*
X131049999Y-103499999D02*
X131819999Y-103499999D01*
X131819999Y-102129999D02*
X138359999Y-102129999D01*
X138359999Y-104869999D02*
X131819999Y-104869999D01*
X139129999Y-103499999D02*
X138359999Y-103499999D01*
X138359999Y-102129999D02*
X138359999Y-104869999D01*
X131819999Y-104869999D02*
X131819999Y-102129999D01*
G04 #@! TD*
M02*
