M48
; DRILL file {KiCad 6.0.4-6f826c9f35~116~ubuntu20.04.1} date Tue Apr 19 12:45:32 2022
; FORMAT={-:-/ absolute / metric / decimal}
; #@! TF.CreationDate,2022-04-19T12:45:32-04:00
; #@! TF.GenerationSoftware,Kicad,Pcbnew,6.0.4-6f826c9f35~116~ubuntu20.04.1
; #@! TF.FileFunction,MixedPlating,1,2
FMAT,2
METRIC
; #@! TA.AperFunction,Plated,PTH,ComponentDrill
T1C0.700
; #@! TA.AperFunction,Plated,PTH,ComponentDrill
T2C0.800
; #@! TA.AperFunction,Plated,PTH,ComponentDrill
T3C1.000
; #@! TA.AperFunction,Plated,PTH,ComponentDrill
T4C1.016
; #@! TA.AperFunction,Plated,PTH,ComponentDrill
T5C1.100
; #@! TA.AperFunction,Plated,PTH,ComponentDrill
T6C1.300
; #@! TA.AperFunction,NonPlated,NPTH,ComponentDrill
T7C3.200
%
G90
G05
T1
X128.41Y-47.57
X128.41Y-55.19
X128.41Y-62.81
T2
X129.76Y-113.61
X130.95Y-66.62
X130.95Y-70.43
X130.95Y-74.24
X130.95Y-78.05
X130.95Y-93.29
X130.95Y-97.1
X130.95Y-100.91
X130.95Y-104.72
X130.95Y-109.8
X130.95Y-117.42
X130.95Y-121.23
X130.95Y-125.04
X130.95Y-128.85
X130.95Y-134.84
X130.95Y-142.46
X130.95Y-149.17
X130.95Y-154.25
X132.22Y-41.22
X133.49Y-134.84
X133.49Y-142.46
X134.72Y-41.22
X134.76Y-113.61
X136.03Y-134.84
X136.03Y-142.46
X136.03Y-159.33
X138.5Y-81.86
X138.57Y-97.1
X138.61Y-113.61
X141.0Y-81.86
X141.03Y-159.33
X141.11Y-66.62
X141.11Y-70.43
X141.11Y-74.24
X141.11Y-78.05
X141.11Y-93.29
X141.11Y-100.91
X141.11Y-104.72
X141.11Y-109.8
X141.11Y-113.61
X141.11Y-117.42
X141.11Y-121.23
X141.11Y-125.04
X141.11Y-128.85
X141.11Y-149.17
X141.11Y-154.25
X143.69Y-145.36
X146.18Y-66.61
X146.18Y-69.15
X146.18Y-71.69
X146.18Y-74.23
X146.18Y-76.77
X146.18Y-79.31
X146.18Y-81.85
X146.18Y-84.39
X146.18Y-149.18
X146.18Y-151.72
X146.18Y-154.26
X146.18Y-156.8
X146.19Y-109.8
X146.19Y-112.34
X146.19Y-114.88
X146.19Y-117.42
X146.19Y-119.96
X146.19Y-122.5
X146.19Y-125.04
X146.19Y-145.36
X153.8Y-66.61
X153.8Y-69.15
X153.8Y-71.69
X153.8Y-74.23
X153.8Y-76.77
X153.8Y-79.31
X153.8Y-81.85
X153.8Y-84.39
X153.8Y-149.18
X153.8Y-151.72
X153.8Y-154.26
X153.8Y-156.8
X153.81Y-109.8
X153.81Y-112.34
X153.81Y-114.88
X153.81Y-117.42
X153.81Y-119.96
X153.81Y-122.5
X153.81Y-125.04
X156.35Y-41.22
X158.85Y-41.22
X158.89Y-66.62
X158.89Y-70.43
X158.89Y-74.24
X158.89Y-78.05
X158.89Y-109.8
X158.89Y-117.42
X158.89Y-121.23
X158.89Y-125.04
X158.89Y-149.17
X158.89Y-154.25
X158.93Y-113.61
X158.93Y-160.6
X159.0Y-81.5
X161.43Y-113.61
X161.43Y-160.6
X161.5Y-81.5
X165.24Y-113.61
X169.05Y-66.62
X169.05Y-70.43
X169.05Y-74.24
X169.05Y-78.05
X169.05Y-109.8
X169.05Y-117.42
X169.05Y-121.23
X169.05Y-125.04
X169.05Y-149.17
X169.05Y-154.25
X170.24Y-113.61
T3
X145.0Y-161.0
X147.54Y-161.0
X150.08Y-161.0
X152.62Y-161.0
X155.16Y-161.0
T4
X165.24Y-46.3
X165.24Y-48.84
X165.24Y-51.38
X165.24Y-53.92
X165.24Y-56.46
X167.78Y-46.3
X167.78Y-48.84
X167.78Y-51.38
X167.78Y-53.92
X167.78Y-56.46
T5
X141.11Y-38.68
X141.11Y-42.49
X151.27Y-38.68
X151.27Y-42.49
T6
X134.0Y-47.5
X134.0Y-52.5
X134.0Y-57.5
X166.0Y-92.5
X166.0Y-97.5
X166.0Y-102.5
X166.0Y-132.5
X166.0Y-137.5
X166.0Y-142.5
T7
X130.0Y-160.5
X170.0Y-160.5
T0
M30
