G04 #@! TF.GenerationSoftware,KiCad,Pcbnew,6.0.4-6f826c9f35~116~ubuntu20.04.1*
G04 #@! TF.CreationDate,2022-04-19T12:45:32-04:00*
G04 #@! TF.ProjectId,vcapf_main,76636170-665f-46d6-9169-6e2e6b696361,rev?*
G04 #@! TF.SameCoordinates,Original*
G04 #@! TF.FileFunction,Soldermask,Bot*
G04 #@! TF.FilePolarity,Negative*
%FSLAX46Y46*%
G04 Gerber Fmt 4.6, Leading zero omitted, Abs format (unit mm)*
G04 Created by KiCad (PCBNEW 6.0.4-6f826c9f35~116~ubuntu20.04.1) date 2022-04-19 12:45:32*
%MOMM*%
%LPD*%
G01*
G04 APERTURE LIST*
%ADD10C,2.340000*%
%ADD11C,3.200000*%
%ADD12C,1.600000*%
%ADD13O,1.600000X1.600000*%
%ADD14R,1.600000X1.600000*%
%ADD15R,1.500000X1.500000*%
%ADD16C,1.500000*%
%ADD17R,2.400000X1.600000*%
%ADD18O,2.400000X1.600000*%
%ADD19R,2.200000X2.200000*%
%ADD20O,2.200000X2.200000*%
%ADD21R,1.700000X1.700000*%
%ADD22O,1.700000X1.700000*%
%ADD23R,1.727200X1.727200*%
%ADD24O,1.727200X1.727200*%
G04 APERTURE END LIST*
D10*
G04 #@! TO.C,RV1*
X165999999Y-142499999D03*
X165999999Y-137499999D03*
X165999999Y-132499999D03*
G04 #@! TD*
D11*
G04 #@! TO.C,H1*
X129999999Y-160499999D03*
G04 #@! TD*
G04 #@! TO.C,H2*
X169999999Y-160499999D03*
G04 #@! TD*
D10*
G04 #@! TO.C,RV2*
X133999999Y-47499999D03*
X133999999Y-52499999D03*
X133999999Y-57499999D03*
G04 #@! TD*
G04 #@! TO.C,RV3*
X165999999Y-102499999D03*
X165999999Y-97499999D03*
X165999999Y-92499999D03*
G04 #@! TD*
D12*
G04 #@! TO.C,R9*
X158889999Y-74239999D03*
D13*
X169049999Y-74239999D03*
G04 #@! TD*
D12*
G04 #@! TO.C,R19*
X130949999Y-66619999D03*
D13*
X141109999Y-66619999D03*
G04 #@! TD*
D12*
G04 #@! TO.C,R17*
X130949999Y-109799999D03*
D13*
X141109999Y-109799999D03*
G04 #@! TD*
D12*
G04 #@! TO.C,R18*
X141109999Y-70429999D03*
D13*
X130949999Y-70429999D03*
G04 #@! TD*
D12*
G04 #@! TO.C,C11*
X134759999Y-113609999D03*
X129759999Y-113609999D03*
G04 #@! TD*
D14*
G04 #@! TO.C,D3*
X138569999Y-97099999D03*
D13*
X130949999Y-97099999D03*
G04 #@! TD*
D15*
G04 #@! TO.C,Q1*
X130949999Y-142459999D03*
D16*
X133489999Y-142459999D03*
X136029999Y-142459999D03*
G04 #@! TD*
D12*
G04 #@! TO.C,R10*
X169049999Y-109799999D03*
D13*
X158889999Y-109799999D03*
G04 #@! TD*
D16*
G04 #@! TO.C,TP1*
X128409999Y-62809999D03*
G04 #@! TD*
D12*
G04 #@! TO.C,C7*
X141109999Y-113609999D03*
X138609999Y-113609999D03*
G04 #@! TD*
G04 #@! TO.C,R5*
X169049999Y-78049999D03*
D13*
X158889999Y-78049999D03*
G04 #@! TD*
D16*
G04 #@! TO.C,TP3*
X128409999Y-47569999D03*
G04 #@! TD*
D12*
G04 #@! TO.C,C8*
X161429999Y-113609999D03*
X158929999Y-113609999D03*
G04 #@! TD*
G04 #@! TO.C,C3*
X140999999Y-81859999D03*
X138499999Y-81859999D03*
G04 #@! TD*
G04 #@! TO.C,R26*
X169049999Y-125039999D03*
D13*
X158889999Y-125039999D03*
G04 #@! TD*
D15*
G04 #@! TO.C,TP2*
X128409999Y-55189999D03*
G04 #@! TD*
D12*
G04 #@! TO.C,R8*
X130949999Y-104719999D03*
D13*
X141109999Y-104719999D03*
G04 #@! TD*
D15*
G04 #@! TO.C,Q2*
X130949999Y-134839999D03*
D16*
X133489999Y-134839999D03*
X136029999Y-134839999D03*
G04 #@! TD*
D12*
G04 #@! TO.C,R16*
X141109999Y-74239999D03*
D13*
X130949999Y-74239999D03*
G04 #@! TD*
D17*
G04 #@! TO.C,U1*
X153799999Y-66609999D03*
D18*
X153799999Y-69149999D03*
X153799999Y-71689999D03*
X153799999Y-74229999D03*
X153799999Y-76769999D03*
X153799999Y-79309999D03*
X153799999Y-81849999D03*
X153799999Y-84389999D03*
X146179999Y-84389999D03*
X146179999Y-81849999D03*
X146179999Y-79309999D03*
X146179999Y-76769999D03*
X146179999Y-74229999D03*
X146179999Y-71689999D03*
X146179999Y-69149999D03*
X146179999Y-66609999D03*
G04 #@! TD*
D12*
G04 #@! TO.C,C6*
X136029999Y-159329999D03*
X141029999Y-159329999D03*
G04 #@! TD*
D17*
G04 #@! TO.C,U3*
X153799999Y-149179999D03*
D18*
X153799999Y-151719999D03*
X153799999Y-154259999D03*
X153799999Y-156799999D03*
X146179999Y-156799999D03*
X146179999Y-154259999D03*
X146179999Y-151719999D03*
X146179999Y-149179999D03*
G04 #@! TD*
D17*
G04 #@! TO.C,U2*
X146189999Y-125039999D03*
D18*
X146189999Y-122499999D03*
X146189999Y-119959999D03*
X146189999Y-117419999D03*
X146189999Y-114879999D03*
X146189999Y-112339999D03*
X146189999Y-109799999D03*
X153809999Y-109799999D03*
X153809999Y-112339999D03*
X153809999Y-114879999D03*
X153809999Y-117419999D03*
X153809999Y-119959999D03*
X153809999Y-122499999D03*
X153809999Y-125039999D03*
G04 #@! TD*
D12*
G04 #@! TO.C,C10*
X161429999Y-160599999D03*
X158929999Y-160599999D03*
G04 #@! TD*
G04 #@! TO.C,R28*
X169049999Y-154249999D03*
D13*
X158889999Y-154249999D03*
G04 #@! TD*
D19*
G04 #@! TO.C,D1*
X141109999Y-38679999D03*
D20*
X151269999Y-38679999D03*
G04 #@! TD*
D12*
G04 #@! TO.C,C9*
X146189999Y-145359999D03*
X143689999Y-145359999D03*
G04 #@! TD*
G04 #@! TO.C,R11*
X158889999Y-70429999D03*
D13*
X169049999Y-70429999D03*
G04 #@! TD*
D14*
G04 #@! TO.C,C1*
X132219999Y-41219999D03*
D12*
X134719999Y-41219999D03*
G04 #@! TD*
G04 #@! TO.C,R6*
X130949999Y-93289999D03*
D13*
X141109999Y-93289999D03*
G04 #@! TD*
D14*
G04 #@! TO.C,C2*
X156349999Y-41219999D03*
D12*
X158849999Y-41219999D03*
G04 #@! TD*
G04 #@! TO.C,R20*
X158889999Y-121229999D03*
D13*
X169049999Y-121229999D03*
G04 #@! TD*
D12*
G04 #@! TO.C,R21*
X158889999Y-117419999D03*
D13*
X169049999Y-117419999D03*
G04 #@! TD*
D12*
G04 #@! TO.C,R24*
X141109999Y-117419999D03*
D13*
X130949999Y-117419999D03*
G04 #@! TD*
D12*
G04 #@! TO.C,R15*
X130949999Y-78049999D03*
D13*
X141109999Y-78049999D03*
G04 #@! TD*
D19*
G04 #@! TO.C,D2*
X141109999Y-42489999D03*
D20*
X151269999Y-42489999D03*
G04 #@! TD*
D12*
G04 #@! TO.C,R23*
X141109999Y-121229999D03*
D13*
X130949999Y-121229999D03*
G04 #@! TD*
D12*
G04 #@! TO.C,R14*
X130949999Y-149169999D03*
D13*
X141109999Y-149169999D03*
G04 #@! TD*
D12*
G04 #@! TO.C,R12*
X130949999Y-154249999D03*
D13*
X141109999Y-154249999D03*
G04 #@! TD*
D12*
G04 #@! TO.C,R27*
X130949999Y-128849999D03*
D13*
X141109999Y-128849999D03*
G04 #@! TD*
D12*
G04 #@! TO.C,R22*
X141109999Y-125039999D03*
D13*
X130949999Y-125039999D03*
G04 #@! TD*
D12*
G04 #@! TO.C,R13*
X169049999Y-66619999D03*
D13*
X158889999Y-66619999D03*
G04 #@! TD*
D21*
G04 #@! TO.C,J4*
X155159999Y-160999999D03*
D22*
X152619999Y-160999999D03*
X150079999Y-160999999D03*
X147539999Y-160999999D03*
X144999999Y-160999999D03*
G04 #@! TD*
D12*
G04 #@! TO.C,C4*
X161499999Y-81499999D03*
X158999999Y-81499999D03*
G04 #@! TD*
G04 #@! TO.C,C5*
X165239999Y-113609999D03*
X170239999Y-113609999D03*
G04 #@! TD*
G04 #@! TO.C,R7*
X141109999Y-100909999D03*
D13*
X130949999Y-100909999D03*
G04 #@! TD*
D23*
G04 #@! TO.C,J1*
X165239999Y-56459999D03*
D24*
X167779999Y-56459999D03*
X165239999Y-53919999D03*
X167779999Y-53919999D03*
X165239999Y-51379999D03*
X167779999Y-51379999D03*
X165239999Y-48839999D03*
X167779999Y-48839999D03*
X165239999Y-46299999D03*
X167779999Y-46299999D03*
G04 #@! TD*
D12*
G04 #@! TO.C,R25*
X158889999Y-149169999D03*
D13*
X169049999Y-149169999D03*
G04 #@! TD*
M02*
