G04 #@! TF.GenerationSoftware,KiCad,Pcbnew,6.0.4-6f826c9f35~116~ubuntu20.04.1*
G04 #@! TF.CreationDate,2022-04-19T12:37:51-04:00*
G04 #@! TF.ProjectId,vcapf_panel,76636170-665f-4706-916e-656c2e6b6963,rev?*
G04 #@! TF.SameCoordinates,Original*
G04 #@! TF.FileFunction,Legend,Top*
G04 #@! TF.FilePolarity,Positive*
%FSLAX46Y46*%
G04 Gerber Fmt 4.6, Leading zero omitted, Abs format (unit mm)*
G04 Created by KiCad (PCBNEW 6.0.4-6f826c9f35~116~ubuntu20.04.1) date 2022-04-19 12:37:51*
%MOMM*%
%LPD*%
G01*
G04 APERTURE LIST*
G04 APERTURE END LIST*
G04 #@! TO.C,GRAF2*
G36*
X66144044Y-198089089D02*
G01*
X16081382Y-198089089D01*
X16081382Y-197300901D01*
X66144044Y-197300901D01*
X66144044Y-198089089D01*
G37*
G36*
X40102052Y-55681474D02*
G01*
X40311873Y-55687860D01*
X40488245Y-55708871D01*
X40647315Y-55747886D01*
X40805227Y-55808285D01*
X40883884Y-55845143D01*
X41119658Y-55987174D01*
X41319812Y-56162203D01*
X41481612Y-56365935D01*
X41602321Y-56594076D01*
X41679206Y-56842329D01*
X41709530Y-57106401D01*
X41709909Y-57142229D01*
X41685006Y-57409336D01*
X41611778Y-57661561D01*
X41491235Y-57896352D01*
X41328829Y-58106358D01*
X41243197Y-58190256D01*
X41140265Y-58277881D01*
X41033363Y-58359087D01*
X40935818Y-58423722D01*
X40863444Y-58460727D01*
X40851660Y-58482228D01*
X40878840Y-58518028D01*
X40936837Y-58563283D01*
X41017507Y-58613150D01*
X41112702Y-58662785D01*
X41214278Y-58707343D01*
X41314087Y-58741981D01*
X41354254Y-58752578D01*
X41448362Y-58771438D01*
X41559616Y-58789492D01*
X41614865Y-58796881D01*
X41761061Y-58814468D01*
X41761061Y-59426130D01*
X41562156Y-59409542D01*
X41244842Y-59358740D01*
X40943837Y-59260158D01*
X40656453Y-59112879D01*
X40614691Y-59086747D01*
X40547040Y-59045232D01*
X40497340Y-59018096D01*
X40481208Y-59012012D01*
X40473386Y-59035428D01*
X40467495Y-59097654D01*
X40464533Y-59186659D01*
X40464364Y-59215416D01*
X40464364Y-59418819D01*
X39879580Y-59418819D01*
X39879580Y-57375164D01*
X40464165Y-57375164D01*
X40464456Y-57560588D01*
X40466572Y-57703863D01*
X40471845Y-57809339D01*
X40481611Y-57881362D01*
X40497203Y-57924280D01*
X40519955Y-57942441D01*
X40551200Y-57940193D01*
X40592273Y-57921884D01*
X40644508Y-57891861D01*
X40686500Y-57867308D01*
X40848746Y-57746588D01*
X40972279Y-57594900D01*
X41054681Y-57416897D01*
X41093531Y-57217229D01*
X41094585Y-57082900D01*
X41060107Y-56878192D01*
X40982656Y-56700665D01*
X40862063Y-56550044D01*
X40698161Y-56426058D01*
X40682460Y-56416872D01*
X40623099Y-56382090D01*
X40575572Y-56356036D01*
X40538569Y-56343068D01*
X40510781Y-56347549D01*
X40490899Y-56373838D01*
X40477613Y-56426295D01*
X40469615Y-56509282D01*
X40465595Y-56627159D01*
X40464243Y-56784286D01*
X40464251Y-56985023D01*
X40464364Y-57143244D01*
X40464165Y-57375164D01*
X39879580Y-57375164D01*
X39879580Y-55681282D01*
X40102052Y-55681474D01*
G37*
G36*
X31667167Y-138746147D02*
G01*
X32785886Y-138746147D01*
X32785886Y-139356357D01*
X31056957Y-139356357D01*
X31056957Y-135618819D01*
X31667167Y-135618819D01*
X31667167Y-138746147D01*
G37*
G36*
X58287588Y-169663464D02*
G01*
X57677377Y-169663464D01*
X57677377Y-166917837D01*
X57569319Y-166838188D01*
X57478704Y-166779524D01*
X57363159Y-166715732D01*
X57242209Y-166656689D01*
X57135380Y-166612275D01*
X57098949Y-166600221D01*
X57041742Y-166583561D01*
X57041742Y-169663464D01*
X56431202Y-169663464D01*
X56437723Y-167801051D01*
X56444244Y-165938639D01*
X56723924Y-165945452D01*
X57051785Y-165974726D01*
X57353143Y-166045649D01*
X57535428Y-166114605D01*
X57674753Y-166176222D01*
X57682422Y-166057430D01*
X57690090Y-165938639D01*
X58287588Y-165924313D01*
X58287588Y-169663464D01*
G37*
G36*
X42848967Y-62424561D02*
G01*
X42841642Y-63906407D01*
X42762169Y-64071672D01*
X42639724Y-64274767D01*
X42487216Y-64436908D01*
X42304141Y-64558514D01*
X42089996Y-64640007D01*
X42079894Y-64642668D01*
X41907344Y-64674659D01*
X41747910Y-64673482D01*
X41583700Y-64641123D01*
X41481595Y-64607275D01*
X41380273Y-64563776D01*
X41339620Y-64542260D01*
X41226586Y-64459089D01*
X41109964Y-64345115D01*
X41003475Y-64216112D01*
X40920839Y-64087856D01*
X40892396Y-64028057D01*
X40833033Y-63880981D01*
X40825702Y-62412663D01*
X40818370Y-60944345D01*
X41430531Y-60944345D01*
X41430531Y-62343756D01*
X41430594Y-62646528D01*
X41430878Y-62902693D01*
X41431527Y-63116494D01*
X41432682Y-63292177D01*
X41434485Y-63433983D01*
X41437079Y-63546158D01*
X41440608Y-63632945D01*
X41445212Y-63698588D01*
X41451034Y-63747330D01*
X41458217Y-63783415D01*
X41466904Y-63811088D01*
X41477236Y-63834592D01*
X41480806Y-63841715D01*
X41560552Y-63955548D01*
X41664002Y-64026041D01*
X41796494Y-64056404D01*
X41840765Y-64058159D01*
X41965390Y-64045768D01*
X42064060Y-64001721D01*
X42152205Y-63918070D01*
X42179010Y-63883922D01*
X42190237Y-63867583D01*
X42199786Y-63848299D01*
X42207836Y-63821955D01*
X42214565Y-63784439D01*
X42220153Y-63731638D01*
X42224778Y-63659438D01*
X42228619Y-63563726D01*
X42231855Y-63440390D01*
X42234664Y-63285316D01*
X42237225Y-63094391D01*
X42239718Y-62863502D01*
X42242320Y-62588535D01*
X42244144Y-62385393D01*
X42256857Y-60957057D01*
X42556575Y-60949886D01*
X42856293Y-60942714D01*
X42848967Y-62424561D01*
G37*
G36*
X46108809Y-56291492D02*
G01*
X44786687Y-56291492D01*
X44786687Y-56494895D01*
X46134234Y-56494895D01*
X46134234Y-57130531D01*
X44786687Y-57130531D01*
X44786834Y-57353003D01*
X44789889Y-57477834D01*
X44797830Y-57604745D01*
X44809057Y-57709390D01*
X44811219Y-57723471D01*
X44873376Y-57950915D01*
X44979438Y-58161061D01*
X45123986Y-58348970D01*
X45301600Y-58509703D01*
X45506861Y-58638322D01*
X45734347Y-58729888D01*
X45968969Y-58778390D01*
X46121522Y-58795896D01*
X46128661Y-59107358D01*
X46135799Y-59418819D01*
X46026959Y-59415647D01*
X45932171Y-59409643D01*
X45824973Y-59398392D01*
X45790395Y-59393701D01*
X45496429Y-59325403D01*
X45219969Y-59211332D01*
X44965612Y-59054896D01*
X44737954Y-58859506D01*
X44541592Y-58628572D01*
X44381120Y-58365505D01*
X44367366Y-58337853D01*
X44302119Y-58188458D01*
X44253777Y-58037745D01*
X44219643Y-57873069D01*
X44197020Y-57681786D01*
X44184435Y-57480131D01*
X44168931Y-57130531D01*
X43973073Y-57130531D01*
X43973073Y-56494895D01*
X44175185Y-56494895D01*
X44182187Y-56094445D01*
X44189189Y-55693994D01*
X46108809Y-55680670D01*
X46108809Y-56291492D01*
G37*
G36*
X57808344Y-200985432D02*
G01*
X57941600Y-200987052D01*
X58042548Y-200989773D01*
X58115824Y-200993758D01*
X58166061Y-200999172D01*
X58197897Y-201006181D01*
X58215965Y-201014948D01*
X58223401Y-201022981D01*
X58234152Y-201079234D01*
X58221217Y-201108359D01*
X58200423Y-201128583D01*
X58161777Y-201143024D01*
X58096272Y-201153302D01*
X57994898Y-201161042D01*
X57903529Y-201165566D01*
X57613814Y-201178279D01*
X57607269Y-202799150D01*
X57600725Y-204420020D01*
X56635311Y-204420020D01*
X56628767Y-202799150D01*
X56622222Y-201178279D01*
X56462956Y-201170700D01*
X56347810Y-201170985D01*
X56226605Y-201179976D01*
X56164092Y-201188927D01*
X56057849Y-201203495D01*
X55989783Y-201198585D01*
X55950439Y-201172532D01*
X55937793Y-201149046D01*
X55937737Y-201087632D01*
X55979167Y-201035635D01*
X56052760Y-201004517D01*
X56055818Y-201003944D01*
X56099020Y-201000582D01*
X56187129Y-200997314D01*
X56314204Y-200994238D01*
X56474301Y-200991451D01*
X56661478Y-200989053D01*
X56869791Y-200987142D01*
X57093297Y-200985817D01*
X57168376Y-200985528D01*
X57426367Y-200984834D01*
X57638145Y-200984748D01*
X57808344Y-200985432D01*
G37*
G36*
X35754304Y-95579825D02*
G01*
X36714114Y-95586487D01*
X36721277Y-95885236D01*
X36728441Y-96183984D01*
X35404705Y-96183984D01*
X35404705Y-96386543D01*
X36072122Y-96393322D01*
X36739540Y-96400101D01*
X36739540Y-97010311D01*
X36072122Y-97017089D01*
X35404705Y-97023868D01*
X35404705Y-97297783D01*
X35416209Y-97542809D01*
X35453266Y-97752009D01*
X35519688Y-97935524D01*
X35619289Y-98103499D01*
X35755883Y-98266078D01*
X35776884Y-98287678D01*
X35927972Y-98420646D01*
X36093639Y-98524476D01*
X36283507Y-98603554D01*
X36507196Y-98662265D01*
X36656907Y-98688818D01*
X36752252Y-98703406D01*
X36752252Y-99311312D01*
X36618769Y-99308339D01*
X36508164Y-99301764D01*
X36389596Y-99288801D01*
X36351485Y-99283078D01*
X36066518Y-99210080D01*
X35795604Y-99089302D01*
X35542592Y-98922783D01*
X35351749Y-98754101D01*
X35150208Y-98521211D01*
X34993554Y-98268843D01*
X34881364Y-98001902D01*
X34853287Y-97912376D01*
X34833155Y-97828726D01*
X34819202Y-97738114D01*
X34809663Y-97627700D01*
X34802773Y-97484644D01*
X34800255Y-97412059D01*
X34787766Y-97025618D01*
X34683072Y-97017965D01*
X34578378Y-97010311D01*
X34578378Y-96400101D01*
X34686437Y-96392282D01*
X34794495Y-96384464D01*
X34794495Y-95573163D01*
X35754304Y-95579825D01*
G37*
G36*
X45671386Y-60951207D02*
G01*
X45806364Y-60961552D01*
X45942872Y-60977412D01*
X46060416Y-60996184D01*
X46109974Y-61006911D01*
X46221541Y-61037960D01*
X46336789Y-61075010D01*
X46442819Y-61113367D01*
X46526730Y-61148340D01*
X46575621Y-61175234D01*
X46577908Y-61177138D01*
X46612831Y-61197021D01*
X46633294Y-61177275D01*
X46641970Y-61113540D01*
X46642743Y-61071472D01*
X46642743Y-60944345D01*
X47227528Y-60944345D01*
X47227528Y-64681882D01*
X46642743Y-64681882D01*
X46642743Y-61965324D01*
X46534685Y-61872823D01*
X46442312Y-61805432D01*
X46323333Y-61734357D01*
X46198119Y-61670626D01*
X46087043Y-61625270D01*
X46064514Y-61618277D01*
X46007505Y-61602105D01*
X46000950Y-63135638D01*
X45994395Y-64669170D01*
X45396897Y-64683496D01*
X45396897Y-60936727D01*
X45671386Y-60951207D01*
G37*
G36*
X66144044Y-17899099D02*
G01*
X16081382Y-17899099D01*
X16081382Y-17110911D01*
X66144044Y-17110911D01*
X66144044Y-17899099D01*
G37*
G36*
X39752453Y-103632661D02*
G01*
X40318168Y-103639504D01*
X40883884Y-103646347D01*
X40891047Y-103945095D01*
X40898210Y-104243844D01*
X39142242Y-104243844D01*
X39142242Y-100531732D01*
X39752453Y-100531732D01*
X39752453Y-103632661D01*
G37*
G36*
X50049750Y-138746147D02*
G01*
X51168469Y-138746147D01*
X51168469Y-139356357D01*
X49439540Y-139356357D01*
X49439540Y-135618819D01*
X50049750Y-135618819D01*
X50049750Y-138746147D01*
G37*
G36*
X50354855Y-61014656D02*
G01*
X50395914Y-61065176D01*
X50457141Y-61145136D01*
X50529384Y-61242431D01*
X50585713Y-61320082D01*
X50753008Y-61553206D01*
X50975129Y-61248776D01*
X51197250Y-60944345D01*
X51565741Y-60944345D01*
X51714182Y-60945268D01*
X51817583Y-60948390D01*
X51881730Y-60954235D01*
X51912407Y-60963330D01*
X51915441Y-60976127D01*
X51896137Y-61004396D01*
X51851062Y-61068269D01*
X51784224Y-61162132D01*
X51699633Y-61280372D01*
X51601298Y-61417373D01*
X51493228Y-61567522D01*
X51481950Y-61583170D01*
X51067250Y-62158431D01*
X51060652Y-63413800D01*
X51054054Y-64669170D01*
X50755305Y-64676333D01*
X50456557Y-64683496D01*
X50456557Y-62184774D01*
X50011785Y-61570916D01*
X49567013Y-60957057D01*
X50291291Y-60942355D01*
X50354855Y-61014656D01*
G37*
G36*
X40135935Y-13558317D02*
G01*
X40171805Y-13562710D01*
X40277874Y-13578616D01*
X40873271Y-12128851D01*
X40978799Y-11872414D01*
X41078787Y-11630441D01*
X41171549Y-11406950D01*
X41255397Y-11205956D01*
X41328645Y-11031475D01*
X41389606Y-10887525D01*
X41436593Y-10778122D01*
X41467919Y-10707282D01*
X41481897Y-10679021D01*
X41482326Y-10678682D01*
X41495542Y-10701012D01*
X41527837Y-10765302D01*
X41577220Y-10867233D01*
X41641696Y-11002485D01*
X41719272Y-11166739D01*
X41807954Y-11355676D01*
X41905749Y-11564977D01*
X42010663Y-11790322D01*
X42120704Y-12027394D01*
X42233877Y-12271872D01*
X42348189Y-12519437D01*
X42461648Y-12765771D01*
X42572258Y-13006553D01*
X42678028Y-13237466D01*
X42776962Y-13454190D01*
X42867069Y-13652405D01*
X42946355Y-13827794D01*
X43012825Y-13976035D01*
X43064488Y-14092812D01*
X43099348Y-14173803D01*
X43115414Y-14214691D01*
X43116208Y-14218769D01*
X43088889Y-14224095D01*
X43017832Y-14228848D01*
X42910150Y-14232809D01*
X42772954Y-14235759D01*
X42613355Y-14237481D01*
X42495726Y-14237838D01*
X41885845Y-14237838D01*
X41678445Y-13805606D01*
X41166750Y-13805385D01*
X41001064Y-13804550D01*
X40844226Y-13802355D01*
X40706567Y-13799053D01*
X40598418Y-13794895D01*
X40530108Y-13790133D01*
X40527262Y-13789805D01*
X40399469Y-13774445D01*
X40328334Y-13948935D01*
X40275865Y-14072534D01*
X40233979Y-14155602D01*
X40196909Y-14205757D01*
X40158884Y-14230617D01*
X40114135Y-14237799D01*
X40109536Y-14237838D01*
X40044579Y-14222803D01*
X40020223Y-14189518D01*
X40024526Y-14137149D01*
X40056800Y-14052404D01*
X40094786Y-13977647D01*
X40138465Y-13896381D01*
X40170431Y-13833476D01*
X40184494Y-13801169D01*
X40184685Y-13799894D01*
X40163287Y-13783799D01*
X40122899Y-13770186D01*
X40059419Y-13742125D01*
X40006288Y-13699316D01*
X39981507Y-13656650D01*
X39981281Y-13653053D01*
X39997466Y-13619744D01*
X40023509Y-13589032D01*
X40039315Y-13579502D01*
X40489790Y-13579502D01*
X40507017Y-13590496D01*
X40560612Y-13599729D01*
X40653442Y-13607372D01*
X40788374Y-13613598D01*
X40968278Y-13618579D01*
X41196020Y-13622487D01*
X41208058Y-13622648D01*
X41339581Y-13623111D01*
X41450948Y-13621056D01*
X41533301Y-13616841D01*
X41577780Y-13610822D01*
X41583083Y-13607524D01*
X41572797Y-13579369D01*
X41544086Y-13512415D01*
X41500175Y-13413877D01*
X41444288Y-13290969D01*
X41379648Y-13150906D01*
X41364376Y-13118084D01*
X41292082Y-12962769D01*
X41221774Y-12811401D01*
X41158291Y-12674423D01*
X41106471Y-12562275D01*
X41071154Y-12485399D01*
X41070280Y-12483484D01*
X40994891Y-12318219D01*
X40742341Y-12938671D01*
X40674814Y-13105312D01*
X40614098Y-13256574D01*
X40562716Y-13386051D01*
X40523193Y-13487341D01*
X40498053Y-13554039D01*
X40489790Y-13579502D01*
X40039315Y-13579502D01*
X40068733Y-13561764D01*
X40135935Y-13558317D01*
G37*
G36*
X32277377Y-61553582D02*
G01*
X31711662Y-61560425D01*
X31145946Y-61567268D01*
X31130164Y-61757958D01*
X32328228Y-61757958D01*
X32328228Y-62393594D01*
X31133233Y-62393594D01*
X31133233Y-64681882D01*
X30523023Y-64681882D01*
X30523023Y-62393594D01*
X30294194Y-62393594D01*
X30294194Y-61757958D01*
X30521732Y-61757958D01*
X30528734Y-61357508D01*
X30535736Y-60957057D01*
X31406557Y-60950367D01*
X32277377Y-60943677D01*
X32277377Y-61553582D01*
G37*
G36*
X50939640Y-166561562D02*
G01*
X50817127Y-166561562D01*
X50619094Y-166584869D01*
X50415982Y-166650597D01*
X50217309Y-166752458D01*
X50032595Y-166884162D01*
X49871357Y-167039421D01*
X49743116Y-167211944D01*
X49693894Y-167303677D01*
X49615794Y-167526323D01*
X49585133Y-167750924D01*
X49598965Y-167972561D01*
X49654344Y-168186316D01*
X49748324Y-168387271D01*
X49877961Y-168570507D01*
X50040308Y-168731106D01*
X50232419Y-168864149D01*
X50451350Y-168964718D01*
X50694153Y-169027895D01*
X50729880Y-169033475D01*
X50939640Y-169063607D01*
X50939640Y-169663464D01*
X50780731Y-169661391D01*
X50667834Y-169654341D01*
X50538032Y-169638193D01*
X50443844Y-169621332D01*
X50255854Y-169566217D01*
X50053848Y-169481407D01*
X49856833Y-169375875D01*
X49696943Y-169268668D01*
X49499425Y-169090712D01*
X49322950Y-168876277D01*
X49175530Y-168637653D01*
X49065176Y-168387130D01*
X49017867Y-168226927D01*
X48992705Y-168078328D01*
X48978644Y-167904925D01*
X48975980Y-167725392D01*
X48985008Y-167558407D01*
X49005227Y-167426026D01*
X49045548Y-167296471D01*
X49109069Y-167143208D01*
X49187670Y-166982593D01*
X49273233Y-166830979D01*
X49357637Y-166704723D01*
X49373538Y-166684113D01*
X49574688Y-166470221D01*
X49810631Y-166286625D01*
X50072542Y-166138081D01*
X50351596Y-166029346D01*
X50638968Y-165965177D01*
X50725682Y-165955311D01*
X50939640Y-165936551D01*
X50939640Y-166561562D01*
G37*
G36*
X35993576Y-57289884D02*
G01*
X36018524Y-57132599D01*
X36025316Y-57105106D01*
X36127246Y-56819478D01*
X36272397Y-56555314D01*
X36456088Y-56317295D01*
X36673637Y-56110102D01*
X36920363Y-55938416D01*
X37191583Y-55806918D01*
X37387888Y-55742771D01*
X37521517Y-55717738D01*
X37685274Y-55702642D01*
X37861125Y-55697758D01*
X38031034Y-55703363D01*
X38176967Y-55719732D01*
X38226927Y-55729921D01*
X38513380Y-55825441D01*
X38780473Y-55965155D01*
X39023217Y-56144481D01*
X39236623Y-56358836D01*
X39415700Y-56603636D01*
X39555462Y-56874298D01*
X39600129Y-56991357D01*
X39668356Y-57266167D01*
X39688998Y-57549430D01*
X39663276Y-57835320D01*
X39592409Y-58118013D01*
X39477618Y-58391684D01*
X39320123Y-58650510D01*
X39227287Y-58770685D01*
X39069696Y-58929842D01*
X38875733Y-59078149D01*
X38659843Y-59206646D01*
X38436467Y-59306373D01*
X38288767Y-59352900D01*
X38137159Y-59381925D01*
X37961638Y-59400330D01*
X37783253Y-59406945D01*
X37623050Y-59400602D01*
X37562549Y-59393217D01*
X37272196Y-59322211D01*
X36999076Y-59206191D01*
X36747880Y-59049424D01*
X36523301Y-58856176D01*
X36330029Y-58630715D01*
X36172758Y-58377306D01*
X36056179Y-58100217D01*
X36024944Y-57994995D01*
X35997412Y-57844968D01*
X35983012Y-57664892D01*
X35982246Y-57550050D01*
X36574274Y-57550050D01*
X36598504Y-57779257D01*
X36667636Y-58002177D01*
X36776331Y-58211139D01*
X36919253Y-58398471D01*
X37091062Y-58556502D01*
X37286423Y-58677560D01*
X37388973Y-58721000D01*
X37609016Y-58782587D01*
X37820141Y-58801694D01*
X38039407Y-58779559D01*
X38081234Y-58771252D01*
X38308343Y-58698982D01*
X38515008Y-58586096D01*
X38696734Y-58438559D01*
X38849027Y-58262338D01*
X38967389Y-58063398D01*
X39047325Y-57847704D01*
X39084339Y-57621223D01*
X39080915Y-57444730D01*
X39031710Y-57198841D01*
X38938460Y-56973320D01*
X38805417Y-56772631D01*
X38636837Y-56601242D01*
X38436975Y-56463616D01*
X38210084Y-56364219D01*
X38003449Y-56313816D01*
X37773106Y-56300889D01*
X37548388Y-56334244D01*
X37334575Y-56409313D01*
X37136948Y-56521528D01*
X36960787Y-56666321D01*
X36811374Y-56839124D01*
X36693989Y-57035371D01*
X36613913Y-57250491D01*
X36576426Y-57479919D01*
X36574274Y-57550050D01*
X35982246Y-57550050D01*
X35981736Y-57473589D01*
X35993576Y-57289884D01*
G37*
G36*
X29674240Y-203754760D02*
G01*
X29675228Y-203754826D01*
X29757389Y-203760359D01*
X30192618Y-202431181D01*
X30275507Y-202177991D01*
X30354675Y-201936070D01*
X30428514Y-201710340D01*
X30495415Y-201505722D01*
X30553770Y-201327141D01*
X30601969Y-201179518D01*
X30638404Y-201067777D01*
X30661466Y-200996840D01*
X30667698Y-200977529D01*
X30695771Y-200904196D01*
X30717350Y-200880433D01*
X30726825Y-200888540D01*
X30738560Y-200917728D01*
X30766337Y-200990794D01*
X30808719Y-201103864D01*
X30864273Y-201253062D01*
X30931562Y-201434513D01*
X31009152Y-201644342D01*
X31095607Y-201878673D01*
X31189492Y-202133633D01*
X31289372Y-202405345D01*
X31375587Y-202640241D01*
X31479212Y-202922756D01*
X31577845Y-203191656D01*
X31670069Y-203443078D01*
X31754467Y-203673156D01*
X31829621Y-203878026D01*
X31894113Y-204053825D01*
X31946527Y-204196688D01*
X31985443Y-204302751D01*
X32009446Y-204368149D01*
X32017029Y-204388786D01*
X32011383Y-204400072D01*
X31981273Y-204408154D01*
X31921344Y-204413309D01*
X31826237Y-204415814D01*
X31690596Y-204415946D01*
X31525482Y-204414211D01*
X31021980Y-204407308D01*
X30947003Y-204197548D01*
X30872027Y-203987788D01*
X29846546Y-203987788D01*
X29787820Y-204172123D01*
X29736076Y-204310968D01*
X29684752Y-204402486D01*
X29634715Y-204445633D01*
X29586835Y-204439371D01*
X29573807Y-204428496D01*
X29557320Y-204377192D01*
X29570967Y-204289676D01*
X29614032Y-204170157D01*
X29620421Y-204155492D01*
X29653883Y-204076944D01*
X29676910Y-204017376D01*
X29683984Y-203992637D01*
X29662823Y-203971461D01*
X29611508Y-203946178D01*
X29607708Y-203944720D01*
X29550164Y-203910457D01*
X29531601Y-203859192D01*
X29531432Y-203851657D01*
X29544903Y-203789953D01*
X29571835Y-203771672D01*
X29918523Y-203771672D01*
X29985588Y-203787733D01*
X30038489Y-203794818D01*
X30124302Y-203800227D01*
X30232920Y-203803953D01*
X30354231Y-203805987D01*
X30478126Y-203806321D01*
X30594496Y-203804949D01*
X30693231Y-203801863D01*
X30764221Y-203797054D01*
X30797356Y-203790515D01*
X30798465Y-203788352D01*
X30787709Y-203759562D01*
X30761824Y-203689641D01*
X30723243Y-203585179D01*
X30674398Y-203452767D01*
X30617722Y-203298997D01*
X30563692Y-203152305D01*
X30502235Y-202987483D01*
X30445953Y-202840506D01*
X30397308Y-202717488D01*
X30358764Y-202624540D01*
X30332783Y-202567777D01*
X30322151Y-202552702D01*
X30310456Y-202580087D01*
X30285601Y-202649199D01*
X30249870Y-202753312D01*
X30205544Y-202885704D01*
X30154905Y-203039651D01*
X30112715Y-203169680D01*
X29918523Y-203771672D01*
X29571835Y-203771672D01*
X29590110Y-203759267D01*
X29674240Y-203754760D01*
G37*
G36*
X29026980Y-202932633D02*
G01*
X29018682Y-201979180D01*
X29017338Y-201763066D01*
X29017122Y-201562436D01*
X29017962Y-201383097D01*
X29019786Y-201230857D01*
X29022523Y-201111523D01*
X29026100Y-201030903D01*
X29030445Y-200994804D01*
X29030867Y-200993944D01*
X29066803Y-200964418D01*
X29111901Y-200981040D01*
X29135521Y-201002117D01*
X29143393Y-201014181D01*
X29150174Y-201035848D01*
X29155942Y-201070667D01*
X29160777Y-201122185D01*
X29164759Y-201193948D01*
X29167968Y-201289506D01*
X29170483Y-201412404D01*
X29172384Y-201566192D01*
X29173751Y-201754415D01*
X29174662Y-201980622D01*
X29175199Y-202248361D01*
X29175440Y-202561178D01*
X29175476Y-202781897D01*
X29175204Y-203074200D01*
X29174421Y-203351060D01*
X29173171Y-203608364D01*
X29171499Y-203842001D01*
X29169449Y-204047860D01*
X29167068Y-204221830D01*
X29164401Y-204359799D01*
X29161491Y-204457657D01*
X29158385Y-204511292D01*
X29156407Y-204520537D01*
X29135251Y-204502977D01*
X29081231Y-204452882D01*
X28997656Y-204373454D01*
X28887838Y-204267894D01*
X28755086Y-204139404D01*
X28602713Y-203991185D01*
X28434027Y-203826439D01*
X28252342Y-203648368D01*
X28120320Y-203518607D01*
X27103303Y-202517864D01*
X27090591Y-203454986D01*
X27086857Y-203712124D01*
X27082951Y-203922648D01*
X27078344Y-204090796D01*
X27072509Y-204220804D01*
X27064917Y-204316908D01*
X27055040Y-204383346D01*
X27042351Y-204424354D01*
X27026320Y-204444168D01*
X27006419Y-204447024D01*
X26982121Y-204437160D01*
X26969120Y-204429391D01*
X26943218Y-204399992D01*
X26929844Y-204345433D01*
X26926145Y-204253498D01*
X26926173Y-204245628D01*
X26926408Y-204192934D01*
X26926796Y-204094217D01*
X26927320Y-203954307D01*
X26927963Y-203778031D01*
X26928707Y-203570218D01*
X26929536Y-203335697D01*
X26930431Y-203079295D01*
X26931377Y-202805841D01*
X26932354Y-202520164D01*
X26932529Y-202468735D01*
X26938038Y-200847981D01*
X29026980Y-202932633D01*
G37*
G36*
X36643724Y-36901318D02*
G01*
X36724224Y-36461256D01*
X36849931Y-36036431D01*
X37022660Y-35619826D01*
X37095224Y-35473369D01*
X37334342Y-35063104D01*
X37608644Y-34686932D01*
X37914909Y-34345927D01*
X38249916Y-34041162D01*
X38610445Y-33773712D01*
X38993275Y-33544649D01*
X39395186Y-33355047D01*
X39812956Y-33205980D01*
X40243365Y-33098521D01*
X40683193Y-33033744D01*
X41129218Y-33012722D01*
X41578221Y-33036529D01*
X42026980Y-33106238D01*
X42472274Y-33222923D01*
X42910883Y-33387658D01*
X43095896Y-33473175D01*
X43509035Y-33703181D01*
X43892876Y-33973216D01*
X44245031Y-34280162D01*
X44563109Y-34620901D01*
X44844722Y-34992314D01*
X45087479Y-35391282D01*
X45288991Y-35814687D01*
X45446869Y-36259409D01*
X45549769Y-36675776D01*
X45597608Y-37000098D01*
X45620684Y-37352915D01*
X45619134Y-37718387D01*
X45593098Y-38080671D01*
X45542711Y-38423925D01*
X45534222Y-38467103D01*
X45446097Y-38809125D01*
X45320427Y-39163646D01*
X45163462Y-39517324D01*
X44981453Y-39856818D01*
X44780651Y-40168787D01*
X44664049Y-40324325D01*
X44570487Y-40434418D01*
X44450088Y-40565149D01*
X44314878Y-40704362D01*
X44176885Y-40839905D01*
X44048136Y-40959622D01*
X43960360Y-41035436D01*
X43591128Y-41306367D01*
X43193357Y-41537776D01*
X42772383Y-41728066D01*
X42333543Y-41875638D01*
X41882176Y-41978894D01*
X41423617Y-42036236D01*
X40963205Y-42046066D01*
X40655055Y-42025140D01*
X40197902Y-41952121D01*
X39744259Y-41830211D01*
X39300459Y-41661290D01*
X39078679Y-41557006D01*
X38669006Y-41323361D01*
X38288076Y-41049457D01*
X37938720Y-40738559D01*
X37623764Y-40393931D01*
X37346039Y-40018840D01*
X37108372Y-39616549D01*
X36913594Y-39190325D01*
X36831001Y-38962738D01*
X36731347Y-38628065D01*
X36661688Y-38308543D01*
X36619750Y-37987967D01*
X36603259Y-37650132D01*
X36603456Y-37633288D01*
X36628208Y-37633288D01*
X36663739Y-38109394D01*
X36726967Y-38487554D01*
X36844690Y-38929366D01*
X37008550Y-39354487D01*
X37215650Y-39759682D01*
X37463090Y-40141718D01*
X37747971Y-40497361D01*
X38067393Y-40823378D01*
X38418458Y-41116534D01*
X38798265Y-41373598D01*
X39203917Y-41591334D01*
X39632514Y-41766509D01*
X39681909Y-41783366D01*
X40142716Y-41912348D01*
X40603661Y-41990732D01*
X41066588Y-42018740D01*
X41480138Y-42001625D01*
X41957360Y-41934738D01*
X42417629Y-41821129D01*
X42858276Y-41662650D01*
X43276633Y-41461154D01*
X43670032Y-41218494D01*
X44035805Y-40936522D01*
X44371283Y-40617090D01*
X44673799Y-40262051D01*
X44940683Y-39873256D01*
X45169268Y-39452560D01*
X45177889Y-39434435D01*
X45355714Y-39000482D01*
X45484539Y-38553786D01*
X45564511Y-38093606D01*
X45595780Y-37619202D01*
X45592710Y-37363156D01*
X45561206Y-36947371D01*
X45497472Y-36559809D01*
X45398158Y-36186837D01*
X45259911Y-35814824D01*
X45155003Y-35582483D01*
X44927630Y-35165742D01*
X44661089Y-34780245D01*
X44357634Y-34427744D01*
X44019520Y-34109989D01*
X43649003Y-33828732D01*
X43248337Y-33585725D01*
X42819779Y-33382718D01*
X42365584Y-33221463D01*
X41989890Y-33124693D01*
X41897655Y-33105832D01*
X41811792Y-33091520D01*
X41723056Y-33081149D01*
X41622204Y-33074108D01*
X41499991Y-33069788D01*
X41347174Y-33067580D01*
X41154510Y-33066873D01*
X41112713Y-33066859D01*
X40911284Y-33067353D01*
X40751451Y-33069243D01*
X40623963Y-33073135D01*
X40519571Y-33079637D01*
X40429025Y-33089358D01*
X40343077Y-33102906D01*
X40252475Y-33120889D01*
X40235536Y-33124519D01*
X39760692Y-33251781D01*
X39309839Y-33422676D01*
X38884986Y-33635880D01*
X38488141Y-33890070D01*
X38121315Y-34183923D01*
X37786517Y-34516114D01*
X37485756Y-34885320D01*
X37417989Y-34980549D01*
X37170130Y-35382302D01*
X36967916Y-35804496D01*
X36811983Y-36243910D01*
X36702964Y-36697327D01*
X36641494Y-37161525D01*
X36628208Y-37633288D01*
X36603456Y-37633288D01*
X36606618Y-37363636D01*
X36643724Y-36901318D01*
G37*
G36*
X49273408Y-200985603D02*
G01*
X49464737Y-200986599D01*
X49629665Y-200988291D01*
X49762729Y-200990615D01*
X49858465Y-200993507D01*
X49911410Y-200996903D01*
X49919990Y-200998673D01*
X49946378Y-201039747D01*
X49932215Y-201094967D01*
X49908094Y-201125612D01*
X49878153Y-201144278D01*
X49826902Y-201156381D01*
X49745204Y-201163069D01*
X49623926Y-201165492D01*
X49590276Y-201165566D01*
X49312413Y-201165566D01*
X49312413Y-204420020D01*
X48320821Y-204420020D01*
X48320821Y-201165566D01*
X48160225Y-201165566D01*
X48042782Y-201170396D01*
X47917750Y-201182755D01*
X47853322Y-201192612D01*
X47741812Y-201204679D01*
X47671775Y-201190803D01*
X47640246Y-201149763D01*
X47639464Y-201104465D01*
X47645567Y-201077921D01*
X47658478Y-201055831D01*
X47682553Y-201037762D01*
X47722147Y-201023282D01*
X47781614Y-201011958D01*
X47865308Y-201003359D01*
X47977585Y-200997052D01*
X48122799Y-200992605D01*
X48305305Y-200989586D01*
X48529458Y-200987563D01*
X48799612Y-200986102D01*
X48833401Y-200985952D01*
X49061142Y-200985366D01*
X49273408Y-200985603D01*
G37*
G36*
X47297585Y-200976610D02*
G01*
X47311079Y-201001497D01*
X47321289Y-201046954D01*
X47328585Y-201117090D01*
X47333340Y-201216012D01*
X47335925Y-201347830D01*
X47336712Y-201516650D01*
X47336072Y-201726580D01*
X47334376Y-201981729D01*
X47333555Y-202088522D01*
X47330814Y-202383689D01*
X47327282Y-202633270D01*
X47322498Y-202842526D01*
X47316003Y-203016722D01*
X47307336Y-203161120D01*
X47296035Y-203280982D01*
X47281643Y-203381573D01*
X47263696Y-203468154D01*
X47241737Y-203545990D01*
X47215303Y-203620342D01*
X47195221Y-203669970D01*
X47072970Y-203906801D01*
X46923069Y-204103702D01*
X46748227Y-204259018D01*
X46551156Y-204371099D01*
X46334566Y-204438292D01*
X46101169Y-204458945D01*
X45924961Y-204444180D01*
X45723069Y-204389137D01*
X45528974Y-204290465D01*
X45353015Y-204155322D01*
X45205531Y-203990866D01*
X45150412Y-203907874D01*
X45091864Y-203801382D01*
X45042218Y-203690644D01*
X45000864Y-203570802D01*
X44967191Y-203436995D01*
X44940588Y-203284365D01*
X44920443Y-203108052D01*
X44906147Y-202903197D01*
X44897088Y-202664939D01*
X44892655Y-202388420D01*
X44892238Y-202068780D01*
X44893568Y-201864765D01*
X44901101Y-201000301D01*
X45390354Y-200993396D01*
X45879606Y-200986491D01*
X45886149Y-202620623D01*
X45892693Y-204254755D01*
X46124494Y-204262021D01*
X46255149Y-204263064D01*
X46354262Y-204255064D01*
X46440700Y-204235686D01*
X46499812Y-204215590D01*
X46659813Y-204129408D01*
X46804866Y-203998532D01*
X46931345Y-203827842D01*
X47035622Y-203622219D01*
X47113099Y-203390291D01*
X47143252Y-203237367D01*
X47166985Y-203035767D01*
X47184206Y-202787270D01*
X47194825Y-202493654D01*
X47198750Y-202156698D01*
X47195893Y-201778182D01*
X47195738Y-201768483D01*
X47192367Y-201552391D01*
X47190196Y-201381573D01*
X47189494Y-201250457D01*
X47190530Y-201153476D01*
X47193575Y-201085058D01*
X47198896Y-201039635D01*
X47206765Y-201011636D01*
X47217450Y-200995493D01*
X47231221Y-200985635D01*
X47233680Y-200984295D01*
X47259257Y-200972117D01*
X47280435Y-200968186D01*
X47297585Y-200976610D01*
G37*
G36*
X33421522Y-204242042D02*
G01*
X33669587Y-204242042D01*
X33787990Y-204239436D01*
X33897051Y-204232457D01*
X33980063Y-204222361D01*
X34005891Y-204216736D01*
X34100026Y-204200726D01*
X34158016Y-204218504D01*
X34182851Y-204271386D01*
X34184284Y-204295236D01*
X34171566Y-204357648D01*
X34125191Y-204392798D01*
X34119066Y-204395224D01*
X34076730Y-204401727D01*
X33989507Y-204407506D01*
X33863355Y-204412390D01*
X33704235Y-204416209D01*
X33518107Y-204418792D01*
X33310930Y-204419967D01*
X33254601Y-204420020D01*
X32455355Y-204420020D01*
X32455355Y-200987588D01*
X33421522Y-200987588D01*
X33421522Y-204242042D01*
G37*
G36*
X35213283Y-137141775D02*
G01*
X35248589Y-136991792D01*
X35364690Y-136698308D01*
X35520908Y-136432430D01*
X35713677Y-136197628D01*
X35939432Y-135997371D01*
X36194606Y-135835130D01*
X36475636Y-135714373D01*
X36599700Y-135677078D01*
X36733870Y-135652244D01*
X36898365Y-135637621D01*
X37074990Y-135633427D01*
X37245549Y-135639880D01*
X37391846Y-135657198D01*
X37438739Y-135667029D01*
X37720433Y-135761503D01*
X37983636Y-135898559D01*
X38223173Y-136073147D01*
X38433868Y-136280220D01*
X38610545Y-136514729D01*
X38748028Y-136771627D01*
X38837495Y-137031330D01*
X38876365Y-137251459D01*
X38887988Y-137487588D01*
X38868015Y-137783388D01*
X38806559Y-138054793D01*
X38701314Y-138307283D01*
X38549971Y-138546338D01*
X38350225Y-138777441D01*
X38341341Y-138786451D01*
X38232065Y-138893563D01*
X38141286Y-138973004D01*
X38054348Y-139035659D01*
X37956599Y-139092416D01*
X37870971Y-139135901D01*
X37751891Y-139190883D01*
X37631550Y-139240729D01*
X37528116Y-139278146D01*
X37485288Y-139290717D01*
X37320661Y-139321399D01*
X37133291Y-139339200D01*
X36946965Y-139342738D01*
X36789622Y-139331215D01*
X36497498Y-139265527D01*
X36223701Y-139154515D01*
X35972173Y-139001631D01*
X35746858Y-138810324D01*
X35551696Y-138584046D01*
X35390632Y-138326247D01*
X35267607Y-138040378D01*
X35248644Y-137982488D01*
X35206906Y-137793582D01*
X35187099Y-137577815D01*
X35189092Y-137368211D01*
X35793269Y-137368211D01*
X35794280Y-137606270D01*
X35841339Y-137839897D01*
X35933600Y-138062614D01*
X36070216Y-138267943D01*
X36118195Y-138323514D01*
X36301264Y-138492225D01*
X36502215Y-138614936D01*
X36727564Y-138695208D01*
X36841241Y-138718868D01*
X36945282Y-138734919D01*
X37023872Y-138741360D01*
X37099628Y-138738204D01*
X37195167Y-138725462D01*
X37235335Y-138719085D01*
X37466130Y-138657619D01*
X37677023Y-138554317D01*
X37863761Y-138414915D01*
X38022095Y-138245152D01*
X38147772Y-138050768D01*
X38236541Y-137837500D01*
X38284152Y-137611087D01*
X38286353Y-137377268D01*
X38278260Y-137311297D01*
X38218277Y-137075148D01*
X38116807Y-136860141D01*
X37979259Y-136670325D01*
X37811043Y-136509752D01*
X37617569Y-136382471D01*
X37404247Y-136292531D01*
X37176487Y-136243984D01*
X36939698Y-136240880D01*
X36861190Y-136250410D01*
X36624265Y-136309530D01*
X36412487Y-136410853D01*
X36219440Y-136557687D01*
X36167127Y-136608156D01*
X36082553Y-136700518D01*
X36003782Y-136798305D01*
X35944555Y-136884130D01*
X35932779Y-136904707D01*
X35839153Y-137132197D01*
X35793269Y-137368211D01*
X35189092Y-137368211D01*
X35189225Y-137354207D01*
X35213283Y-137141775D01*
G37*
G36*
X46560110Y-55681723D02*
G01*
X46853632Y-55699771D01*
X47114818Y-55754114D01*
X47348844Y-55846714D01*
X47560885Y-55979536D01*
X47726173Y-56124000D01*
X47900526Y-56330279D01*
X48032010Y-56556078D01*
X48119259Y-56795822D01*
X48160911Y-57043937D01*
X48155602Y-57294849D01*
X48101969Y-57542985D01*
X48085276Y-57591917D01*
X47977504Y-57833742D01*
X47840346Y-58039372D01*
X47666808Y-58217596D01*
X47471644Y-58363201D01*
X47277440Y-58489864D01*
X47335116Y-58535158D01*
X47468610Y-58618996D01*
X47637701Y-58692824D01*
X47827309Y-58750836D01*
X47971221Y-58780053D01*
X48219119Y-58819102D01*
X48219119Y-59107046D01*
X48218041Y-59235134D01*
X48214030Y-59321059D01*
X48205922Y-59373478D01*
X48192551Y-59401049D01*
X48178270Y-59410665D01*
X48119559Y-59417669D01*
X48024141Y-59412134D01*
X47904030Y-59396090D01*
X47771239Y-59371566D01*
X47637782Y-59340592D01*
X47515671Y-59305197D01*
X47478772Y-59292480D01*
X47353041Y-59240788D01*
X47220635Y-59176639D01*
X47107015Y-59112522D01*
X47091035Y-59102284D01*
X46922423Y-58991539D01*
X46922423Y-59418819D01*
X46312212Y-59418819D01*
X46312212Y-57143244D01*
X46922423Y-57143244D01*
X46923255Y-57402888D01*
X46925752Y-57611865D01*
X46929911Y-57770142D01*
X46935733Y-57877683D01*
X46943215Y-57934456D01*
X46948665Y-57944145D01*
X46987816Y-57934990D01*
X47050521Y-57912440D01*
X47063348Y-57907191D01*
X47160260Y-57850025D01*
X47265934Y-57761367D01*
X47366532Y-57655280D01*
X47448215Y-57545822D01*
X47484890Y-57478905D01*
X47519676Y-57384729D01*
X47538308Y-57285276D01*
X47544583Y-57159232D01*
X47544681Y-57143244D01*
X47525163Y-56940087D01*
X47463461Y-56762253D01*
X47356861Y-56603002D01*
X47304147Y-56546090D01*
X47221157Y-56475056D01*
X47126161Y-56411628D01*
X47034561Y-56364745D01*
X46961755Y-56343349D01*
X46954204Y-56342901D01*
X46944960Y-56353493D01*
X46937564Y-56388444D01*
X46931850Y-56451983D01*
X46927650Y-56548336D01*
X46924795Y-56681729D01*
X46923118Y-56856390D01*
X46922451Y-57076545D01*
X46922423Y-57143244D01*
X46312212Y-57143244D01*
X46312212Y-55681282D01*
X46560110Y-55681723D01*
G37*
G36*
X45216688Y-136871021D02*
G01*
X45292211Y-137113289D01*
X45363552Y-137340827D01*
X45429235Y-137549016D01*
X45487782Y-137733235D01*
X45537716Y-137888864D01*
X45577559Y-138011283D01*
X45605836Y-138095871D01*
X45621069Y-138138009D01*
X45622975Y-138141805D01*
X45633548Y-138121896D01*
X45657590Y-138057805D01*
X45693642Y-137953964D01*
X45740244Y-137814800D01*
X45795937Y-137644744D01*
X45859261Y-137448224D01*
X45928757Y-137229671D01*
X46002966Y-136993513D01*
X46032286Y-136899473D01*
X46108310Y-136656589D01*
X46180536Y-136428684D01*
X46247453Y-136220327D01*
X46307552Y-136036090D01*
X46359321Y-135880542D01*
X46401253Y-135758252D01*
X46431835Y-135673790D01*
X46449558Y-135631726D01*
X46452503Y-135627841D01*
X46487832Y-135624180D01*
X46562654Y-135622342D01*
X46665638Y-135622450D01*
X46773527Y-135624327D01*
X47066617Y-135631532D01*
X46489291Y-137465639D01*
X46396513Y-137760036D01*
X46307893Y-138040552D01*
X46224649Y-138303376D01*
X46148000Y-138544694D01*
X46079163Y-138760693D01*
X46019355Y-138947562D01*
X45969794Y-139101488D01*
X45931698Y-139218658D01*
X45906285Y-139295260D01*
X45894772Y-139327480D01*
X45894473Y-139328052D01*
X45863545Y-139339552D01*
X45795574Y-139348320D01*
X45704064Y-139354121D01*
X45602521Y-139356722D01*
X45504451Y-139355886D01*
X45423359Y-139351379D01*
X45372750Y-139342967D01*
X45363136Y-139337288D01*
X45353812Y-139310482D01*
X45330744Y-139239762D01*
X45295386Y-139129740D01*
X45249191Y-138985027D01*
X45193611Y-138810238D01*
X45130098Y-138609984D01*
X45060107Y-138388877D01*
X44985089Y-138151531D01*
X44906498Y-137902557D01*
X44825786Y-137646568D01*
X44744406Y-137388176D01*
X44663812Y-137131995D01*
X44585455Y-136882636D01*
X44510789Y-136644712D01*
X44441266Y-136422836D01*
X44378340Y-136221619D01*
X44323463Y-136045675D01*
X44278089Y-135899616D01*
X44243669Y-135788054D01*
X44221656Y-135715602D01*
X44213916Y-135688739D01*
X44196389Y-135618819D01*
X44827433Y-135618819D01*
X45216688Y-136871021D01*
G37*
G36*
X22838188Y-165931476D02*
G01*
X23136937Y-165938639D01*
X23143489Y-167495946D01*
X23150041Y-169053254D01*
X24268368Y-169053254D01*
X24268368Y-169663464D01*
X22539440Y-169663464D01*
X22539440Y-165924313D01*
X22838188Y-165931476D01*
G37*
G36*
X51073123Y-200995308D02*
G01*
X51349433Y-201002795D01*
X51580869Y-201013577D01*
X51773375Y-201029210D01*
X51932899Y-201051250D01*
X52065386Y-201081253D01*
X52176783Y-201120774D01*
X52273035Y-201171371D01*
X52360089Y-201234599D01*
X52443891Y-201312014D01*
X52496889Y-201367890D01*
X52642999Y-201562785D01*
X52744314Y-201779408D01*
X52800996Y-202018582D01*
X52813205Y-202281128D01*
X52781104Y-202567870D01*
X52756163Y-202688366D01*
X52679329Y-202922856D01*
X52566238Y-203130814D01*
X52421567Y-203308187D01*
X52249995Y-203450925D01*
X52056200Y-203554974D01*
X51844860Y-203616282D01*
X51666954Y-203631832D01*
X51586088Y-203614867D01*
X51529002Y-203571072D01*
X51506706Y-203511096D01*
X51511134Y-203481102D01*
X51519927Y-203453619D01*
X51531946Y-203436218D01*
X51557421Y-203426371D01*
X51606580Y-203421551D01*
X51689654Y-203419229D01*
X51767086Y-203417856D01*
X51889011Y-203411818D01*
X51982266Y-203395890D01*
X52068761Y-203365427D01*
X52114411Y-203344228D01*
X52280790Y-203235116D01*
X52418817Y-203086346D01*
X52526606Y-202901682D01*
X52602273Y-202684887D01*
X52643932Y-202439725D01*
X52651869Y-202271572D01*
X52634435Y-202020762D01*
X52579742Y-201803723D01*
X52486934Y-201618723D01*
X52355154Y-201464026D01*
X52193593Y-201343859D01*
X52048614Y-201271445D01*
X51889172Y-201222501D01*
X51702899Y-201194017D01*
X51537137Y-201184243D01*
X51333734Y-201178279D01*
X51327189Y-202799150D01*
X51320645Y-204420020D01*
X50354855Y-204420020D01*
X50354855Y-200980121D01*
X51073123Y-200995308D01*
G37*
G36*
X28857658Y-191594228D02*
G01*
X28998109Y-191595994D01*
X29101159Y-191601777D01*
X29180206Y-191613325D01*
X29248649Y-191632388D01*
X29299140Y-191651856D01*
X29520468Y-191769291D01*
X29711714Y-191921086D01*
X29869507Y-192101398D01*
X29990481Y-192304385D01*
X30071266Y-192524205D01*
X30108494Y-192755015D01*
X30098795Y-192990974D01*
X30092769Y-193028225D01*
X30025185Y-193265593D01*
X29912880Y-193483812D01*
X29760104Y-193677428D01*
X29571107Y-193840988D01*
X29364803Y-193962181D01*
X29268256Y-194005961D01*
X29189698Y-194034016D01*
X29110992Y-194050396D01*
X29014001Y-194059152D01*
X28911730Y-194063368D01*
X28723064Y-194062700D01*
X28575747Y-194046673D01*
X28516518Y-194033064D01*
X28294238Y-193945144D01*
X28091429Y-193814451D01*
X27916106Y-193647755D01*
X27776283Y-193451826D01*
X27734951Y-193372858D01*
X27646994Y-193133341D01*
X27607801Y-192893623D01*
X27615519Y-192658397D01*
X27668298Y-192432354D01*
X27764285Y-192220188D01*
X27901629Y-192026592D01*
X28078478Y-191856258D01*
X28292981Y-191713879D01*
X28412713Y-191655105D01*
X28480080Y-191628088D01*
X28544456Y-191610319D01*
X28619201Y-191599969D01*
X28717673Y-191595212D01*
X28853230Y-191594219D01*
X28857658Y-191594228D01*
G37*
G36*
X49236136Y-136229029D02*
G01*
X47914014Y-136229029D01*
X47914014Y-136432433D01*
X49261562Y-136432433D01*
X49261562Y-137042643D01*
X47914014Y-137042643D01*
X47914014Y-137329694D01*
X47925083Y-137576958D01*
X47960554Y-137787268D01*
X48023825Y-137969981D01*
X48118296Y-138134452D01*
X48247363Y-138290039D01*
X48271965Y-138315250D01*
X48476205Y-138485934D01*
X48703718Y-138612223D01*
X48950922Y-138692375D01*
X49096296Y-138716421D01*
X49248849Y-138733434D01*
X49255988Y-139044895D01*
X49263127Y-139356357D01*
X49166999Y-139353023D01*
X49084099Y-139347596D01*
X48981796Y-139337563D01*
X48931031Y-139331443D01*
X48637219Y-139268144D01*
X48361179Y-139158887D01*
X48106941Y-139006675D01*
X47878537Y-138814510D01*
X47679997Y-138585392D01*
X47515352Y-138322325D01*
X47479361Y-138250351D01*
X47398840Y-138051638D01*
X47344378Y-137843453D01*
X47313518Y-137613180D01*
X47303804Y-137348820D01*
X47303804Y-137042643D01*
X47073361Y-137042643D01*
X47080525Y-136743894D01*
X47087688Y-136445146D01*
X47195746Y-136437327D01*
X47303804Y-136429509D01*
X47303804Y-135618819D01*
X49236136Y-135618819D01*
X49236136Y-136229029D01*
G37*
G36*
X32703253Y-95574559D02*
G01*
X32916277Y-95580801D01*
X33093889Y-95599620D01*
X33250614Y-95633973D01*
X33400972Y-95686816D01*
X33518715Y-95740566D01*
X33750295Y-95880374D01*
X33948685Y-96052360D01*
X34110995Y-96251238D01*
X34234330Y-96471722D01*
X34315801Y-96708525D01*
X34352514Y-96956361D01*
X34341577Y-97209944D01*
X34337464Y-97237201D01*
X34269994Y-97499915D01*
X34156719Y-97742254D01*
X33999518Y-97961517D01*
X33800267Y-98155003D01*
X33602198Y-98295373D01*
X33465057Y-98379434D01*
X33525845Y-98428657D01*
X33638902Y-98501781D01*
X33786276Y-98570992D01*
X33951460Y-98630651D01*
X34117949Y-98675115D01*
X34269236Y-98698745D01*
X34323052Y-98701102D01*
X34387688Y-98701102D01*
X34387688Y-99318849D01*
X34190641Y-99303158D01*
X33882343Y-99254584D01*
X33589113Y-99160441D01*
X33318219Y-99023224D01*
X33252732Y-98981064D01*
X33187640Y-98938449D01*
X33141445Y-98910654D01*
X33127855Y-98904505D01*
X33122543Y-98927923D01*
X33118542Y-98990154D01*
X33116531Y-99079165D01*
X33116417Y-99107908D01*
X33116417Y-99311312D01*
X32506206Y-99311312D01*
X32506206Y-97035736D01*
X33116417Y-97035736D01*
X33116920Y-97273195D01*
X33118524Y-97463494D01*
X33121366Y-97610312D01*
X33125585Y-97717331D01*
X33131319Y-97788232D01*
X33138707Y-97826695D01*
X33146527Y-97836637D01*
X33186007Y-97826205D01*
X33251330Y-97799800D01*
X33285509Y-97783933D01*
X33397266Y-97710433D01*
X33509312Y-97604104D01*
X33607607Y-97480911D01*
X33678116Y-97356818D01*
X33691661Y-97322066D01*
X33734467Y-97123193D01*
X33730421Y-96924297D01*
X33681198Y-96734041D01*
X33588472Y-96561084D01*
X33530523Y-96488440D01*
X33454561Y-96415478D01*
X33363746Y-96344980D01*
X33271403Y-96285658D01*
X33190853Y-96246222D01*
X33142687Y-96234835D01*
X33134166Y-96260186D01*
X33127310Y-96336253D01*
X33122121Y-96463060D01*
X33118596Y-96640629D01*
X33116735Y-96868985D01*
X33116417Y-97035736D01*
X32506206Y-97035736D01*
X32506206Y-95573774D01*
X32703253Y-95574559D01*
G37*
G36*
X45470439Y-100532291D02*
G01*
X45559632Y-100534722D01*
X45613603Y-100540157D01*
X45640162Y-100549729D01*
X45647120Y-100564569D01*
X45645203Y-100576227D01*
X45635816Y-100607164D01*
X45612382Y-100682727D01*
X45576116Y-100799033D01*
X45528235Y-100952201D01*
X45469953Y-101138351D01*
X45402488Y-101353600D01*
X45327054Y-101594068D01*
X45244868Y-101855874D01*
X45157146Y-102135136D01*
X45065103Y-102427973D01*
X45063809Y-102432090D01*
X44494294Y-104243460D01*
X44222943Y-104243652D01*
X43951591Y-104243844D01*
X43925314Y-104161212D01*
X43913342Y-104123250D01*
X43887475Y-104041008D01*
X43849046Y-103918725D01*
X43799385Y-103760639D01*
X43739824Y-103570989D01*
X43671693Y-103354014D01*
X43596324Y-103113951D01*
X43515047Y-102855040D01*
X43429195Y-102581518D01*
X43388342Y-102451352D01*
X43300119Y-102170352D01*
X43215288Y-101900362D01*
X43135255Y-101645836D01*
X43061421Y-101411229D01*
X42995193Y-101200997D01*
X42937972Y-101019594D01*
X42891163Y-100871476D01*
X42856170Y-100761098D01*
X42834396Y-100692915D01*
X42829529Y-100677928D01*
X42781413Y-100531732D01*
X43103920Y-100532052D01*
X43426427Y-100532371D01*
X43820377Y-101802195D01*
X43896034Y-102044837D01*
X43967478Y-102271607D01*
X44033265Y-102478085D01*
X44091952Y-102659854D01*
X44142096Y-102812495D01*
X44182255Y-102931590D01*
X44210984Y-103012722D01*
X44226840Y-103051471D01*
X44229288Y-103054078D01*
X44238880Y-103027896D01*
X44261781Y-102958708D01*
X44296244Y-102852081D01*
X44340521Y-102713580D01*
X44392866Y-102548770D01*
X44451530Y-102363217D01*
X44514767Y-102162486D01*
X44580829Y-101952143D01*
X44647969Y-101737754D01*
X44714439Y-101524884D01*
X44778493Y-101319098D01*
X44838383Y-101125962D01*
X44892362Y-100951041D01*
X44938681Y-100799902D01*
X44975595Y-100678109D01*
X44983268Y-100652503D01*
X45019341Y-100531732D01*
X45338211Y-100531732D01*
X45470439Y-100532291D01*
G37*
G36*
X42848967Y-97053990D02*
G01*
X42841642Y-98535836D01*
X42762169Y-98701102D01*
X42639724Y-98904197D01*
X42487216Y-99066337D01*
X42304141Y-99187944D01*
X42089996Y-99269437D01*
X42079894Y-99272097D01*
X41907344Y-99304088D01*
X41747910Y-99302912D01*
X41583700Y-99270552D01*
X41383728Y-99191881D01*
X41204040Y-99072407D01*
X41051850Y-98919489D01*
X40934368Y-98740487D01*
X40858808Y-98542760D01*
X40854912Y-98526872D01*
X40847083Y-98481533D01*
X40840448Y-98414931D01*
X40834928Y-98323463D01*
X40830442Y-98203525D01*
X40826912Y-98051512D01*
X40824257Y-97863820D01*
X40822398Y-97636844D01*
X40821256Y-97366980D01*
X40820750Y-97050623D01*
X40820718Y-96978529D01*
X40820320Y-95573774D01*
X41430531Y-95573774D01*
X41430531Y-96974686D01*
X41430519Y-97289394D01*
X41430773Y-97557369D01*
X41431727Y-97782727D01*
X41433813Y-97969586D01*
X41437466Y-98122064D01*
X41443118Y-98244276D01*
X41451204Y-98340341D01*
X41462157Y-98414375D01*
X41476409Y-98470496D01*
X41494396Y-98512821D01*
X41516549Y-98545467D01*
X41543304Y-98572551D01*
X41575092Y-98598191D01*
X41603751Y-98619904D01*
X41670390Y-98662269D01*
X41740236Y-98682857D01*
X41836449Y-98688385D01*
X41839850Y-98688389D01*
X41965322Y-98675360D01*
X42064387Y-98630895D01*
X42152679Y-98546925D01*
X42179010Y-98513351D01*
X42190237Y-98497013D01*
X42199786Y-98477728D01*
X42207836Y-98451384D01*
X42214565Y-98413868D01*
X42220153Y-98361067D01*
X42224778Y-98288867D01*
X42228619Y-98193156D01*
X42231855Y-98069819D01*
X42234664Y-97914745D01*
X42237225Y-97723820D01*
X42239718Y-97492931D01*
X42242320Y-97217965D01*
X42244144Y-97014822D01*
X42256857Y-95586487D01*
X42556575Y-95579315D01*
X42856293Y-95572144D01*
X42848967Y-97053990D01*
G37*
G36*
X65152453Y-171672072D02*
G01*
X65152453Y-196690691D01*
X17072973Y-196690691D01*
X17072973Y-191994417D01*
X22108557Y-191994417D01*
X22257573Y-192162324D01*
X22332157Y-192244987D01*
X22400319Y-192318127D01*
X22450450Y-192369361D01*
X22460949Y-192379252D01*
X22493464Y-192405660D01*
X22520243Y-192409910D01*
X22554995Y-192387621D01*
X22611430Y-192334415D01*
X22616364Y-192329598D01*
X22717418Y-192230922D01*
X22717418Y-194682082D01*
X23302202Y-194682082D01*
X23480180Y-194682082D01*
X24090391Y-194682082D01*
X24090391Y-193854306D01*
X24264358Y-193809491D01*
X24496936Y-193724021D01*
X24712904Y-193594437D01*
X24906455Y-193426314D01*
X25071782Y-193225229D01*
X25203077Y-192996758D01*
X25233876Y-192921062D01*
X27008363Y-192921062D01*
X27021910Y-193103551D01*
X27049076Y-193256814D01*
X27049449Y-193258259D01*
X27150031Y-193548592D01*
X27292948Y-193815020D01*
X27474086Y-194053550D01*
X27689335Y-194260188D01*
X27934580Y-194430940D01*
X28205711Y-194561812D01*
X28476276Y-194643961D01*
X28636162Y-194668242D01*
X28821953Y-194678653D01*
X29010537Y-194674852D01*
X29178801Y-194656495D01*
X29189875Y-194654537D01*
X29470160Y-194578186D01*
X29734222Y-194457036D01*
X29977068Y-194295883D01*
X30193708Y-194099523D01*
X30379149Y-193872752D01*
X30528399Y-193620365D01*
X30636468Y-193347159D01*
X30666392Y-193235926D01*
X30692719Y-193070233D01*
X30703853Y-192877107D01*
X30699848Y-192677626D01*
X30680755Y-192492868D01*
X30664324Y-192407209D01*
X30575690Y-192136914D01*
X30442751Y-191881820D01*
X30271110Y-191647388D01*
X30066370Y-191439081D01*
X29834137Y-191262361D01*
X29580013Y-191122691D01*
X29309602Y-191025534D01*
X29226326Y-191005532D01*
X29003047Y-190976328D01*
X28760480Y-190975828D01*
X28519667Y-191002855D01*
X28301650Y-191056236D01*
X28298298Y-191057352D01*
X28013884Y-191178581D01*
X27756245Y-191340952D01*
X27529223Y-191540353D01*
X27336659Y-191772672D01*
X27182395Y-192033800D01*
X27070273Y-192319624D01*
X27049449Y-192393794D01*
X27022133Y-192546630D01*
X27008438Y-192728904D01*
X27008363Y-192921062D01*
X25233876Y-192921062D01*
X25262199Y-192851452D01*
X25299472Y-192701557D01*
X25320053Y-192525375D01*
X25323642Y-192341072D01*
X25309944Y-192166812D01*
X25278662Y-192020762D01*
X25275923Y-192012413D01*
X25168652Y-191764762D01*
X25024138Y-191541000D01*
X24848152Y-191348135D01*
X24646466Y-191193175D01*
X24560621Y-191143758D01*
X24397670Y-191067574D01*
X24240062Y-191015773D01*
X24071988Y-190984855D01*
X23877637Y-190971321D01*
X23775259Y-190969970D01*
X30902837Y-190969970D01*
X30917117Y-193932032D01*
X30985259Y-194077417D01*
X31068328Y-194217639D01*
X31180507Y-194356287D01*
X31306571Y-194476379D01*
X31406598Y-194547336D01*
X31541931Y-194616224D01*
X31672583Y-194657010D01*
X31817753Y-194674173D01*
X31950072Y-194674159D01*
X32071257Y-194667152D01*
X32163142Y-194652502D01*
X32247210Y-194625213D01*
X32336994Y-194584221D01*
X32530281Y-194462126D01*
X32690756Y-194304323D01*
X32812495Y-194116760D01*
X32821944Y-194097371D01*
X32900300Y-193932032D01*
X32911340Y-191580181D01*
X33116417Y-191580181D01*
X33802903Y-191580181D01*
X33802903Y-194682082D01*
X34387688Y-194682082D01*
X46613044Y-194682082D01*
X48778479Y-194682082D01*
X49058158Y-194682082D01*
X49668368Y-194682082D01*
X49668368Y-193852657D01*
X49798121Y-193819402D01*
X50036168Y-193732944D01*
X50257193Y-193603072D01*
X50454953Y-193436068D01*
X50623206Y-193238214D01*
X50755708Y-193015791D01*
X50798739Y-192901345D01*
X52567097Y-192901345D01*
X52599852Y-193195104D01*
X52604887Y-193220121D01*
X52650801Y-193377911D01*
X52723651Y-193555603D01*
X52815142Y-193736429D01*
X52916979Y-193903619D01*
X52996298Y-194011379D01*
X53160977Y-194182241D01*
X53360779Y-194339660D01*
X53581859Y-194475074D01*
X53810368Y-194579923D01*
X54016771Y-194642357D01*
X54229418Y-194672631D01*
X54460643Y-194678816D01*
X54687423Y-194661211D01*
X54844732Y-194631582D01*
X55130805Y-194534482D01*
X55394739Y-194394703D01*
X55632244Y-194216757D01*
X55839029Y-194005158D01*
X56010802Y-193764419D01*
X56143274Y-193499054D01*
X56232153Y-193213574D01*
X56243137Y-193160677D01*
X56274733Y-192865199D01*
X56257213Y-192572553D01*
X56192267Y-192287722D01*
X56081585Y-192015690D01*
X55926855Y-191761443D01*
X55729769Y-191529964D01*
X55671243Y-191473613D01*
X55432994Y-191281655D01*
X55184197Y-191138075D01*
X54919686Y-191040684D01*
X54634298Y-190987294D01*
X54499199Y-190977107D01*
X54254291Y-190978328D01*
X54035753Y-191007910D01*
X53825454Y-191069608D01*
X53622022Y-191158780D01*
X53358613Y-191312249D01*
X53135638Y-191492729D01*
X52947468Y-191705919D01*
X52788475Y-191957516D01*
X52741158Y-192050551D01*
X52638869Y-192319462D01*
X52580475Y-192606262D01*
X52567097Y-192901345D01*
X50798739Y-192901345D01*
X50846214Y-192775081D01*
X50849929Y-192761133D01*
X50876317Y-192610012D01*
X50886809Y-192434895D01*
X50881364Y-192257852D01*
X50859938Y-192100953D01*
X50851278Y-192064417D01*
X50760193Y-191818386D01*
X50626072Y-191592999D01*
X50454386Y-191393636D01*
X50250606Y-191225681D01*
X50020205Y-191094516D01*
X49777167Y-191007714D01*
X49673329Y-190988973D01*
X49534936Y-190975984D01*
X49378098Y-190970154D01*
X49345209Y-190969970D01*
X56455007Y-190969970D01*
X56462338Y-192438289D01*
X56469670Y-193906607D01*
X56539183Y-194054987D01*
X56658855Y-194257479D01*
X56808323Y-194423523D01*
X56982306Y-194550637D01*
X57175518Y-194636335D01*
X57382678Y-194678135D01*
X57598503Y-194673551D01*
X57772980Y-194635091D01*
X57975562Y-194546332D01*
X58151707Y-194417237D01*
X58296025Y-194253757D01*
X58403124Y-194061848D01*
X58462433Y-193873574D01*
X58469951Y-193810766D01*
X58476315Y-193698579D01*
X58481530Y-193536773D01*
X58485600Y-193325108D01*
X58488530Y-193063345D01*
X58490324Y-192751245D01*
X58490987Y-192388566D01*
X58490991Y-192354405D01*
X58490991Y-191580181D01*
X58668969Y-191580181D01*
X59355456Y-191580181D01*
X59355456Y-194682082D01*
X59965666Y-194682082D01*
X59965666Y-191580181D01*
X60652152Y-191580181D01*
X60652152Y-190969970D01*
X58668969Y-190969970D01*
X58668969Y-191580181D01*
X58490991Y-191580181D01*
X58490991Y-190969970D01*
X57880781Y-190969970D01*
X57880781Y-193784673D01*
X57822969Y-193870460D01*
X57726440Y-193982182D01*
X57616372Y-194046884D01*
X57486400Y-194067887D01*
X57447393Y-194066520D01*
X57314527Y-194042028D01*
X57213882Y-193985021D01*
X57133489Y-193888137D01*
X57119739Y-193865007D01*
X57108391Y-193843793D01*
X57098806Y-193820519D01*
X57090834Y-193790964D01*
X57084327Y-193750906D01*
X57079136Y-193696123D01*
X57075114Y-193622393D01*
X57072110Y-193525494D01*
X57069977Y-193401203D01*
X57068566Y-193245301D01*
X57067728Y-193053563D01*
X57067315Y-192821769D01*
X57067179Y-192545696D01*
X57067167Y-192371263D01*
X57067167Y-190969970D01*
X56455007Y-190969970D01*
X49345209Y-190969970D01*
X49058158Y-190969970D01*
X49058158Y-194682082D01*
X48778479Y-194682082D01*
X48778479Y-194097298D01*
X48308108Y-194097298D01*
X48159779Y-194096594D01*
X48030663Y-194094639D01*
X47928676Y-194091661D01*
X47861729Y-194087893D01*
X47837738Y-194083575D01*
X47853054Y-194060906D01*
X47896207Y-194004081D01*
X47963001Y-193918441D01*
X48049244Y-193809325D01*
X48150740Y-193682072D01*
X48256281Y-193550723D01*
X48373374Y-193403597D01*
X48483198Y-193262053D01*
X48580534Y-193133097D01*
X48660162Y-193023734D01*
X48716862Y-192940971D01*
X48742283Y-192898469D01*
X48809788Y-192723083D01*
X48851972Y-192523159D01*
X48865508Y-192320003D01*
X48854761Y-192177678D01*
X48795631Y-191944563D01*
X48694667Y-191728567D01*
X48557549Y-191534739D01*
X48389955Y-191368129D01*
X48197564Y-191233785D01*
X47986056Y-191136757D01*
X47761109Y-191082094D01*
X47610781Y-191071672D01*
X47522841Y-191079799D01*
X47415047Y-191101859D01*
X47296856Y-191134366D01*
X47177728Y-191173836D01*
X47067121Y-191216786D01*
X46974494Y-191259731D01*
X46909306Y-191299187D01*
X46881016Y-191331669D01*
X46881417Y-191340336D01*
X46897589Y-191370124D01*
X46933523Y-191431308D01*
X46982061Y-191512146D01*
X47036046Y-191600892D01*
X47088320Y-191685802D01*
X47131726Y-191755134D01*
X47159105Y-191797141D01*
X47163413Y-191803019D01*
X47187382Y-191796766D01*
X47244693Y-191773861D01*
X47318987Y-191741044D01*
X47501753Y-191681841D01*
X47679354Y-191673054D01*
X47849632Y-191714337D01*
X48010430Y-191805346D01*
X48079659Y-191862925D01*
X48184174Y-191990648D01*
X48252693Y-192141445D01*
X48283130Y-192303616D01*
X48273398Y-192465462D01*
X48221412Y-192615282D01*
X48215694Y-192625809D01*
X48186562Y-192669656D01*
X48129308Y-192748438D01*
X48047585Y-192857390D01*
X47945042Y-192991746D01*
X47825332Y-193146738D01*
X47692106Y-193317600D01*
X47549015Y-193499566D01*
X47467441Y-193602642D01*
X47319855Y-193788731D01*
X47179235Y-193966086D01*
X47049347Y-194129955D01*
X46933957Y-194275585D01*
X46836831Y-194398220D01*
X46761736Y-194493108D01*
X46712436Y-194555496D01*
X46697814Y-194574065D01*
X46613044Y-194682082D01*
X34387688Y-194682082D01*
X34387688Y-191580181D01*
X35074174Y-191580181D01*
X35074174Y-190969970D01*
X33116417Y-190969970D01*
X33116417Y-191580181D01*
X32911340Y-191580181D01*
X32914204Y-190969970D01*
X32329859Y-190969970D01*
X32322687Y-192389439D01*
X32315516Y-193808908D01*
X32244281Y-193902279D01*
X32146629Y-194001439D01*
X32033981Y-194055957D01*
X31901019Y-194071872D01*
X31762212Y-194048556D01*
X31645372Y-193979853D01*
X31554128Y-193868382D01*
X31542856Y-193847767D01*
X31533301Y-193824607D01*
X31525296Y-193794697D01*
X31518671Y-193753831D01*
X31513258Y-193697802D01*
X31508890Y-193622405D01*
X31505398Y-193523432D01*
X31502612Y-193396679D01*
X31500366Y-193237939D01*
X31498491Y-193043006D01*
X31496817Y-192807673D01*
X31495178Y-192527735D01*
X31494345Y-192374725D01*
X31486789Y-190969970D01*
X30902837Y-190969970D01*
X23775259Y-190969970D01*
X23480180Y-190969970D01*
X23480180Y-194682082D01*
X23302202Y-194682082D01*
X23302202Y-190915157D01*
X23204687Y-190999771D01*
X23159495Y-191039801D01*
X23082982Y-191108493D01*
X22981374Y-191200217D01*
X22860898Y-191309343D01*
X22727780Y-191430241D01*
X22607864Y-191539401D01*
X22108557Y-191994417D01*
X17072973Y-191994417D01*
X17072973Y-182838317D01*
X21607924Y-182838317D01*
X21645134Y-183419538D01*
X21730036Y-183995872D01*
X21862716Y-184563341D01*
X22025991Y-185071272D01*
X22114496Y-185294196D01*
X22224826Y-185542009D01*
X22349771Y-185800401D01*
X22482121Y-186055066D01*
X22614667Y-186291694D01*
X22740200Y-186495979D01*
X22755818Y-186519699D01*
X23107132Y-187004027D01*
X23494203Y-187453153D01*
X23918326Y-187868338D01*
X24380792Y-188250845D01*
X24882894Y-188601935D01*
X24904004Y-188615460D01*
X25052383Y-188703754D01*
X25236499Y-188803296D01*
X25444174Y-188908304D01*
X25663231Y-189012992D01*
X25881493Y-189111576D01*
X26086784Y-189198273D01*
X26266925Y-189267299D01*
X26302403Y-189279686D01*
X26880363Y-189451898D01*
X27458434Y-189573554D01*
X28038615Y-189644917D01*
X28622907Y-189666246D01*
X29111912Y-189646177D01*
X29705994Y-189576356D01*
X30285525Y-189458501D01*
X30848288Y-189293914D01*
X31392065Y-189083893D01*
X31914640Y-188829739D01*
X32413794Y-188532750D01*
X32887310Y-188194227D01*
X33332970Y-187815470D01*
X33748558Y-187397778D01*
X34131855Y-186942451D01*
X34428476Y-186530003D01*
X34730547Y-186032140D01*
X34989065Y-185508369D01*
X35204114Y-184958471D01*
X35375779Y-184382226D01*
X35504142Y-183779416D01*
X35520571Y-183681088D01*
X35541573Y-183513334D01*
X35557966Y-183306896D01*
X35569569Y-183073749D01*
X35576203Y-182825866D01*
X35577690Y-182575221D01*
X35576246Y-182484457D01*
X46648663Y-182484457D01*
X46650246Y-182868706D01*
X46666504Y-183246895D01*
X46697064Y-183591230D01*
X46744362Y-183917303D01*
X46810833Y-184240706D01*
X46898911Y-184577030D01*
X46937423Y-184707733D01*
X47131395Y-185262241D01*
X47370807Y-185795794D01*
X47653778Y-186306059D01*
X47978427Y-186790701D01*
X48342875Y-187247387D01*
X48745241Y-187673782D01*
X49183645Y-188067552D01*
X49656208Y-188426363D01*
X50161049Y-188747881D01*
X50218178Y-188780704D01*
X50709621Y-189031862D01*
X51228136Y-189243396D01*
X51767213Y-189413866D01*
X52320342Y-189541830D01*
X52881010Y-189625849D01*
X53442708Y-189664480D01*
X53998924Y-189656285D01*
X54133195Y-189647005D01*
X54722466Y-189577786D01*
X55286597Y-189466023D01*
X55830017Y-189310541D01*
X56357154Y-189110167D01*
X56634647Y-188983826D01*
X57069196Y-188759322D01*
X57465095Y-188521492D01*
X57834313Y-188261867D01*
X58188820Y-187971979D01*
X58540585Y-187643357D01*
X58569022Y-187615084D01*
X58924730Y-187235934D01*
X59238242Y-186848755D01*
X59518076Y-186441754D01*
X59772746Y-186003134D01*
X59873272Y-185808609D01*
X60106098Y-185298974D01*
X60293420Y-184789394D01*
X60438591Y-184268836D01*
X60544959Y-183726270D01*
X60579763Y-183482183D01*
X60594830Y-183321986D01*
X60605095Y-183123761D01*
X60610658Y-182899708D01*
X60611614Y-182662027D01*
X60608063Y-182422919D01*
X60600101Y-182194585D01*
X60587826Y-181989225D01*
X60571336Y-181819040D01*
X60566147Y-181780521D01*
X60459310Y-181189493D01*
X60314590Y-180629844D01*
X60130152Y-180097087D01*
X59904158Y-179586732D01*
X59634772Y-179094290D01*
X59320157Y-178615272D01*
X59208403Y-178462454D01*
X59060135Y-178276365D01*
X58881788Y-178071445D01*
X58684239Y-177859006D01*
X58478365Y-177650361D01*
X58275040Y-177456822D01*
X58085141Y-177289701D01*
X58064096Y-177272226D01*
X57595658Y-176918492D01*
X57102328Y-176607928D01*
X56587135Y-176341207D01*
X56053107Y-176118999D01*
X55503272Y-175941975D01*
X54940661Y-175810807D01*
X54368300Y-175726166D01*
X53789218Y-175688722D01*
X53206445Y-175699147D01*
X52623008Y-175758113D01*
X52041936Y-175866289D01*
X51887601Y-175903576D01*
X51329025Y-176071042D01*
X50789594Y-176284363D01*
X50271806Y-176541346D01*
X49778162Y-176839796D01*
X49311159Y-177177520D01*
X48873296Y-177552325D01*
X48467074Y-177962015D01*
X48094990Y-178404397D01*
X47759543Y-178877278D01*
X47463233Y-179378464D01*
X47208559Y-179905760D01*
X47139270Y-180072147D01*
X46965433Y-180549245D01*
X46831212Y-181018971D01*
X46734848Y-181491379D01*
X46674585Y-181976523D01*
X46648663Y-182484457D01*
X35576246Y-182484457D01*
X35573850Y-182333789D01*
X35564503Y-182113542D01*
X35549470Y-181926454D01*
X35547161Y-181905806D01*
X35452792Y-181306279D01*
X35311521Y-180725648D01*
X35123951Y-180165166D01*
X34890686Y-179626086D01*
X34612328Y-179109659D01*
X34289481Y-178617140D01*
X33922748Y-178149779D01*
X33537998Y-177733974D01*
X33099926Y-177331074D01*
X32634842Y-176970287D01*
X32145362Y-176652395D01*
X31634099Y-176378182D01*
X31103670Y-176148431D01*
X30556687Y-175963924D01*
X29995766Y-175825446D01*
X29423522Y-175733780D01*
X28842568Y-175689707D01*
X28255520Y-175694012D01*
X27664992Y-175747478D01*
X27177835Y-175828990D01*
X26617387Y-175968079D01*
X26072813Y-176154059D01*
X25546800Y-176384709D01*
X25042033Y-176657810D01*
X24561198Y-176971142D01*
X24106981Y-177322485D01*
X23682067Y-177709618D01*
X23289142Y-178130322D01*
X22930891Y-178582376D01*
X22610001Y-179063561D01*
X22329156Y-179571657D01*
X22134290Y-179998008D01*
X21934310Y-180544047D01*
X21781599Y-181105072D01*
X21676241Y-181677108D01*
X21618321Y-182256182D01*
X21607924Y-182838317D01*
X17072973Y-182838317D01*
X17072973Y-171672072D01*
X65152453Y-171672072D01*
G37*
G36*
X48760031Y-10805570D02*
G01*
X48989330Y-10806162D01*
X49176555Y-10807326D01*
X49326095Y-10809211D01*
X49442338Y-10811963D01*
X49529671Y-10815729D01*
X49592484Y-10820655D01*
X49635164Y-10826887D01*
X49662099Y-10834574D01*
X49677678Y-10843862D01*
X49679265Y-10845360D01*
X49712590Y-10884035D01*
X49713566Y-10917118D01*
X49694454Y-10956725D01*
X49683283Y-10971928D01*
X49663943Y-10983099D01*
X49629845Y-10990616D01*
X49574401Y-10994855D01*
X49491023Y-10996194D01*
X49373121Y-10995009D01*
X49214107Y-10991677D01*
X49122382Y-10989454D01*
X48575075Y-10975910D01*
X48575075Y-11847848D01*
X49006044Y-11847848D01*
X49165472Y-11848355D01*
X49281456Y-11850350D01*
X49361395Y-11854546D01*
X49412691Y-11861654D01*
X49442745Y-11872388D01*
X49458956Y-11887458D01*
X49461546Y-11891686D01*
X49471059Y-11956316D01*
X49461915Y-11980675D01*
X49448543Y-11997302D01*
X49424008Y-12009302D01*
X49380873Y-12017413D01*
X49311703Y-12022371D01*
X49209061Y-12024915D01*
X49065512Y-12025782D01*
X49006683Y-12025826D01*
X48575615Y-12025826D01*
X48568989Y-13125476D01*
X48562362Y-14225126D01*
X47963195Y-14231931D01*
X47793521Y-14233141D01*
X47641017Y-14232862D01*
X47512967Y-14231217D01*
X47416656Y-14228333D01*
X47359368Y-14224334D01*
X47346629Y-14221337D01*
X47343668Y-14193589D01*
X47340866Y-14119212D01*
X47338266Y-14002425D01*
X47335909Y-13847450D01*
X47333840Y-13658508D01*
X47332101Y-13439819D01*
X47330735Y-13195604D01*
X47329784Y-12930084D01*
X47329291Y-12647480D01*
X47329229Y-12504672D01*
X47329229Y-10805406D01*
X48484270Y-10805406D01*
X48760031Y-10805570D01*
G37*
G36*
X35989490Y-56287833D02*
G01*
X35843293Y-56305650D01*
X35597134Y-56357328D01*
X35367921Y-56447569D01*
X35160886Y-56571644D01*
X34981259Y-56724823D01*
X34834270Y-56902377D01*
X34725150Y-57099576D01*
X34659129Y-57311690D01*
X34647346Y-57387078D01*
X34641985Y-57635823D01*
X34683240Y-57870502D01*
X34767946Y-58087425D01*
X34892939Y-58282901D01*
X35055054Y-58453240D01*
X35251125Y-58594750D01*
X35477989Y-58703740D01*
X35732479Y-58776520D01*
X35856006Y-58796580D01*
X35989490Y-58813381D01*
X35989490Y-59418819D01*
X35868719Y-59415647D01*
X35764957Y-59409425D01*
X35652506Y-59397736D01*
X35620821Y-59393355D01*
X35330810Y-59325511D01*
X35060858Y-59214834D01*
X34814436Y-59065754D01*
X34595017Y-58882698D01*
X34406071Y-58670094D01*
X34251072Y-58432371D01*
X34133490Y-58173955D01*
X34056798Y-57899276D01*
X34024467Y-57612761D01*
X34033801Y-57369218D01*
X34055139Y-57211467D01*
X34085093Y-57078214D01*
X34129708Y-56949853D01*
X34195034Y-56806775D01*
X34226383Y-56744782D01*
X34387605Y-56485970D01*
X34586826Y-56258648D01*
X34820296Y-56065272D01*
X35084267Y-55908301D01*
X35374989Y-55790189D01*
X35688713Y-55713394D01*
X35830581Y-55693597D01*
X35989490Y-55676289D01*
X35989490Y-56287833D01*
G37*
G36*
X43973073Y-136229029D02*
G01*
X42676376Y-136229029D01*
X42676376Y-136432433D01*
X43998499Y-136432433D01*
X43998499Y-137042643D01*
X42676376Y-137042643D01*
X42676376Y-137355846D01*
X42681299Y-137555864D01*
X42696312Y-137710031D01*
X42717010Y-137807147D01*
X42806783Y-138024863D01*
X42938759Y-138221783D01*
X43106844Y-138393022D01*
X43304943Y-138533695D01*
X43526961Y-138638915D01*
X43766804Y-138703797D01*
X43850349Y-138715692D01*
X44011211Y-138733434D01*
X44011211Y-139343644D01*
X43909510Y-139347476D01*
X43825734Y-139345671D01*
X43720878Y-139336901D01*
X43656164Y-139328640D01*
X43375411Y-139261669D01*
X43105575Y-139148904D01*
X42853329Y-138995229D01*
X42625346Y-138805523D01*
X42428299Y-138584669D01*
X42268862Y-138337547D01*
X42249041Y-138299386D01*
X42187877Y-138168388D01*
X42142575Y-138044910D01*
X42110424Y-137916357D01*
X42088710Y-137770135D01*
X42074719Y-137593648D01*
X42068684Y-137462163D01*
X42053454Y-137055356D01*
X41945396Y-137047537D01*
X41837337Y-137039719D01*
X41837337Y-136432433D01*
X42066166Y-136432433D01*
X42066166Y-135618819D01*
X43973073Y-135618819D01*
X43973073Y-136229029D01*
G37*
G36*
X49388689Y-96179944D02*
G01*
X49318769Y-96193041D01*
X49250956Y-96204336D01*
X49161180Y-96217599D01*
X49122284Y-96222914D01*
X48904760Y-96276120D01*
X48693979Y-96373584D01*
X48498662Y-96508750D01*
X48327531Y-96675064D01*
X48189308Y-96865971D01*
X48138058Y-96962611D01*
X48059839Y-97183665D01*
X48029117Y-97406182D01*
X48042913Y-97625455D01*
X48098249Y-97836777D01*
X48192147Y-98035441D01*
X48321628Y-98216741D01*
X48483713Y-98375969D01*
X48675424Y-98508418D01*
X48893783Y-98609382D01*
X49135811Y-98674153D01*
X49229780Y-98687891D01*
X49388689Y-98706094D01*
X49388689Y-99311312D01*
X49242493Y-99308321D01*
X49133829Y-99302697D01*
X49022783Y-99291781D01*
X48975866Y-99285052D01*
X48692466Y-99213038D01*
X48428349Y-99098419D01*
X48187043Y-98945896D01*
X47972077Y-98760166D01*
X47786980Y-98545930D01*
X47635281Y-98307888D01*
X47520508Y-98050737D01*
X47446190Y-97779179D01*
X47415855Y-97497913D01*
X47430804Y-97227354D01*
X47495262Y-96937121D01*
X47604392Y-96665937D01*
X47754491Y-96417171D01*
X47941860Y-96194189D01*
X48162796Y-96000361D01*
X48413598Y-95839054D01*
X48690565Y-95713637D01*
X48989996Y-95627476D01*
X49229780Y-95590374D01*
X49388689Y-95574554D01*
X49388689Y-96179944D01*
G37*
G36*
X24131557Y-203754764D02*
G01*
X24132406Y-203754820D01*
X24214488Y-203760348D01*
X24637045Y-202469313D01*
X24719207Y-202218251D01*
X24798057Y-201977242D01*
X24871899Y-201751477D01*
X24939037Y-201546146D01*
X24997773Y-201366438D01*
X25046412Y-201217542D01*
X25083257Y-201104649D01*
X25106612Y-201032947D01*
X25111544Y-201017746D01*
X25139069Y-200938449D01*
X25161424Y-200884506D01*
X25173794Y-200867522D01*
X25173830Y-200867558D01*
X25183741Y-200892106D01*
X25209487Y-200959853D01*
X25249393Y-201066255D01*
X25301786Y-201206769D01*
X25364991Y-201376852D01*
X25437333Y-201571962D01*
X25517139Y-201787555D01*
X25602733Y-202019088D01*
X25692441Y-202262018D01*
X25784590Y-202511803D01*
X25877504Y-202763899D01*
X25969509Y-203013763D01*
X26058931Y-203256852D01*
X26144095Y-203488624D01*
X26223327Y-203704534D01*
X26294953Y-203900041D01*
X26357298Y-204070602D01*
X26408687Y-204211672D01*
X26447447Y-204318710D01*
X26471903Y-204387172D01*
X26480380Y-204412506D01*
X26456238Y-204414805D01*
X26388929Y-204416182D01*
X26286128Y-204416612D01*
X26155512Y-204416068D01*
X26004756Y-204414525D01*
X25980584Y-204414202D01*
X25480787Y-204407308D01*
X25324659Y-203987788D01*
X24303803Y-203987788D01*
X24245077Y-204172123D01*
X24196483Y-204302316D01*
X24147421Y-204393069D01*
X24100470Y-204441924D01*
X24058210Y-204446423D01*
X24023220Y-204404108D01*
X24017129Y-204389293D01*
X24013104Y-204326756D01*
X24040199Y-204236459D01*
X24053635Y-204204959D01*
X24098998Y-204100709D01*
X24123109Y-204032647D01*
X24126393Y-203990962D01*
X24109276Y-203965844D01*
X24072182Y-203947482D01*
X24064915Y-203944701D01*
X24007392Y-203910427D01*
X23988854Y-203859113D01*
X23988689Y-203851657D01*
X24002170Y-203789940D01*
X24029096Y-203771672D01*
X24374210Y-203771672D01*
X24442060Y-203787733D01*
X24491247Y-203793677D01*
X24580148Y-203799063D01*
X24697626Y-203803409D01*
X24832544Y-203806237D01*
X24884668Y-203806802D01*
X25259426Y-203809810D01*
X25187276Y-203612763D01*
X25154125Y-203522237D01*
X25108111Y-203396601D01*
X25053863Y-203248492D01*
X24996009Y-203090547D01*
X24954239Y-202976518D01*
X24902599Y-202839045D01*
X24855907Y-202721303D01*
X24817166Y-202630346D01*
X24789381Y-202573230D01*
X24775568Y-202556998D01*
X24763173Y-202585749D01*
X24737744Y-202656151D01*
X24701598Y-202761379D01*
X24657053Y-202894606D01*
X24606428Y-203049007D01*
X24565997Y-203174175D01*
X24374210Y-203771672D01*
X24029096Y-203771672D01*
X24047399Y-203759254D01*
X24131557Y-203754764D01*
G37*
G36*
X34825348Y-203942422D02*
G01*
X34679894Y-203718158D01*
X34642155Y-203644545D01*
X34571163Y-203486284D01*
X34519686Y-203339863D01*
X34484251Y-203190153D01*
X34461383Y-203022027D01*
X34447611Y-202820356D01*
X34446341Y-202791690D01*
X34449897Y-202462235D01*
X34490614Y-202165424D01*
X34569639Y-201898002D01*
X34688117Y-201656718D01*
X34847194Y-201438315D01*
X34967224Y-201312482D01*
X35161094Y-201156593D01*
X35368693Y-201047816D01*
X35595784Y-200983870D01*
X35848133Y-200962472D01*
X35851391Y-200962464D01*
X36102833Y-200985438D01*
X36334019Y-201053671D01*
X36543003Y-201164984D01*
X36727834Y-201317196D01*
X36886566Y-201508125D01*
X37017250Y-201735592D01*
X37117937Y-201997414D01*
X37186681Y-202291412D01*
X37212101Y-202485673D01*
X37221064Y-202793818D01*
X37190604Y-203094794D01*
X37122832Y-203381448D01*
X37019862Y-203646624D01*
X36883803Y-203883168D01*
X36750675Y-204048992D01*
X36561117Y-204216030D01*
X36347000Y-204341190D01*
X36114736Y-204422213D01*
X35870737Y-204456840D01*
X35629190Y-204444005D01*
X35403522Y-204384893D01*
X35191460Y-204279271D01*
X35156445Y-204252463D01*
X35646246Y-204252463D01*
X35709810Y-204270651D01*
X35791194Y-204280336D01*
X35903210Y-204276125D01*
X36028100Y-204259756D01*
X36148107Y-204232968D01*
X36174148Y-204225202D01*
X36376208Y-204135089D01*
X36558901Y-204000650D01*
X36719066Y-203825756D01*
X36853542Y-203614280D01*
X36959168Y-203370093D01*
X37009200Y-203202305D01*
X37031641Y-203104524D01*
X37046094Y-203014867D01*
X37053611Y-202919065D01*
X37055244Y-202802844D01*
X37052045Y-202651933D01*
X37051368Y-202630233D01*
X37036216Y-202390059D01*
X37005124Y-202186570D01*
X36954467Y-202007115D01*
X36880619Y-201839042D01*
X36779954Y-201669699D01*
X36773164Y-201659493D01*
X36621889Y-201466907D01*
X36456103Y-201321984D01*
X36272288Y-201222742D01*
X36066929Y-201167195D01*
X35875075Y-201152853D01*
X35646246Y-201152853D01*
X35646246Y-204252463D01*
X35156445Y-204252463D01*
X34997302Y-204130620D01*
X34825348Y-203942422D01*
G37*
G36*
X21613681Y-156929672D02*
G01*
X21695827Y-156363494D01*
X21824195Y-155804081D01*
X21998714Y-155254376D01*
X22219312Y-154717324D01*
X22485918Y-154195868D01*
X22798460Y-153692953D01*
X22815957Y-153667379D01*
X23134598Y-153243401D01*
X23495448Y-152834519D01*
X23890393Y-152448516D01*
X24311318Y-152093173D01*
X24750110Y-151776272D01*
X24865866Y-151701296D01*
X25010834Y-151615064D01*
X25190019Y-151516871D01*
X25390542Y-151413064D01*
X25599524Y-151309991D01*
X25804086Y-151213998D01*
X25991350Y-151131432D01*
X26148436Y-151068639D01*
X26153137Y-151066911D01*
X26687393Y-150894068D01*
X27228899Y-150765355D01*
X27790693Y-150677702D01*
X27819581Y-150674338D01*
X28196597Y-150631123D01*
X28209381Y-134945045D01*
X32924734Y-130228629D01*
X37640086Y-125512213D01*
X37561767Y-125410511D01*
X37281021Y-125006559D01*
X37048437Y-124586533D01*
X36864161Y-124150857D01*
X36728341Y-123699958D01*
X36641121Y-123234262D01*
X36602649Y-122754195D01*
X36600631Y-122613714D01*
X36606443Y-122501098D01*
X36626143Y-122501098D01*
X36637029Y-122959514D01*
X36693593Y-123405966D01*
X36793517Y-123838132D01*
X36934478Y-124253692D01*
X37114156Y-124650325D01*
X37330231Y-125025710D01*
X37580380Y-125377527D01*
X37862285Y-125703455D01*
X38173623Y-126001173D01*
X38512075Y-126268361D01*
X38875319Y-126502696D01*
X39261035Y-126701860D01*
X39666902Y-126863531D01*
X40090599Y-126985388D01*
X40529805Y-127065110D01*
X40982200Y-127100377D01*
X41445462Y-127088869D01*
X41693388Y-127063170D01*
X42131431Y-126985261D01*
X42546521Y-126867815D01*
X42952213Y-126706690D01*
X43115113Y-126628974D01*
X43528039Y-126395240D01*
X43908911Y-126123796D01*
X44255909Y-125817709D01*
X44567215Y-125480049D01*
X44841009Y-125113884D01*
X45075475Y-124722282D01*
X45268792Y-124308312D01*
X45419143Y-123875043D01*
X45524708Y-123425542D01*
X45583670Y-122962878D01*
X45594209Y-122490120D01*
X45592770Y-122448449D01*
X45561491Y-122037943D01*
X45498959Y-121656486D01*
X45401728Y-121290552D01*
X45266352Y-120926616D01*
X45129625Y-120630531D01*
X44980764Y-120349365D01*
X44829216Y-120102799D01*
X44664124Y-119875752D01*
X44474629Y-119653144D01*
X44278273Y-119448154D01*
X44041276Y-119223032D01*
X43812738Y-119032776D01*
X43578161Y-118866879D01*
X43323052Y-118714830D01*
X43121321Y-118609426D01*
X42692331Y-118419094D01*
X42264714Y-118277503D01*
X41832137Y-118183129D01*
X41388265Y-118134451D01*
X41112713Y-118126544D01*
X40659224Y-118148402D01*
X40220805Y-118214995D01*
X39791099Y-118327851D01*
X39363747Y-118488498D01*
X39104104Y-118609317D01*
X38690310Y-118843173D01*
X38308118Y-119115539D01*
X37959573Y-119423547D01*
X37646720Y-119764328D01*
X37371604Y-120135013D01*
X37136271Y-120532733D01*
X36942766Y-120954620D01*
X36793133Y-121397805D01*
X36689417Y-121859420D01*
X36663257Y-122033038D01*
X36626143Y-122501098D01*
X36606443Y-122501098D01*
X36625219Y-122137319D01*
X36697636Y-121673768D01*
X36815863Y-121225857D01*
X36977880Y-120796385D01*
X37181668Y-120388149D01*
X37425208Y-120003948D01*
X37706479Y-119646578D01*
X38023463Y-119318838D01*
X38374140Y-119023526D01*
X38756491Y-118763438D01*
X39168495Y-118541373D01*
X39608134Y-118360128D01*
X39691619Y-118331533D01*
X40147101Y-118205739D01*
X40602585Y-118128982D01*
X41055272Y-118099524D01*
X41502364Y-118115629D01*
X41941062Y-118175558D01*
X42368567Y-118277576D01*
X42782081Y-118419945D01*
X43178807Y-118600929D01*
X43555944Y-118818789D01*
X43910695Y-119071788D01*
X44240261Y-119358191D01*
X44541844Y-119676259D01*
X44812646Y-120024256D01*
X45049867Y-120400444D01*
X45250709Y-120803086D01*
X45412375Y-121230446D01*
X45532065Y-121680786D01*
X45586871Y-121990906D01*
X45609412Y-122208519D01*
X45621286Y-122456436D01*
X45622487Y-122715637D01*
X45613007Y-122967106D01*
X45592840Y-123191823D01*
X45587319Y-123233330D01*
X45495093Y-123706123D01*
X45356456Y-124160286D01*
X45173273Y-124593169D01*
X44947406Y-125002121D01*
X44680720Y-125384494D01*
X44375079Y-125737638D01*
X44032346Y-126058902D01*
X43654385Y-126345637D01*
X43243060Y-126595194D01*
X43210310Y-126612659D01*
X42782941Y-126811225D01*
X42344254Y-126960933D01*
X41891837Y-127062373D01*
X41423278Y-127116136D01*
X41112713Y-127125796D01*
X40628597Y-127101352D01*
X40158730Y-127028119D01*
X39703538Y-126906243D01*
X39263446Y-126735869D01*
X38838881Y-126517145D01*
X38430267Y-126250216D01*
X38315916Y-126164660D01*
X38214214Y-126086341D01*
X28997498Y-135300949D01*
X28997498Y-150638680D01*
X29207257Y-150655671D01*
X29782251Y-150727360D01*
X30345597Y-150847217D01*
X30894655Y-151013363D01*
X31426786Y-151223918D01*
X31939348Y-151477005D01*
X32429701Y-151770744D01*
X32895206Y-152103255D01*
X33333220Y-152472661D01*
X33741105Y-152877082D01*
X34116219Y-153314639D01*
X34455922Y-153783454D01*
X34757574Y-154281646D01*
X35007867Y-154783485D01*
X35168502Y-155178857D01*
X35311411Y-155606833D01*
X35431752Y-156050822D01*
X35524682Y-156494235D01*
X35547783Y-156632933D01*
X35567509Y-156798657D01*
X35582446Y-157004045D01*
X35592593Y-157238137D01*
X35597952Y-157489974D01*
X35598522Y-157748594D01*
X35594303Y-158003039D01*
X35585294Y-158242347D01*
X35571497Y-158455559D01*
X35552911Y-158631714D01*
X35547783Y-158666967D01*
X35464621Y-159106705D01*
X35352502Y-159552312D01*
X35216270Y-159987201D01*
X35060766Y-160394781D01*
X35007867Y-160516416D01*
X34743197Y-161044753D01*
X34437782Y-161545058D01*
X34094119Y-162015409D01*
X33714704Y-162453884D01*
X33302034Y-162858561D01*
X32858605Y-163227518D01*
X32386915Y-163558833D01*
X31889458Y-163850583D01*
X31368733Y-164100848D01*
X30827236Y-164307705D01*
X30267462Y-164469232D01*
X29733345Y-164576977D01*
X29359986Y-164626943D01*
X28980928Y-164658875D01*
X28613045Y-164671795D01*
X28273212Y-164664720D01*
X28247448Y-164663244D01*
X27632899Y-164601753D01*
X27034999Y-164492523D01*
X26454497Y-164335709D01*
X26153137Y-164232989D01*
X25997315Y-164170988D01*
X25810874Y-164088996D01*
X25606692Y-163993358D01*
X25397649Y-163890423D01*
X25196622Y-163786536D01*
X25016491Y-163688045D01*
X24870135Y-163601297D01*
X24865866Y-163598605D01*
X24430144Y-163296959D01*
X24008142Y-162953614D01*
X23607367Y-162576118D01*
X23235322Y-162172018D01*
X22899515Y-161748861D01*
X22629113Y-161349350D01*
X22338902Y-160835037D01*
X22095486Y-160303937D01*
X21898794Y-159758994D01*
X21748754Y-159203152D01*
X21645294Y-158639354D01*
X21588343Y-158070546D01*
X21581495Y-157698707D01*
X21612934Y-157698707D01*
X21617187Y-157963587D01*
X21627680Y-158212850D01*
X21644412Y-158433278D01*
X21658318Y-158552553D01*
X21765648Y-159147798D01*
X21919989Y-159725567D01*
X22120354Y-160283857D01*
X22365755Y-160820668D01*
X22655205Y-161333996D01*
X22987717Y-161821839D01*
X23362304Y-162282194D01*
X23645446Y-162583430D01*
X24084993Y-162989220D01*
X24552658Y-163352947D01*
X25046811Y-163673786D01*
X25565822Y-163950916D01*
X26108061Y-164183514D01*
X26671897Y-164370757D01*
X27255700Y-164511822D01*
X27579102Y-164568572D01*
X27724659Y-164587439D01*
X27898493Y-164604681D01*
X28086951Y-164619447D01*
X28276382Y-164630882D01*
X28453135Y-164638136D01*
X28603558Y-164640353D01*
X28692393Y-164638118D01*
X28778143Y-164633621D01*
X28896384Y-164627645D01*
X29028813Y-164621107D01*
X29112450Y-164617057D01*
X29584557Y-164572715D01*
X30071439Y-164485618D01*
X30564478Y-164358163D01*
X31055059Y-164192748D01*
X31534564Y-163991770D01*
X31768454Y-163878193D01*
X32287350Y-163585809D01*
X32776003Y-163253276D01*
X33232566Y-162882629D01*
X33655192Y-162475901D01*
X34042036Y-162035126D01*
X34391250Y-161562338D01*
X34700988Y-161059572D01*
X34969405Y-160528862D01*
X35110342Y-160196629D01*
X35297221Y-159654912D01*
X35437627Y-159097118D01*
X35531560Y-158527814D01*
X35579021Y-157951564D01*
X35580009Y-157372933D01*
X35534525Y-156796489D01*
X35442568Y-156226796D01*
X35304139Y-155668420D01*
X35119237Y-155125926D01*
X35110342Y-155103272D01*
X34869082Y-154559907D01*
X34585965Y-154043416D01*
X34263221Y-153555768D01*
X33903084Y-153098933D01*
X33507783Y-152674880D01*
X33079551Y-152285577D01*
X32620620Y-151932993D01*
X32133221Y-151619097D01*
X31619585Y-151345859D01*
X31081944Y-151115247D01*
X30522531Y-150929230D01*
X30316440Y-150873610D01*
X30103244Y-150821175D01*
X29914661Y-150779214D01*
X29740576Y-150746612D01*
X29570873Y-150722254D01*
X29395438Y-150705025D01*
X29204154Y-150693809D01*
X28986907Y-150687492D01*
X28733581Y-150684957D01*
X28603404Y-150684754D01*
X28358203Y-150685512D01*
X28156556Y-150687833D01*
X27991179Y-150692028D01*
X27854791Y-150698405D01*
X27740108Y-150707271D01*
X27639850Y-150718936D01*
X27579102Y-150728143D01*
X26968015Y-150852782D01*
X26383790Y-151020578D01*
X25826262Y-151231614D01*
X25295263Y-151485976D01*
X24790628Y-151783746D01*
X24312190Y-152125010D01*
X23859782Y-152509850D01*
X23645446Y-152716471D01*
X23242338Y-153156646D01*
X22880624Y-153625693D01*
X22561288Y-154121610D01*
X22285320Y-154642395D01*
X22053704Y-155186044D01*
X21867430Y-155750556D01*
X21727484Y-156333929D01*
X21658318Y-156747348D01*
X21637612Y-156942530D01*
X21623147Y-157174961D01*
X21614921Y-157431426D01*
X21612934Y-157698707D01*
X21581495Y-157698707D01*
X21577829Y-157499671D01*
X21613681Y-156929672D01*
G37*
G36*
X45168068Y-96183984D02*
G01*
X43871371Y-96183984D01*
X43871371Y-96387388D01*
X45193494Y-96387388D01*
X45193494Y-97023023D01*
X43871371Y-97023023D01*
X43871371Y-97325863D01*
X43882536Y-97567699D01*
X43918688Y-97773096D01*
X43983817Y-97951928D01*
X44081914Y-98114070D01*
X44216968Y-98269397D01*
X44275216Y-98325375D01*
X44452234Y-98462453D01*
X44654778Y-98567807D01*
X44889726Y-98644390D01*
X45123574Y-98689584D01*
X45218919Y-98703406D01*
X45218919Y-99311312D01*
X45085436Y-99309017D01*
X44987766Y-99302829D01*
X44868994Y-99289073D01*
X44773974Y-99274043D01*
X44493925Y-99197282D01*
X44229207Y-99074675D01*
X43984712Y-98910140D01*
X43765335Y-98707599D01*
X43575971Y-98470973D01*
X43421513Y-98204182D01*
X43411053Y-98182170D01*
X43344615Y-98014000D01*
X43298964Y-97833147D01*
X43272051Y-97628155D01*
X43261825Y-97387569D01*
X43261603Y-97347198D01*
X43261161Y-97023023D01*
X43032332Y-97023023D01*
X43032332Y-96387388D01*
X43261161Y-96387388D01*
X43261161Y-95573774D01*
X45168068Y-95573774D01*
X45168068Y-96183984D01*
G37*
G36*
X34438539Y-101141942D02*
G01*
X34342179Y-101141942D01*
X34150621Y-101163589D01*
X33948548Y-101224692D01*
X33748716Y-101319495D01*
X33563882Y-101442239D01*
X33445200Y-101546733D01*
X33280197Y-101743688D01*
X33163013Y-101954334D01*
X33094210Y-102175428D01*
X33074348Y-102403725D01*
X33103989Y-102635984D01*
X33183696Y-102868958D01*
X33207553Y-102919082D01*
X33323412Y-103100049D01*
X33477167Y-103264328D01*
X33659136Y-103405779D01*
X33859635Y-103518260D01*
X34068984Y-103595631D01*
X34277500Y-103631749D01*
X34334151Y-103633634D01*
X34438539Y-103633634D01*
X34438539Y-104243844D01*
X34254204Y-104241058D01*
X34144791Y-104236720D01*
X34040095Y-104228125D01*
X33967912Y-104218000D01*
X33686810Y-104136409D01*
X33419988Y-104007145D01*
X33171236Y-103832296D01*
X33025269Y-103699433D01*
X32830425Y-103479382D01*
X32681291Y-103251720D01*
X32572766Y-103006747D01*
X32499751Y-102734765D01*
X32489731Y-102680731D01*
X32462029Y-102417877D01*
X32475293Y-102169112D01*
X32531193Y-101922559D01*
X32631400Y-101666344D01*
X32632877Y-101663164D01*
X32784708Y-101391546D01*
X32971036Y-101156523D01*
X33193917Y-100956011D01*
X33455406Y-100787922D01*
X33535936Y-100746327D01*
X33750445Y-100651363D01*
X33949706Y-100587740D01*
X34153360Y-100549799D01*
X34254204Y-100539390D01*
X34438539Y-100524392D01*
X34438539Y-101141942D01*
G37*
G36*
X35274993Y-10795953D02*
G01*
X35305805Y-10839539D01*
X35315263Y-10875243D01*
X35311208Y-10921786D01*
X35291078Y-10989457D01*
X35252312Y-11088546D01*
X35231436Y-11138288D01*
X35203622Y-11205000D01*
X35158818Y-11313949D01*
X35099030Y-11460201D01*
X35026262Y-11638823D01*
X34942519Y-11844883D01*
X34849806Y-12073445D01*
X34750128Y-12319578D01*
X34645490Y-12578348D01*
X34540068Y-12839440D01*
X34435634Y-13097900D01*
X34336560Y-13342365D01*
X34244520Y-13568754D01*
X34161185Y-13772988D01*
X34088230Y-13950986D01*
X34027326Y-14098668D01*
X33980147Y-14211955D01*
X33948365Y-14286767D01*
X33933653Y-14319023D01*
X33933069Y-14319891D01*
X33920222Y-14300267D01*
X33888373Y-14237704D01*
X33839158Y-14135740D01*
X33774210Y-13997911D01*
X33695162Y-13827756D01*
X33603650Y-13628810D01*
X33501306Y-13404613D01*
X33389765Y-13158700D01*
X33270661Y-12894609D01*
X33145626Y-12615878D01*
X33134481Y-12590962D01*
X33009036Y-12310190D01*
X32889827Y-12042868D01*
X32778462Y-11792629D01*
X32676544Y-11563105D01*
X32585682Y-11357928D01*
X32507479Y-11180731D01*
X32443543Y-11035146D01*
X32395479Y-10924806D01*
X32364893Y-10853343D01*
X32353390Y-10824390D01*
X32353341Y-10824046D01*
X32377731Y-10819039D01*
X32446249Y-10815028D01*
X32552178Y-10812143D01*
X32688804Y-10810514D01*
X32849409Y-10810273D01*
X33007395Y-10811333D01*
X33661136Y-10818119D01*
X34022526Y-11669870D01*
X34106054Y-11866276D01*
X34184018Y-12048719D01*
X34254037Y-12211692D01*
X34313729Y-12349692D01*
X34360714Y-12457213D01*
X34392610Y-12528751D01*
X34406897Y-12558580D01*
X34420101Y-12553553D01*
X34445321Y-12512828D01*
X34483534Y-12434223D01*
X34535719Y-12315554D01*
X34602851Y-12154639D01*
X34685908Y-11949293D01*
X34736901Y-11821242D01*
X34812491Y-11629998D01*
X34883172Y-11450018D01*
X34946438Y-11287771D01*
X34999785Y-11149724D01*
X35040707Y-11042345D01*
X35066700Y-10972101D01*
X35073810Y-10951370D01*
X35115530Y-10859121D01*
X35168207Y-10799943D01*
X35223981Y-10777624D01*
X35274993Y-10795953D01*
G37*
G36*
X42574675Y-101141942D02*
G01*
X41252553Y-101141942D01*
X41252553Y-101345346D01*
X42600100Y-101345346D01*
X42600100Y-101955556D01*
X41252553Y-101955556D01*
X41252745Y-102178028D01*
X41256191Y-102306254D01*
X41265114Y-102439807D01*
X41277691Y-102552474D01*
X41279670Y-102565273D01*
X41341693Y-102793525D01*
X41448164Y-103004506D01*
X41594146Y-103193070D01*
X41774699Y-103354071D01*
X41984889Y-103482361D01*
X42219777Y-103572795D01*
X42255434Y-103582419D01*
X42359873Y-103606874D01*
X42453992Y-103624977D01*
X42520101Y-103633402D01*
X42527891Y-103633634D01*
X42600100Y-103633634D01*
X42600100Y-104243844D01*
X42428479Y-104241823D01*
X42308162Y-104235125D01*
X42179779Y-104220012D01*
X42103335Y-104206380D01*
X41835288Y-104122687D01*
X41580266Y-103993575D01*
X41344230Y-103823984D01*
X41133142Y-103618853D01*
X40952963Y-103383123D01*
X40819104Y-103142355D01*
X40758091Y-102997215D01*
X40713319Y-102853927D01*
X40682049Y-102699167D01*
X40661545Y-102519612D01*
X40649704Y-102317868D01*
X40634874Y-101955556D01*
X40438939Y-101955556D01*
X40438939Y-101345346D01*
X40642342Y-101345346D01*
X40642342Y-100531732D01*
X42574675Y-100531732D01*
X42574675Y-101141942D01*
G37*
G36*
X37858021Y-10798373D02*
G01*
X38073045Y-10846514D01*
X38189440Y-10886303D01*
X38314924Y-10939743D01*
X38433857Y-10999199D01*
X38530597Y-11057035D01*
X38576527Y-11092278D01*
X38622781Y-11159106D01*
X38630159Y-11229355D01*
X38597121Y-11287199D01*
X38595619Y-11288470D01*
X38541733Y-11303191D01*
X38469933Y-11284911D01*
X38395663Y-11239010D01*
X38362249Y-11207184D01*
X38277288Y-11140782D01*
X38152790Y-11079332D01*
X38000022Y-11025665D01*
X37830254Y-10982613D01*
X37654754Y-10953008D01*
X37484792Y-10939682D01*
X37331635Y-10945467D01*
X37324324Y-10946346D01*
X37184485Y-10963818D01*
X37184485Y-14057556D01*
X37277048Y-14074921D01*
X37365332Y-14082859D01*
X37487075Y-14082681D01*
X37625741Y-14075565D01*
X37764797Y-14062690D01*
X37887706Y-14045237D01*
X37975686Y-14025101D01*
X38180810Y-13942898D01*
X38351294Y-13834583D01*
X38433432Y-13762645D01*
X38525192Y-13686616D01*
X38597282Y-13654650D01*
X38648128Y-13666837D01*
X38676158Y-13723270D01*
X38679837Y-13748363D01*
X38676405Y-13811829D01*
X38645100Y-13866179D01*
X38604798Y-13906772D01*
X38517039Y-13971875D01*
X38395399Y-14042115D01*
X38255230Y-14109911D01*
X38111885Y-14167682D01*
X38010811Y-14200068D01*
X37892695Y-14223326D01*
X37739205Y-14240299D01*
X37565477Y-14250593D01*
X37386643Y-14253813D01*
X37217841Y-14249564D01*
X37074203Y-14237451D01*
X37006507Y-14226269D01*
X36716847Y-14141464D01*
X36454391Y-14017942D01*
X36222759Y-13858380D01*
X36025572Y-13665455D01*
X35866450Y-13441843D01*
X35814630Y-13345137D01*
X35732379Y-13162416D01*
X35676159Y-12996463D01*
X35641880Y-12829213D01*
X35625450Y-12642603D01*
X35622387Y-12496197D01*
X35632109Y-12260878D01*
X35665133Y-12055682D01*
X35725603Y-11863627D01*
X35817666Y-11667732D01*
X35830326Y-11644445D01*
X35917226Y-11513849D01*
X36035737Y-11373254D01*
X36172432Y-11236268D01*
X36313883Y-11116499D01*
X36429069Y-11037660D01*
X36681715Y-10915714D01*
X36961260Y-10829611D01*
X37257377Y-10780553D01*
X37559739Y-10769740D01*
X37858021Y-10798373D01*
G37*
G36*
X34661176Y-167801051D02*
G01*
X34667698Y-169663464D01*
X34057157Y-169663464D01*
X34057157Y-166921849D01*
X33932777Y-166830545D01*
X33816555Y-166755515D01*
X33680093Y-166682710D01*
X33546400Y-166623791D01*
X33478729Y-166600438D01*
X33421522Y-166583561D01*
X33421522Y-169663464D01*
X32810981Y-169663464D01*
X32817503Y-167801051D01*
X32824024Y-165938639D01*
X33102973Y-165945890D01*
X33433196Y-165975873D01*
X33735313Y-166047987D01*
X33911373Y-166115067D01*
X34054446Y-166178340D01*
X34062158Y-166058490D01*
X34069870Y-165938639D01*
X34654655Y-165938639D01*
X34661176Y-167801051D01*
G37*
G36*
X45682933Y-95581447D02*
G01*
X45902521Y-95603584D01*
X46121507Y-95644328D01*
X46324093Y-95699961D01*
X46494483Y-95766766D01*
X46516442Y-95777599D01*
X46579676Y-95808392D01*
X46621886Y-95826237D01*
X46629017Y-95828028D01*
X46636849Y-95805146D01*
X46641819Y-95746645D01*
X46642743Y-95700901D01*
X46642743Y-95573774D01*
X47227528Y-95573774D01*
X47227528Y-99311312D01*
X46642743Y-99311312D01*
X46642743Y-96594754D01*
X46534685Y-96502253D01*
X46442312Y-96434862D01*
X46323333Y-96363786D01*
X46198119Y-96300056D01*
X46087043Y-96254700D01*
X46064514Y-96247706D01*
X46007505Y-96231535D01*
X45994395Y-99298599D01*
X45396897Y-99312925D01*
X45396897Y-95565995D01*
X45682933Y-95581447D01*
G37*
G36*
X43186061Y-200970500D02*
G01*
X43397264Y-201007647D01*
X43587849Y-201083562D01*
X43767445Y-201201851D01*
X43910546Y-201330277D01*
X44082886Y-201531940D01*
X44216862Y-201757430D01*
X44317604Y-202015624D01*
X44329632Y-202055871D01*
X44362530Y-202207224D01*
X44386187Y-202392190D01*
X44399792Y-202594237D01*
X44402532Y-202796831D01*
X44393596Y-202983438D01*
X44380538Y-203092118D01*
X44322366Y-203344393D01*
X44232718Y-203588063D01*
X44116971Y-203812460D01*
X43980500Y-204006916D01*
X43851916Y-204140964D01*
X43697694Y-204252745D01*
X43514444Y-204347978D01*
X43323147Y-204416954D01*
X43196164Y-204444348D01*
X43094609Y-204458484D01*
X43023087Y-204465175D01*
X42961314Y-204464320D01*
X42889005Y-204455820D01*
X42803504Y-204442413D01*
X42583970Y-204381947D01*
X42377750Y-204275863D01*
X42362640Y-204264090D01*
X42828929Y-204264090D01*
X42898849Y-204274394D01*
X43001931Y-204278863D01*
X43130435Y-204269548D01*
X43261615Y-204248969D01*
X43362863Y-204223000D01*
X43563260Y-204130945D01*
X43746067Y-203995213D01*
X43907043Y-203821192D01*
X44041945Y-203614272D01*
X44146531Y-203379843D01*
X44212543Y-203143465D01*
X44241194Y-202938399D01*
X44251099Y-202709286D01*
X44242244Y-202479352D01*
X44214615Y-202271825D01*
X44213083Y-202264144D01*
X44181500Y-202144908D01*
X44133280Y-202005213D01*
X44076843Y-201868852D01*
X44062093Y-201837360D01*
X43993573Y-201705639D01*
X43926289Y-201603385D01*
X43846519Y-201511462D01*
X43786056Y-201452467D01*
X43636056Y-201325277D01*
X43494394Y-201237057D01*
X43346380Y-201181441D01*
X43177326Y-201152061D01*
X43076827Y-201145066D01*
X42828929Y-201134226D01*
X42828929Y-204264090D01*
X42362640Y-204264090D01*
X42188599Y-204128489D01*
X42020271Y-203944151D01*
X41876521Y-203727176D01*
X41761105Y-203481891D01*
X41677778Y-203212622D01*
X41658737Y-203123324D01*
X41639797Y-202975064D01*
X41631237Y-202796139D01*
X41632619Y-202603603D01*
X41643509Y-202414511D01*
X41663467Y-202245918D01*
X41683804Y-202144445D01*
X41773010Y-201874909D01*
X41894966Y-201632304D01*
X42045901Y-201422390D01*
X42222045Y-201250923D01*
X42311637Y-201185798D01*
X42396088Y-201134226D01*
X42460167Y-201095095D01*
X42589787Y-201033666D01*
X42718157Y-200995449D01*
X42862936Y-200974381D01*
X42944611Y-200968515D01*
X43186061Y-200970500D01*
G37*
G36*
X26429530Y-166561562D02*
G01*
X25282316Y-166561562D01*
X25290207Y-166656907D01*
X25298098Y-166752253D01*
X26480380Y-166765903D01*
X26480380Y-167375176D01*
X25285386Y-167375176D01*
X25285386Y-169663464D01*
X24675175Y-169663464D01*
X24675175Y-167375176D01*
X24446346Y-167375176D01*
X24446346Y-166764965D01*
X24673916Y-166764965D01*
X24687888Y-165938639D01*
X26429530Y-165925259D01*
X26429530Y-166561562D01*
G37*
G36*
X36949440Y-62555037D02*
G01*
X36957602Y-62468881D01*
X36972031Y-62393517D01*
X36994398Y-62315596D01*
X37015196Y-62253754D01*
X37139826Y-61966077D01*
X37301740Y-61708888D01*
X37497089Y-61484993D01*
X37722022Y-61297199D01*
X37972691Y-61148314D01*
X38245245Y-61041144D01*
X38535835Y-60978497D01*
X38786286Y-60962319D01*
X39009093Y-60972341D01*
X39205594Y-61004827D01*
X39396698Y-61064659D01*
X39589288Y-61149798D01*
X39853697Y-61306902D01*
X40084962Y-61502555D01*
X40282983Y-61736653D01*
X40447658Y-62009094D01*
X40468076Y-62050351D01*
X40559872Y-62273646D01*
X40615008Y-62493853D01*
X40636823Y-62728075D01*
X40634425Y-62902103D01*
X40597891Y-63206452D01*
X40517612Y-63487542D01*
X40391423Y-63751386D01*
X40255580Y-63954590D01*
X40143914Y-64102293D01*
X40304139Y-64345314D01*
X40367674Y-64443096D01*
X40419290Y-64525232D01*
X40453358Y-64582580D01*
X40464364Y-64605516D01*
X40443399Y-64622923D01*
X40387803Y-64657029D01*
X40308528Y-64701993D01*
X40216527Y-64751973D01*
X40122750Y-64801127D01*
X40038150Y-64843614D01*
X39973677Y-64873592D01*
X39940284Y-64885220D01*
X39939978Y-64885225D01*
X39917117Y-64864498D01*
X39880537Y-64810803D01*
X39846861Y-64751742D01*
X39796250Y-64663436D01*
X39743377Y-64581802D01*
X39715679Y-64544512D01*
X39655354Y-64470704D01*
X39517800Y-64526534D01*
X39216224Y-64623556D01*
X38914618Y-64670759D01*
X38615948Y-64668332D01*
X38323180Y-64616462D01*
X38039279Y-64515335D01*
X37858258Y-64421733D01*
X37720636Y-64327029D01*
X37572382Y-64201395D01*
X37426592Y-64057918D01*
X37296358Y-63909686D01*
X37194772Y-63769788D01*
X37177402Y-63741142D01*
X37120412Y-63631325D01*
X37062100Y-63500327D01*
X37014812Y-63375945D01*
X37013648Y-63372473D01*
X36985647Y-63283219D01*
X36966501Y-63204205D01*
X36954550Y-63121843D01*
X36948132Y-63022543D01*
X36945583Y-62892716D01*
X36945243Y-62813114D01*
X36945496Y-62754213D01*
X37544551Y-62754213D01*
X37551268Y-62989628D01*
X37593934Y-63198469D01*
X37675853Y-63393151D01*
X37745394Y-63508587D01*
X37904467Y-63702214D01*
X38096498Y-63858083D01*
X38317660Y-63973540D01*
X38501055Y-64032188D01*
X38594775Y-64050588D01*
X38693465Y-64063072D01*
X38786447Y-64069330D01*
X38863041Y-64069052D01*
X38912565Y-64061927D01*
X38924342Y-64047646D01*
X38921736Y-64044399D01*
X38885912Y-64029779D01*
X38812046Y-64012879D01*
X38712710Y-63996305D01*
X38649684Y-63988022D01*
X38404905Y-63958919D01*
X38404905Y-63671254D01*
X38406279Y-63540164D01*
X38411027Y-63452071D01*
X38420094Y-63399178D01*
X38434421Y-63373691D01*
X38441376Y-63369594D01*
X38486165Y-63365711D01*
X38568836Y-63369814D01*
X38677309Y-63380410D01*
X38799506Y-63396004D01*
X38923350Y-63415103D01*
X39036761Y-63436214D01*
X39104104Y-63451549D01*
X39200309Y-63481548D01*
X39319417Y-63526619D01*
X39439285Y-63578236D01*
X39467119Y-63591329D01*
X39562438Y-63634047D01*
X39641720Y-63663910D01*
X39693246Y-63676764D01*
X39704842Y-63675575D01*
X39745047Y-63634639D01*
X39797554Y-63559413D01*
X39855176Y-63462577D01*
X39910725Y-63356807D01*
X39957014Y-63254783D01*
X39981657Y-63187294D01*
X40025018Y-62973915D01*
X40030900Y-62748537D01*
X40000840Y-62525144D01*
X39936376Y-62317719D01*
X39872018Y-62190191D01*
X39794632Y-62083504D01*
X39690250Y-61966851D01*
X39575206Y-61856875D01*
X39465834Y-61770221D01*
X39448646Y-61758792D01*
X39271617Y-61663206D01*
X39089625Y-61604318D01*
X38886796Y-61577726D01*
X38786286Y-61575123D01*
X38634973Y-61579677D01*
X38515103Y-61595040D01*
X38407944Y-61623763D01*
X38394245Y-61628514D01*
X38165208Y-61736154D01*
X37962973Y-61885408D01*
X37791978Y-62072222D01*
X37656660Y-62292541D01*
X37648088Y-62310270D01*
X37602517Y-62411370D01*
X37573668Y-62494181D01*
X37556973Y-62578282D01*
X37547868Y-62683252D01*
X37544551Y-62754213D01*
X36945496Y-62754213D01*
X36945877Y-62665332D01*
X36949440Y-62555037D01*
G37*
G36*
X53866060Y-165926048D02*
G01*
X53942402Y-165931082D01*
X53985270Y-165939697D01*
X53990513Y-165944995D01*
X53983029Y-165971723D01*
X53961421Y-166043170D01*
X53926864Y-166155561D01*
X53880536Y-166305123D01*
X53823612Y-166488081D01*
X53757270Y-166700659D01*
X53682686Y-166939084D01*
X53601036Y-167199581D01*
X53513497Y-167478375D01*
X53421245Y-167771691D01*
X53410002Y-167807408D01*
X52829668Y-169650751D01*
X52559504Y-169657957D01*
X52289340Y-169665162D01*
X52224475Y-169454553D01*
X52205697Y-169394189D01*
X52173065Y-169289986D01*
X52128043Y-169146597D01*
X52072097Y-168968672D01*
X52006689Y-168760863D01*
X51933285Y-168527820D01*
X51853347Y-168274196D01*
X51768342Y-168004640D01*
X51679732Y-167723804D01*
X51641918Y-167604004D01*
X51554510Y-167326342D01*
X51472057Y-167062917D01*
X51395782Y-166817732D01*
X51326908Y-166594792D01*
X51266659Y-166398101D01*
X51216258Y-166231665D01*
X51176927Y-166099487D01*
X51149891Y-166005571D01*
X51136372Y-165953923D01*
X51135135Y-165944995D01*
X51163342Y-165937580D01*
X51232051Y-165931511D01*
X51330921Y-165927416D01*
X51448770Y-165925926D01*
X51751496Y-165925926D01*
X51849885Y-166237388D01*
X51879950Y-166332969D01*
X51922722Y-166469531D01*
X51975836Y-166639492D01*
X52036925Y-166835266D01*
X52103622Y-167049271D01*
X52173563Y-167273923D01*
X52244379Y-167501638D01*
X52250177Y-167520291D01*
X52316158Y-167731847D01*
X52377526Y-167927162D01*
X52432647Y-168101144D01*
X52479887Y-168248701D01*
X52517613Y-168364742D01*
X52544190Y-168444174D01*
X52557985Y-168481907D01*
X52559497Y-168484314D01*
X52568282Y-168459327D01*
X52590728Y-168390362D01*
X52625387Y-168281997D01*
X52670812Y-168138809D01*
X52725556Y-167965375D01*
X52788173Y-167766273D01*
X52857215Y-167546080D01*
X52931234Y-167309374D01*
X52955016Y-167233193D01*
X53030701Y-166991282D01*
X53102286Y-166763676D01*
X53168269Y-166555074D01*
X53227145Y-166370176D01*
X53277410Y-166213680D01*
X53317559Y-166090285D01*
X53346089Y-166004690D01*
X53361496Y-165961595D01*
X53363300Y-165957708D01*
X53393647Y-165946258D01*
X53461044Y-165936960D01*
X53553738Y-165930052D01*
X53659975Y-165925771D01*
X53768000Y-165924358D01*
X53866060Y-165926048D01*
G37*
G36*
X36935997Y-97357204D02*
G01*
X36973811Y-97058024D01*
X37057763Y-96774839D01*
X37184555Y-96511721D01*
X37350892Y-96272742D01*
X37553479Y-96061974D01*
X37789017Y-95883490D01*
X38054213Y-95741362D01*
X38320764Y-95646432D01*
X38506547Y-95609630D01*
X38716416Y-95592167D01*
X38930290Y-95594283D01*
X39128088Y-95616218D01*
X39218519Y-95635693D01*
X39508115Y-95737618D01*
X39774928Y-95883524D01*
X40015016Y-96070158D01*
X40224437Y-96294270D01*
X40399251Y-96552608D01*
X40453447Y-96654355D01*
X40548554Y-96873387D01*
X40607769Y-97082930D01*
X40634874Y-97301303D01*
X40634425Y-97531532D01*
X40598097Y-97835086D01*
X40518258Y-98115291D01*
X40392561Y-98378655D01*
X40253975Y-98586143D01*
X40140703Y-98735970D01*
X40223596Y-98852019D01*
X40321353Y-98995133D01*
X40391472Y-99111450D01*
X40432295Y-99197724D01*
X40442166Y-99250712D01*
X40434198Y-99264245D01*
X40385891Y-99292348D01*
X40310711Y-99332849D01*
X40220342Y-99379835D01*
X40126473Y-99427397D01*
X40040788Y-99469623D01*
X39974975Y-99500602D01*
X39940720Y-99514425D01*
X39939105Y-99514655D01*
X39916718Y-99493939D01*
X39880469Y-99440270D01*
X39846861Y-99381171D01*
X39796424Y-99293103D01*
X39743908Y-99211914D01*
X39716382Y-99174822D01*
X39656759Y-99101895D01*
X39453436Y-99180305D01*
X39191174Y-99259137D01*
X38919135Y-99299900D01*
X38653416Y-99300544D01*
X38574255Y-99292198D01*
X38294385Y-99236851D01*
X38042668Y-99147212D01*
X37810029Y-99018681D01*
X37587393Y-98846659D01*
X37463131Y-98729040D01*
X37262810Y-98494989D01*
X37110275Y-98243876D01*
X37005108Y-97974606D01*
X36946887Y-97686087D01*
X36937650Y-97442130D01*
X37540441Y-97442130D01*
X37564317Y-97694661D01*
X37633626Y-97928868D01*
X37744889Y-98140333D01*
X37894625Y-98324641D01*
X38079357Y-98477374D01*
X38295605Y-98594116D01*
X38501055Y-98661617D01*
X38594775Y-98680018D01*
X38693465Y-98692502D01*
X38786447Y-98698759D01*
X38863041Y-98698481D01*
X38912565Y-98691356D01*
X38924342Y-98677076D01*
X38921736Y-98673828D01*
X38885912Y-98659209D01*
X38812046Y-98642309D01*
X38712710Y-98625734D01*
X38649684Y-98617451D01*
X38404905Y-98588348D01*
X38404905Y-98300684D01*
X38406279Y-98169594D01*
X38411027Y-98081500D01*
X38420094Y-98028608D01*
X38434421Y-98003120D01*
X38441376Y-97999024D01*
X38486165Y-97995141D01*
X38568836Y-97999244D01*
X38677309Y-98009839D01*
X38799506Y-98025433D01*
X38923350Y-98044533D01*
X39036761Y-98065644D01*
X39104104Y-98080978D01*
X39200309Y-98110977D01*
X39319417Y-98156048D01*
X39439285Y-98207666D01*
X39467119Y-98220758D01*
X39562438Y-98263477D01*
X39641720Y-98293339D01*
X39693246Y-98306193D01*
X39704842Y-98305005D01*
X39746097Y-98263116D01*
X39799260Y-98186549D01*
X39857326Y-98087829D01*
X39913291Y-97979479D01*
X39960149Y-97874026D01*
X39985433Y-97803289D01*
X40012184Y-97702720D01*
X40026567Y-97608940D01*
X40030497Y-97502232D01*
X40026679Y-97378808D01*
X40018550Y-97252847D01*
X40005378Y-97158246D01*
X39982590Y-97075516D01*
X39945611Y-96985167D01*
X39922770Y-96936090D01*
X39791523Y-96714334D01*
X39627537Y-96528783D01*
X39435025Y-96382187D01*
X39218202Y-96277298D01*
X38981283Y-96216867D01*
X38798999Y-96202414D01*
X38553830Y-96220852D01*
X38331770Y-96282425D01*
X38126503Y-96389638D01*
X37931715Y-96544996D01*
X37928900Y-96547649D01*
X37762159Y-96733564D01*
X37643408Y-96932860D01*
X37570489Y-97150511D01*
X37541240Y-97391491D01*
X37540441Y-97442130D01*
X36937650Y-97442130D01*
X36935192Y-97377226D01*
X36935997Y-97357204D01*
G37*
G36*
X32715966Y-60944848D02*
G01*
X32985466Y-60957499D01*
X33220206Y-60996088D01*
X33430836Y-61063666D01*
X33628004Y-61163282D01*
X33743439Y-61239105D01*
X33941220Y-61405985D01*
X34099428Y-61599728D01*
X34198183Y-61770671D01*
X34297795Y-62023984D01*
X34347014Y-62280046D01*
X34346019Y-62536308D01*
X34294991Y-62790219D01*
X34194111Y-63039227D01*
X34096835Y-63204891D01*
X33981094Y-63359651D01*
X33853082Y-63488397D01*
X33697398Y-63605606D01*
X33614651Y-63658175D01*
X33464537Y-63749583D01*
X33525419Y-63798883D01*
X33662856Y-63887337D01*
X33836733Y-63963753D01*
X34033117Y-64023042D01*
X34238073Y-64060111D01*
X34241492Y-64060513D01*
X34387688Y-64077531D01*
X34387688Y-64681882D01*
X34275510Y-64681882D01*
X34077819Y-64665035D01*
X33859842Y-64617919D01*
X33637792Y-64545671D01*
X33427883Y-64453427D01*
X33272659Y-64364152D01*
X33201262Y-64318132D01*
X33148442Y-64285956D01*
X33126910Y-64275075D01*
X33122037Y-64298494D01*
X33118367Y-64360726D01*
X33116522Y-64449738D01*
X33116417Y-64478479D01*
X33116417Y-64681882D01*
X32506206Y-64681882D01*
X32506206Y-62406307D01*
X33116417Y-62406307D01*
X33116920Y-62643766D01*
X33118524Y-62834064D01*
X33121366Y-62980883D01*
X33125585Y-63087902D01*
X33131319Y-63158803D01*
X33138707Y-63197266D01*
X33146527Y-63207208D01*
X33186007Y-63196775D01*
X33251330Y-63170371D01*
X33285509Y-63154504D01*
X33396764Y-63081336D01*
X33508596Y-62975349D01*
X33607009Y-62852440D01*
X33678005Y-62728507D01*
X33692166Y-62692636D01*
X33727709Y-62538709D01*
X33737310Y-62371999D01*
X33721268Y-62211867D01*
X33682794Y-62084022D01*
X33603143Y-61949710D01*
X33492660Y-61820677D01*
X33367327Y-61713902D01*
X33289904Y-61666694D01*
X33217011Y-61632096D01*
X33161323Y-61609873D01*
X33142687Y-61605406D01*
X33134166Y-61630756D01*
X33127310Y-61706823D01*
X33122121Y-61833630D01*
X33118596Y-62011200D01*
X33116735Y-62239556D01*
X33116417Y-62406307D01*
X32506206Y-62406307D01*
X32506206Y-60944345D01*
X32715966Y-60944848D01*
G37*
G36*
X35754304Y-60950395D02*
G01*
X36714114Y-60957057D01*
X36721277Y-61255806D01*
X36728441Y-61554555D01*
X35404705Y-61554555D01*
X35404705Y-61757114D01*
X36072122Y-61763893D01*
X36739540Y-61770671D01*
X36739540Y-62380881D01*
X36072122Y-62387660D01*
X35404705Y-62394438D01*
X35404705Y-62668354D01*
X35416417Y-62914646D01*
X35454009Y-63125041D01*
X35521165Y-63309396D01*
X35621569Y-63477564D01*
X35758906Y-63639401D01*
X35773142Y-63653930D01*
X35930298Y-63791239D01*
X36103242Y-63898153D01*
X36301404Y-63978998D01*
X36534213Y-64038101D01*
X36656907Y-64059388D01*
X36752252Y-64073976D01*
X36752252Y-64681882D01*
X36618769Y-64678073D01*
X36524830Y-64673756D01*
X36439168Y-64667164D01*
X36409009Y-64663715D01*
X36135883Y-64601551D01*
X35868441Y-64494167D01*
X35616223Y-64347044D01*
X35388773Y-64165666D01*
X35211478Y-63975611D01*
X35101209Y-63817131D01*
X34998555Y-63631358D01*
X34912023Y-63436300D01*
X34850117Y-63249962D01*
X34832453Y-63173189D01*
X34816233Y-63060178D01*
X34803471Y-62918248D01*
X34795869Y-62769298D01*
X34794495Y-62685212D01*
X34794495Y-62396518D01*
X34686437Y-62388700D01*
X34578378Y-62380881D01*
X34578378Y-61770671D01*
X34686437Y-61762853D01*
X34794495Y-61755035D01*
X34794495Y-60943733D01*
X35754304Y-60950395D01*
G37*
G36*
X46628549Y-157388482D02*
G01*
X46634985Y-157153735D01*
X46645537Y-156940178D01*
X46660205Y-156758079D01*
X46676363Y-156632933D01*
X46791917Y-156053136D01*
X46941770Y-155507332D01*
X47128234Y-154989989D01*
X47353615Y-154495573D01*
X47620224Y-154018553D01*
X47930370Y-153553394D01*
X48002696Y-153454755D01*
X48310258Y-153068550D01*
X48634308Y-152716029D01*
X48985673Y-152386393D01*
X49375183Y-152068846D01*
X49447293Y-152014299D01*
X49929171Y-151685059D01*
X50438117Y-151397535D01*
X50969898Y-151153369D01*
X51520276Y-150954204D01*
X52085018Y-150801684D01*
X52659887Y-150697452D01*
X52921635Y-150666652D01*
X53227928Y-150636679D01*
X53227928Y-95256009D01*
X44015090Y-86043065D01*
X43873311Y-86152059D01*
X43498474Y-86409331D01*
X43090703Y-86631489D01*
X42656439Y-86815602D01*
X42202119Y-86958739D01*
X41989890Y-87009642D01*
X41897655Y-87028503D01*
X41811792Y-87042815D01*
X41723056Y-87053186D01*
X41622204Y-87060227D01*
X41499991Y-87064547D01*
X41347174Y-87066755D01*
X41154510Y-87067462D01*
X41112713Y-87067476D01*
X40911719Y-87066994D01*
X40752351Y-87065138D01*
X40625386Y-87061300D01*
X40521606Y-87054868D01*
X40431790Y-87045231D01*
X40346717Y-87031779D01*
X40257166Y-87013901D01*
X40236591Y-87009454D01*
X39784239Y-86889472D01*
X39357580Y-86731420D01*
X39066883Y-86595434D01*
X38650281Y-86355701D01*
X38266432Y-86077983D01*
X37917082Y-85764596D01*
X37603978Y-85417857D01*
X37328866Y-85040083D01*
X37093491Y-84633593D01*
X36899601Y-84200702D01*
X36748940Y-83743729D01*
X36671225Y-83416195D01*
X36650884Y-83308111D01*
X36635827Y-83207686D01*
X36625304Y-83104098D01*
X36618563Y-82986526D01*
X36614854Y-82844148D01*
X36614125Y-82753296D01*
X36631618Y-82753296D01*
X36668571Y-83193252D01*
X36746067Y-83617965D01*
X36792559Y-83795745D01*
X36949060Y-84250872D01*
X37149361Y-84680200D01*
X37393652Y-85084049D01*
X37682119Y-85462740D01*
X37927604Y-85730470D01*
X38281527Y-86052638D01*
X38663763Y-86333094D01*
X39071752Y-86570536D01*
X39502937Y-86763660D01*
X39954759Y-86911165D01*
X40424660Y-87011746D01*
X40451652Y-87015995D01*
X40624253Y-87035541D01*
X40831592Y-87047836D01*
X41058072Y-87052872D01*
X41288099Y-87050642D01*
X41506078Y-87041137D01*
X41696413Y-87024350D01*
X41754317Y-87016648D01*
X42214446Y-86923594D01*
X42658421Y-86784824D01*
X43083029Y-86602835D01*
X43485057Y-86380124D01*
X43861293Y-86119191D01*
X44208523Y-85822532D01*
X44523535Y-85492646D01*
X44803116Y-85132031D01*
X45044053Y-84743184D01*
X45243134Y-84328603D01*
X45257813Y-84292775D01*
X45378159Y-83970363D01*
X45468103Y-83668085D01*
X45531310Y-83368691D01*
X45571447Y-83054931D01*
X45591781Y-82721222D01*
X45584541Y-82238719D01*
X45528627Y-81770934D01*
X45424046Y-81317883D01*
X45270803Y-80879585D01*
X45068905Y-80456059D01*
X44818359Y-80047322D01*
X44540154Y-79678620D01*
X44231593Y-79344616D01*
X43889933Y-79046634D01*
X43519362Y-78786119D01*
X43124063Y-78564512D01*
X42708223Y-78383258D01*
X42276027Y-78243799D01*
X41831662Y-78147580D01*
X41379312Y-78096042D01*
X40923163Y-78090630D01*
X40467401Y-78132786D01*
X40197398Y-78181188D01*
X39737599Y-78304235D01*
X39298957Y-78471872D01*
X38884088Y-78681607D01*
X38495606Y-78930950D01*
X38136125Y-79217407D01*
X37808262Y-79538489D01*
X37514631Y-79891704D01*
X37257846Y-80274560D01*
X37040523Y-80684565D01*
X36865276Y-81119230D01*
X36765278Y-81451211D01*
X36679844Y-81871352D01*
X36635333Y-82309021D01*
X36631618Y-82753296D01*
X36614125Y-82753296D01*
X36613426Y-82666142D01*
X36613326Y-82581382D01*
X36615358Y-82341118D01*
X36622423Y-82139254D01*
X36636047Y-81963457D01*
X36657761Y-81801398D01*
X36689092Y-81640745D01*
X36731570Y-81469167D01*
X36766942Y-81342254D01*
X36922829Y-80889607D01*
X37121597Y-80462133D01*
X37360774Y-80062006D01*
X37637891Y-79691397D01*
X37950476Y-79352478D01*
X38296060Y-79047421D01*
X38672171Y-78778398D01*
X39076339Y-78547581D01*
X39506093Y-78357141D01*
X39958964Y-78209251D01*
X40432480Y-78106082D01*
X40451652Y-78102943D01*
X40573916Y-78088941D01*
X40734124Y-78078966D01*
X40919528Y-78073019D01*
X41117382Y-78071100D01*
X41314938Y-78073207D01*
X41499449Y-78079343D01*
X41658167Y-78089505D01*
X41773774Y-78102943D01*
X42251624Y-78204925D01*
X42707394Y-78351569D01*
X43138890Y-78540734D01*
X43543914Y-78770281D01*
X43920270Y-79038067D01*
X44265762Y-79341953D01*
X44578193Y-79679798D01*
X44855368Y-80049461D01*
X45095090Y-80448802D01*
X45295162Y-80875680D01*
X45453389Y-81327954D01*
X45566901Y-81799912D01*
X45584139Y-81908134D01*
X45596719Y-82029694D01*
X45605170Y-82173814D01*
X45610022Y-82349716D01*
X45611805Y-82566622D01*
X45611826Y-82581382D01*
X45611328Y-82776239D01*
X45608848Y-82931054D01*
X45603644Y-83056622D01*
X45594973Y-83163735D01*
X45582091Y-83263188D01*
X45564255Y-83365774D01*
X45554342Y-83416195D01*
X45433335Y-83891224D01*
X45266290Y-84345680D01*
X45054012Y-84777754D01*
X44797309Y-85185637D01*
X44713994Y-85300040D01*
X44572015Y-85488869D01*
X49294797Y-90194435D01*
X54017578Y-94900000D01*
X54023204Y-122765562D01*
X54028829Y-150631123D01*
X54405845Y-150674338D01*
X54908255Y-150747579D01*
X55381860Y-150850425D01*
X55840046Y-150986815D01*
X56296199Y-151160687D01*
X56723924Y-151356330D01*
X57092335Y-151547698D01*
X57426002Y-151744729D01*
X57736662Y-151955858D01*
X58036053Y-152189519D01*
X58335912Y-152454148D01*
X58581459Y-152691256D01*
X58990308Y-153131658D01*
X59352959Y-153591133D01*
X59670290Y-154071452D01*
X59943184Y-154574386D01*
X60172521Y-155101705D01*
X60359182Y-155655182D01*
X60504047Y-156236586D01*
X60592151Y-156734635D01*
X60612451Y-156915741D01*
X60627030Y-157134894D01*
X60635888Y-157379612D01*
X60639024Y-157637412D01*
X60636439Y-157895814D01*
X60628133Y-158142336D01*
X60614105Y-158364496D01*
X60594356Y-158549813D01*
X60592151Y-158565266D01*
X60480896Y-159170686D01*
X60328606Y-159746695D01*
X60134375Y-160295112D01*
X59897301Y-160817752D01*
X59616479Y-161316434D01*
X59291007Y-161792975D01*
X58919980Y-162249191D01*
X58581459Y-162609050D01*
X58271689Y-162905446D01*
X57971228Y-163164092D01*
X57668245Y-163393487D01*
X57350911Y-163602132D01*
X57007397Y-163798524D01*
X56723924Y-163943647D01*
X56376034Y-164106010D01*
X56048431Y-164240027D01*
X55723933Y-164351728D01*
X55385356Y-164447142D01*
X55094895Y-164515347D01*
X54752389Y-164578095D01*
X54380571Y-164625349D01*
X53996621Y-164655901D01*
X53617719Y-164668545D01*
X53261043Y-164662073D01*
X53126226Y-164653691D01*
X52528807Y-164582955D01*
X51945896Y-164464516D01*
X51379819Y-164299651D01*
X50832906Y-164089634D01*
X50307483Y-163835742D01*
X49805879Y-163539252D01*
X49330421Y-163201438D01*
X48883436Y-162823577D01*
X48467252Y-162406944D01*
X48084198Y-161952816D01*
X48002476Y-161845146D01*
X47682769Y-161381567D01*
X47407159Y-160907688D01*
X47173301Y-160417887D01*
X46978849Y-159906543D01*
X46821458Y-159368035D01*
X46698782Y-158796741D01*
X46676363Y-158666967D01*
X46658105Y-158520701D01*
X46643962Y-158334019D01*
X46633935Y-158117188D01*
X46628024Y-157880476D01*
X46626343Y-157649950D01*
X46642805Y-157649950D01*
X46666999Y-158253790D01*
X46739617Y-158842194D01*
X46860709Y-159415316D01*
X47030328Y-159973311D01*
X47248524Y-160516333D01*
X47515351Y-161044536D01*
X47830859Y-161558074D01*
X48057983Y-161878615D01*
X48182613Y-162034893D01*
X48337973Y-162213017D01*
X48514841Y-162403687D01*
X48703993Y-162597599D01*
X48896207Y-162785453D01*
X49082261Y-162957947D01*
X49252930Y-163105779D01*
X49356470Y-163188214D01*
X49855256Y-163535754D01*
X50373526Y-163836655D01*
X50909501Y-164090428D01*
X51461400Y-164296584D01*
X52027444Y-164454636D01*
X52605853Y-164564094D01*
X53194845Y-164624469D01*
X53792643Y-164635274D01*
X54397465Y-164596019D01*
X54459781Y-164589148D01*
X55035520Y-164498221D01*
X55595846Y-164360192D01*
X56138499Y-164177077D01*
X56661218Y-163950896D01*
X57161744Y-163683664D01*
X57637816Y-163377401D01*
X58087175Y-163034123D01*
X58507561Y-162655849D01*
X58896712Y-162244595D01*
X59252371Y-161802380D01*
X59572276Y-161331221D01*
X59854167Y-160833136D01*
X60095785Y-160310143D01*
X60294869Y-159764258D01*
X60436124Y-159253732D01*
X60498128Y-158969484D01*
X60544770Y-158701605D01*
X60577617Y-158435616D01*
X60598237Y-158157039D01*
X60608197Y-157851396D01*
X60609708Y-157649950D01*
X60605368Y-157321235D01*
X60591304Y-157028233D01*
X60565948Y-156756467D01*
X60527733Y-156491458D01*
X60475093Y-156218728D01*
X60436124Y-156046168D01*
X60278157Y-155484979D01*
X60075091Y-154943159D01*
X59829234Y-154423004D01*
X59542891Y-153926810D01*
X59218370Y-153456872D01*
X58857978Y-153015486D01*
X58464021Y-152604949D01*
X58038805Y-152227557D01*
X57584638Y-151885604D01*
X57103827Y-151581387D01*
X56598678Y-151317202D01*
X56071497Y-151095345D01*
X55524592Y-150918111D01*
X55202769Y-150837453D01*
X55010626Y-150795301D01*
X54844254Y-150761643D01*
X54693905Y-150735536D01*
X54549829Y-150716040D01*
X54402277Y-150702213D01*
X54241500Y-150693112D01*
X54057748Y-150687797D01*
X53841272Y-150685324D01*
X53622022Y-150684754D01*
X53394956Y-150685056D01*
X53210546Y-150686390D01*
X53060599Y-150689183D01*
X52936925Y-150693863D01*
X52831331Y-150700857D01*
X52735625Y-150710592D01*
X52641617Y-150723495D01*
X52541113Y-150739994D01*
X52531908Y-150741593D01*
X51926745Y-150870570D01*
X51349605Y-151041832D01*
X50799656Y-151255793D01*
X50276067Y-151512867D01*
X49778006Y-151813467D01*
X49304639Y-152158009D01*
X48855135Y-152546906D01*
X48801102Y-152598161D01*
X48381456Y-153034216D01*
X48005387Y-153495913D01*
X47673578Y-153981651D01*
X47386715Y-154489831D01*
X47145479Y-155018854D01*
X46950555Y-155567120D01*
X46802625Y-156133029D01*
X46702374Y-156714981D01*
X46650484Y-157311378D01*
X46642805Y-157649950D01*
X46626343Y-157649950D01*
X46626228Y-157634152D01*
X46628549Y-157388482D01*
G37*
G36*
X32633333Y-169663464D02*
G01*
X32022793Y-169663464D01*
X32029315Y-167801051D01*
X32035836Y-165938639D01*
X32334585Y-165931476D01*
X32633333Y-165924313D01*
X32633333Y-169663464D01*
G37*
G36*
X49388689Y-61550515D02*
G01*
X49318769Y-61563612D01*
X49251051Y-61574878D01*
X49161235Y-61588122D01*
X49121722Y-61593506D01*
X48900331Y-61646264D01*
X48693683Y-61740493D01*
X48506483Y-61870178D01*
X48343436Y-62029307D01*
X48209249Y-62211866D01*
X48108629Y-62411842D01*
X48046280Y-62623222D01*
X48026909Y-62839992D01*
X48038961Y-62977059D01*
X48101927Y-63215002D01*
X48208511Y-63431045D01*
X48354921Y-63621683D01*
X48537369Y-63783412D01*
X48752064Y-63912729D01*
X48995218Y-64006130D01*
X49201175Y-64051637D01*
X49388689Y-64080789D01*
X49388689Y-64681882D01*
X49242493Y-64679493D01*
X49134852Y-64672672D01*
X49010309Y-64657574D01*
X48927378Y-64643458D01*
X48637248Y-64560635D01*
X48368620Y-64434323D01*
X48125381Y-64268734D01*
X47911418Y-64068082D01*
X47730616Y-63836579D01*
X47586863Y-63578437D01*
X47484045Y-63297870D01*
X47428325Y-63018540D01*
X47417426Y-62726969D01*
X47456122Y-62443174D01*
X47543411Y-62169858D01*
X47678290Y-61909721D01*
X47859758Y-61665467D01*
X47976040Y-61541842D01*
X48219575Y-61333218D01*
X48480116Y-61171236D01*
X48761839Y-61053951D01*
X49068925Y-60979416D01*
X49229780Y-60957925D01*
X49388689Y-60941820D01*
X49388689Y-61550515D01*
G37*
G36*
X47812312Y-101141942D02*
G01*
X46515616Y-101141942D01*
X46515616Y-101345346D01*
X47837738Y-101345346D01*
X47837738Y-101955556D01*
X46509961Y-101955556D01*
X46519376Y-102319654D01*
X46523429Y-102462983D01*
X46528493Y-102567475D01*
X46536857Y-102645127D01*
X46550811Y-102707939D01*
X46572644Y-102767908D01*
X46604646Y-102837032D01*
X46626651Y-102881760D01*
X46761806Y-103098949D01*
X46935390Y-103284743D01*
X47142282Y-103433891D01*
X47192088Y-103461436D01*
X47344112Y-103530270D01*
X47506402Y-103585319D01*
X47661090Y-103621366D01*
X47780531Y-103633258D01*
X47863163Y-103633634D01*
X47863163Y-104243844D01*
X47678829Y-104242444D01*
X47554913Y-104234486D01*
X47415222Y-104215136D01*
X47303804Y-104191841D01*
X47016311Y-104092127D01*
X46753313Y-103948646D01*
X46517470Y-103763558D01*
X46311442Y-103539020D01*
X46137890Y-103277192D01*
X46107761Y-103221404D01*
X46023478Y-103040267D01*
X45964291Y-102862727D01*
X45927077Y-102674493D01*
X45908715Y-102461273D01*
X45905406Y-102294732D01*
X45905406Y-101955556D01*
X45676577Y-101955556D01*
X45676577Y-101345346D01*
X45905406Y-101345346D01*
X45905406Y-100531732D01*
X47812312Y-100531732D01*
X47812312Y-101141942D01*
G37*
G36*
X39304015Y-200977555D02*
G01*
X39497877Y-201025789D01*
X39693950Y-201112701D01*
X39699898Y-201115859D01*
X39840523Y-201203583D01*
X39931398Y-201290764D01*
X39973595Y-201378619D01*
X39976271Y-201429519D01*
X39960754Y-201489505D01*
X39927199Y-201511488D01*
X39872022Y-201494826D01*
X39791639Y-201438875D01*
X39728584Y-201385076D01*
X39569502Y-201265569D01*
X39402435Y-201188087D01*
X39215182Y-201148155D01*
X39061029Y-201140141D01*
X38862563Y-201140141D01*
X38862563Y-204274301D01*
X39040768Y-204261550D01*
X39246062Y-204221889D01*
X39440160Y-204134885D01*
X39619190Y-204003516D01*
X39779281Y-203830758D01*
X39916562Y-203619590D01*
X39944053Y-203566805D01*
X39986957Y-203479086D01*
X40015661Y-203410658D01*
X40033158Y-203347054D01*
X40042443Y-203273810D01*
X40046509Y-203176460D01*
X40048097Y-203064136D01*
X40051987Y-202914266D01*
X40060947Y-202810128D01*
X40076567Y-202746722D01*
X40100439Y-202719046D01*
X40134155Y-202722101D01*
X40153603Y-202732572D01*
X40165723Y-202743771D01*
X40175393Y-202763942D01*
X40182886Y-202798369D01*
X40188474Y-202852337D01*
X40192431Y-202931132D01*
X40195028Y-203040039D01*
X40196540Y-203184342D01*
X40197239Y-203369327D01*
X40197398Y-203580981D01*
X40197208Y-203808252D01*
X40196457Y-203989958D01*
X40194872Y-204131383D01*
X40192181Y-204237814D01*
X40188110Y-204314535D01*
X40182386Y-204366832D01*
X40174737Y-204399989D01*
X40164891Y-204419292D01*
X40153603Y-204429391D01*
X40114056Y-204446558D01*
X40085383Y-204437505D01*
X40066313Y-204397327D01*
X40055572Y-204321117D01*
X40051891Y-204203972D01*
X40053906Y-204044772D01*
X40062273Y-203696798D01*
X39933251Y-203889702D01*
X39860653Y-203989756D01*
X39782152Y-204084571D01*
X39711902Y-204157359D01*
X39695708Y-204171449D01*
X39488707Y-204309716D01*
X39262696Y-204403680D01*
X39024739Y-204451351D01*
X38781903Y-204450741D01*
X38727988Y-204443849D01*
X38506326Y-204385135D01*
X38300507Y-204280116D01*
X38114411Y-204131908D01*
X37951917Y-203943628D01*
X37816905Y-203718395D01*
X37811538Y-203707440D01*
X37729659Y-203521295D01*
X37671886Y-203344040D01*
X37635025Y-203160498D01*
X37615884Y-202955486D01*
X37611164Y-202754655D01*
X37620076Y-202505864D01*
X37649609Y-202288422D01*
X37703246Y-202085800D01*
X37784474Y-201881471D01*
X37804149Y-201839340D01*
X37947835Y-201588069D01*
X38118961Y-201376659D01*
X38315028Y-201206814D01*
X38533535Y-201080239D01*
X38771982Y-200998637D01*
X39027870Y-200963713D01*
X39090377Y-200962464D01*
X39304015Y-200977555D01*
G37*
G36*
X42237788Y-55688792D02*
G01*
X42521034Y-55716691D01*
X42776202Y-55772494D01*
X43019964Y-55859957D01*
X43043644Y-55870274D01*
X43184885Y-55932738D01*
X43184885Y-55679668D01*
X43782383Y-55693994D01*
X43782383Y-59406107D01*
X43184885Y-59420433D01*
X43184885Y-56677204D01*
X43064114Y-56589183D01*
X42948408Y-56512677D01*
X42823247Y-56442570D01*
X42705505Y-56387621D01*
X42619169Y-56358208D01*
X42549249Y-56341374D01*
X42549249Y-59418819D01*
X41939039Y-59418819D01*
X41939039Y-55673799D01*
X42237788Y-55688792D01*
G37*
G36*
X54671297Y-191604449D02*
G01*
X54902407Y-191674699D01*
X55113074Y-191787097D01*
X55298180Y-191937807D01*
X55452608Y-192122998D01*
X55571241Y-192338833D01*
X55621759Y-192476972D01*
X55657686Y-192658441D01*
X55666017Y-192860196D01*
X55647455Y-193061706D01*
X55602706Y-193242439D01*
X55594757Y-193263973D01*
X55491141Y-193466628D01*
X55346873Y-193654360D01*
X55171910Y-193817209D01*
X54976211Y-193945215D01*
X54860870Y-193998122D01*
X54697431Y-194043165D01*
X54509201Y-194065657D01*
X54315488Y-194065192D01*
X54135598Y-194041361D01*
X54041542Y-194015402D01*
X53801111Y-193907119D01*
X53595846Y-193764818D01*
X53428176Y-193591786D01*
X53300532Y-193391307D01*
X53215341Y-193166667D01*
X53175033Y-192921152D01*
X53172016Y-192839414D01*
X53189511Y-192599384D01*
X53247812Y-192383355D01*
X53350004Y-192183938D01*
X53499173Y-191993742D01*
X53545148Y-191945780D01*
X53738101Y-191783909D01*
X53948921Y-191669511D01*
X54179377Y-191601851D01*
X54424860Y-191580181D01*
X54671297Y-191604449D01*
G37*
G36*
X50354855Y-95644085D02*
G01*
X50395914Y-95694605D01*
X50457141Y-95774566D01*
X50529384Y-95871860D01*
X50585713Y-95949511D01*
X50753008Y-96182636D01*
X51197250Y-95573774D01*
X51565741Y-95573774D01*
X51714096Y-95574693D01*
X51817414Y-95577802D01*
X51881481Y-95583627D01*
X51912084Y-95592694D01*
X51915010Y-95605530D01*
X51914995Y-95605556D01*
X51895593Y-95633840D01*
X51850464Y-95697757D01*
X51783615Y-95791690D01*
X51699056Y-95910021D01*
X51600792Y-96047132D01*
X51492833Y-96197406D01*
X51481503Y-96213156D01*
X51067249Y-96788974D01*
X51060652Y-98043787D01*
X51054054Y-99298599D01*
X50755305Y-99305762D01*
X50456557Y-99312925D01*
X50456557Y-96814544D01*
X50011384Y-96200515D01*
X49566211Y-95586487D01*
X49928751Y-95579135D01*
X50291291Y-95571784D01*
X50354855Y-95644085D01*
G37*
G36*
X45180781Y-60957057D02*
G01*
X45195107Y-61554555D01*
X43871371Y-61554555D01*
X43871371Y-61757958D01*
X45193494Y-61757958D01*
X45193494Y-62393594D01*
X43871371Y-62393594D01*
X43871993Y-62679630D01*
X43880471Y-62907029D01*
X43907589Y-63096679D01*
X43957497Y-63259575D01*
X44034349Y-63406714D01*
X44142298Y-63549090D01*
X44239486Y-63652707D01*
X44397396Y-63791420D01*
X44565483Y-63898043D01*
X44754519Y-63977542D01*
X44975276Y-64034881D01*
X45123574Y-64060155D01*
X45218919Y-64073976D01*
X45218919Y-64681882D01*
X45085436Y-64678910D01*
X44974831Y-64672335D01*
X44856263Y-64659371D01*
X44818152Y-64653648D01*
X44535333Y-64581442D01*
X44268294Y-64464297D01*
X44022048Y-64306974D01*
X43801612Y-64114231D01*
X43611998Y-63890829D01*
X43458222Y-63641527D01*
X43345298Y-63371086D01*
X43302385Y-63214901D01*
X43279182Y-63070233D01*
X43265125Y-62888311D01*
X43261161Y-62712749D01*
X43261161Y-62393594D01*
X43032332Y-62393594D01*
X43032332Y-61757958D01*
X43261161Y-61757958D01*
X43261161Y-60943733D01*
X45180781Y-60957057D01*
G37*
G36*
X34972473Y-136229029D02*
G01*
X33828328Y-136229029D01*
X33828328Y-136432433D01*
X34997898Y-136432433D01*
X34997898Y-137042643D01*
X33828847Y-137042643D01*
X33822231Y-138193144D01*
X33815616Y-139343644D01*
X33218638Y-139357966D01*
X33205406Y-137055356D01*
X33084635Y-137047606D01*
X32963864Y-137039857D01*
X32963864Y-136432433D01*
X33218118Y-136432433D01*
X33218118Y-135618819D01*
X34972473Y-135618819D01*
X34972473Y-136229029D01*
G37*
G36*
X48651351Y-103632642D02*
G01*
X49204354Y-103639495D01*
X49757357Y-103646347D01*
X49764521Y-103945095D01*
X49771684Y-104243844D01*
X48041141Y-104243844D01*
X48041141Y-100531732D01*
X48651351Y-100531732D01*
X48651351Y-103632642D01*
G37*
G36*
X44615065Y-10812435D02*
G01*
X44889571Y-10816413D01*
X45119041Y-10821113D01*
X45309291Y-10827171D01*
X45466136Y-10835223D01*
X45595391Y-10845909D01*
X45702872Y-10859863D01*
X45794394Y-10877724D01*
X45875771Y-10900128D01*
X45952820Y-10927713D01*
X46031356Y-10961115D01*
X46050148Y-10969645D01*
X46275119Y-11097485D01*
X46459693Y-11254949D01*
X46602488Y-11439052D01*
X46702125Y-11646807D01*
X46757223Y-11875228D01*
X46766401Y-12121329D01*
X46728280Y-12382125D01*
X46719575Y-12417748D01*
X46652960Y-12625066D01*
X46563854Y-12800407D01*
X46442625Y-12960993D01*
X46376008Y-13032040D01*
X46183376Y-13191095D01*
X45960092Y-13311535D01*
X45710548Y-13391591D01*
X45439136Y-13429495D01*
X45382939Y-13431853D01*
X45280774Y-13432698D01*
X45216704Y-13427024D01*
X45178138Y-13412403D01*
X45153339Y-13387583D01*
X45123339Y-13340231D01*
X45123237Y-13305893D01*
X45142059Y-13271672D01*
X45165646Y-13254029D01*
X45215818Y-13240655D01*
X45299835Y-13230429D01*
X45424955Y-13222228D01*
X45478556Y-13219683D01*
X45672983Y-13204723D01*
X45829860Y-13176004D01*
X45961668Y-13128858D01*
X46080887Y-13058619D01*
X46200000Y-12960620D01*
X46219100Y-12942793D01*
X46366451Y-12776326D01*
X46471346Y-12593295D01*
X46535917Y-12387926D01*
X46562297Y-12154448D01*
X46561476Y-12016176D01*
X46542351Y-11818222D01*
X46499711Y-11655866D01*
X46428732Y-11517415D01*
X46324591Y-11391177D01*
X46289644Y-11357185D01*
X46137724Y-11235432D01*
X45968266Y-11140828D01*
X45774087Y-11070935D01*
X45548006Y-11023315D01*
X45282840Y-10995529D01*
X45212563Y-10991539D01*
X44888389Y-10975706D01*
X44888389Y-14237838D01*
X44295129Y-14237838D01*
X44126338Y-14237141D01*
X43974774Y-14235185D01*
X43847757Y-14232173D01*
X43752601Y-14228309D01*
X43696627Y-14223796D01*
X43684918Y-14220888D01*
X43682036Y-14193220D01*
X43679309Y-14118917D01*
X43676777Y-14002196D01*
X43674482Y-13847272D01*
X43672467Y-13658362D01*
X43670773Y-13439682D01*
X43669441Y-13195447D01*
X43668512Y-12929875D01*
X43668030Y-12647180D01*
X43667968Y-12502119D01*
X43667968Y-10800301D01*
X44615065Y-10812435D01*
G37*
G36*
X49725576Y-191619851D02*
G01*
X49834361Y-191667934D01*
X49950746Y-191741968D01*
X50052181Y-191826959D01*
X50077905Y-191854141D01*
X50192952Y-192020339D01*
X50263085Y-192199703D01*
X50290066Y-192385222D01*
X50275657Y-192569886D01*
X50221620Y-192746684D01*
X50129718Y-192908605D01*
X50001713Y-193048639D01*
X49839367Y-193159775D01*
X49738288Y-193205211D01*
X49668368Y-193231575D01*
X49668368Y-191602179D01*
X49725576Y-191619851D01*
G37*
G36*
X24147598Y-191619868D02*
G01*
X24319224Y-191697877D01*
X24473806Y-191816006D01*
X24599207Y-191963762D01*
X24652653Y-192056549D01*
X24702320Y-192206359D01*
X24723012Y-192378385D01*
X24713979Y-192552542D01*
X24676816Y-192702639D01*
X24596841Y-192857238D01*
X24483250Y-192999163D01*
X24347584Y-193117152D01*
X24201382Y-193199939D01*
X24147598Y-193219194D01*
X24090391Y-193236260D01*
X24090391Y-191602179D01*
X24147598Y-191619868D01*
G37*
G36*
X32277377Y-96183012D02*
G01*
X31711662Y-96189854D01*
X31145946Y-96196697D01*
X31138055Y-96292042D01*
X31130164Y-96387388D01*
X32328228Y-96387388D01*
X32328228Y-97023023D01*
X31133233Y-97023023D01*
X31133233Y-99311312D01*
X30523023Y-99311312D01*
X30523023Y-97023023D01*
X30294194Y-97023023D01*
X30294194Y-96387388D01*
X30521732Y-96387388D01*
X30528734Y-95986937D01*
X30535736Y-95586487D01*
X31406557Y-95579797D01*
X32277377Y-95573107D01*
X32277377Y-96183012D01*
G37*
G36*
X34935456Y-100537314D02*
G01*
X35258314Y-100544445D01*
X35611524Y-101675876D01*
X35684848Y-101910897D01*
X35754760Y-102135257D01*
X35819538Y-102343407D01*
X35877459Y-102529801D01*
X35926800Y-102688892D01*
X35965840Y-102815133D01*
X35992855Y-102902976D01*
X36004889Y-102942677D01*
X36028289Y-103014595D01*
X36046990Y-103059641D01*
X36054918Y-103068173D01*
X36064164Y-103042701D01*
X36087040Y-102973231D01*
X36122096Y-102864327D01*
X36167885Y-102720557D01*
X36222961Y-102546487D01*
X36285875Y-102346681D01*
X36355180Y-102125707D01*
X36429430Y-101888130D01*
X36456482Y-101801373D01*
X36848173Y-100544445D01*
X37168881Y-100537329D01*
X37289802Y-100535174D01*
X37389802Y-100534396D01*
X37459319Y-100534997D01*
X37488790Y-100536976D01*
X37489181Y-100537329D01*
X37481667Y-100562114D01*
X37460039Y-100631654D01*
X37425474Y-100742207D01*
X37379147Y-100890030D01*
X37322233Y-101071381D01*
X37255907Y-101282516D01*
X37181345Y-101519692D01*
X37099722Y-101779168D01*
X37012213Y-102057199D01*
X36919993Y-102350044D01*
X36908104Y-102387788D01*
X36327435Y-104231132D01*
X36056294Y-104238353D01*
X35926429Y-104240089D01*
X35840456Y-104236687D01*
X35791619Y-104227540D01*
X35773449Y-104212927D01*
X35764077Y-104183879D01*
X35740683Y-104110220D01*
X35704497Y-103995849D01*
X35656748Y-103844664D01*
X35598666Y-103660564D01*
X35531480Y-103447447D01*
X35456421Y-103209214D01*
X35374717Y-102949761D01*
X35287598Y-102672988D01*
X35205863Y-102413214D01*
X35114698Y-102123433D01*
X35027683Y-101846881D01*
X34946068Y-101587529D01*
X34871105Y-101349350D01*
X34804042Y-101136316D01*
X34746132Y-100952399D01*
X34698625Y-100801573D01*
X34662772Y-100687809D01*
X34639822Y-100615080D01*
X34631290Y-100588165D01*
X34612598Y-100530184D01*
X34935456Y-100537314D01*
G37*
G36*
X41176276Y-138746147D02*
G01*
X42294995Y-138746147D01*
X42294995Y-139356357D01*
X40566066Y-139356357D01*
X40566066Y-135618819D01*
X41176276Y-135618819D01*
X41176276Y-138746147D01*
G37*
G36*
X26662943Y-167653435D02*
G01*
X26678056Y-167495980D01*
X26682376Y-167471720D01*
X26763563Y-167181881D01*
X26888414Y-166911396D01*
X27052545Y-166664848D01*
X27251570Y-166446823D01*
X27481103Y-166261903D01*
X27736761Y-166114674D01*
X28014156Y-166009721D01*
X28102914Y-165986709D01*
X28235845Y-165965027D01*
X28396610Y-165952481D01*
X28566698Y-165949317D01*
X28727594Y-165955776D01*
X28860785Y-165972104D01*
X28881931Y-165976455D01*
X29165528Y-166064173D01*
X29426010Y-166192027D01*
X29660618Y-166355338D01*
X29866596Y-166549427D01*
X30041186Y-166769613D01*
X30181631Y-167011218D01*
X30285174Y-167269563D01*
X30349057Y-167539967D01*
X30370523Y-167817752D01*
X30346815Y-168098239D01*
X30282934Y-168354054D01*
X30161732Y-168638763D01*
X29998843Y-168897553D01*
X29798409Y-169126237D01*
X29564568Y-169320630D01*
X29301461Y-169476544D01*
X29083270Y-169567144D01*
X28957438Y-169606315D01*
X28841610Y-169631110D01*
X28713781Y-169645327D01*
X28595257Y-169651389D01*
X28466744Y-169653261D01*
X28342281Y-169650454D01*
X28239849Y-169643583D01*
X28196597Y-169637792D01*
X27926566Y-169567809D01*
X27678227Y-169458768D01*
X27444555Y-169306820D01*
X27218524Y-169108113D01*
X27204449Y-169094012D01*
X27041565Y-168914892D01*
X26915321Y-168739162D01*
X26815505Y-168550450D01*
X26734886Y-168341342D01*
X26699283Y-168197779D01*
X26674677Y-168022898D01*
X26664827Y-167874882D01*
X27270200Y-167874882D01*
X27277069Y-167983966D01*
X27295360Y-168083370D01*
X27315640Y-168156665D01*
X27408664Y-168381646D01*
X27539695Y-168579891D01*
X27702825Y-168748001D01*
X27892146Y-168882576D01*
X28101751Y-168980216D01*
X28325732Y-169037520D01*
X28558182Y-169051087D01*
X28793192Y-169017519D01*
X28805750Y-169014322D01*
X29041455Y-168927352D01*
X29254434Y-168797556D01*
X29438890Y-168630059D01*
X29589024Y-168429988D01*
X29686109Y-168236178D01*
X29724545Y-168102184D01*
X29748761Y-167939339D01*
X29757367Y-167767999D01*
X29748974Y-167608517D01*
X29734668Y-167524708D01*
X29654465Y-167292794D01*
X29530333Y-167082018D01*
X29366734Y-166897905D01*
X29168132Y-166745976D01*
X29053668Y-166682101D01*
X28836066Y-166574275D01*
X28192763Y-166574275D01*
X27977319Y-166681031D01*
X27759296Y-166813996D01*
X27579829Y-166979001D01*
X27435211Y-167179813D01*
X27376571Y-167291105D01*
X27330848Y-167392490D01*
X27301903Y-167475390D01*
X27285158Y-167559407D01*
X27276034Y-167664143D01*
X27272679Y-167735795D01*
X27270200Y-167874882D01*
X26664827Y-167874882D01*
X26662190Y-167835262D01*
X26662943Y-167653435D01*
G37*
G36*
X55603970Y-200987310D02*
G01*
X55610303Y-200991819D01*
X55619296Y-201005382D01*
X55626568Y-201032575D01*
X55632221Y-201077767D01*
X55636357Y-201145324D01*
X55639077Y-201239617D01*
X55640482Y-201365015D01*
X55640675Y-201525885D01*
X55639757Y-201726596D01*
X55637829Y-201971518D01*
X55636466Y-202117333D01*
X55633369Y-202407423D01*
X55629805Y-202652029D01*
X55625201Y-202856519D01*
X55618985Y-203026261D01*
X55610584Y-203166620D01*
X55599425Y-203282965D01*
X55584937Y-203380663D01*
X55566547Y-203465080D01*
X55543683Y-203541585D01*
X55515771Y-203615543D01*
X55482240Y-203692324D01*
X55464363Y-203730939D01*
X55333703Y-203960091D01*
X55176722Y-204148077D01*
X54996034Y-204293387D01*
X54794251Y-204394512D01*
X54573986Y-204449941D01*
X54337849Y-204458165D01*
X54226976Y-204446044D01*
X54009593Y-204387943D01*
X53811399Y-204284464D01*
X53635174Y-204138359D01*
X53483701Y-203952381D01*
X53359760Y-203729283D01*
X53275701Y-203504524D01*
X53262127Y-203457883D01*
X53250816Y-203412521D01*
X53241515Y-203363350D01*
X53233975Y-203305281D01*
X53227942Y-203233224D01*
X53223164Y-203142090D01*
X53219391Y-203026792D01*
X53216370Y-202882239D01*
X53213850Y-202703343D01*
X53211578Y-202485015D01*
X53209303Y-202222166D01*
X53208720Y-202150801D01*
X53199268Y-200987588D01*
X54168295Y-200987588D01*
X54174838Y-202621172D01*
X54181382Y-204254755D01*
X54461061Y-204254575D01*
X54587070Y-204253554D01*
X54675976Y-204249037D01*
X54741519Y-204238552D01*
X54797437Y-204219629D01*
X54857469Y-204189795D01*
X54875201Y-204180082D01*
X55030923Y-204071885D01*
X55162827Y-203930712D01*
X55273873Y-203752128D01*
X55367021Y-203531695D01*
X55419096Y-203364865D01*
X55433017Y-203312692D01*
X55444505Y-203261992D01*
X55453835Y-203207310D01*
X55461278Y-203143190D01*
X55467108Y-203064177D01*
X55471597Y-202964816D01*
X55475019Y-202839652D01*
X55477646Y-202683229D01*
X55479752Y-202490092D01*
X55481609Y-202254785D01*
X55482701Y-202093594D01*
X55484208Y-201865373D01*
X55485630Y-201653069D01*
X55486929Y-201462042D01*
X55488067Y-201297653D01*
X55489008Y-201165261D01*
X55489713Y-201070227D01*
X55490145Y-201017911D01*
X55490250Y-201009377D01*
X55511789Y-200984059D01*
X55557883Y-200975506D01*
X55603970Y-200987310D01*
G37*
G36*
X56253554Y-169663464D02*
G01*
X55668769Y-169663464D01*
X55668769Y-165925926D01*
X56253554Y-165925926D01*
X56253554Y-169663464D01*
G37*
G04 #@! TD*
M02*
